<svg width="437" height="523" viewBox="0 0 437 523" fill="none" xmlns="http://www.w3.org/2000/svg">
<path d="M397.089 399.284C407.855 391.581 420.401 382.129 424.556 370.774C434.052 344.781 417.29 319.893 412.787 295.587C410.249 281.87 419.889 271.988 425.415 260.603C433.766 243.386 434.871 222.15 436.549 203.491C438.534 181.518 434.298 151.106 417.167 135.148C399.77 118.914 376.807 118.577 356.36 108.511C327.687 94.3634 329.529 66.13 311.395 44.5868C283.642 11.6274 237.981 53.8547 201.694 37.9581C165.549 22.1228 123.981 -14.2736 82.3113 5.98073C43.4041 24.9155 33.0479 71.0095 35.5858 109.554C38.4921 153.684 60.5552 197.323 45.6759 241.791C34.6648 274.689 -3.50561 290.278 0.260261 327.749C2.0818 345.794 14.8735 359.481 25.0864 373.996C33.1707 385.504 45.9624 402.26 59.9821 407.201C74.1451 412.203 94.9802 411.989 110.064 411.989C145.799 411.989 181.575 412.019 217.33 412.019C249.401 412.019 281.473 412.019 313.544 412.05C339.312 412.05 368.477 420.09 391.174 403.519C393.016 402.199 395.022 400.787 397.089 399.284Z" fill="#0F6BFF" fill-opacity="0.1"/>
<g clip-path="url(#clip0_808_54955)">
<path d="M415 433.624H35V433.852H415V433.624Z" fill="#EBEBEB"/>
<path d="M100.056 440.844H74.9V441.072H100.056V440.844Z" fill="#EBEBEB"/>
<path d="M171.648 438.792H138.588V439.02H171.648V438.792Z" fill="#EBEBEB"/>
<path d="M126.504 444.796H97.016V445.024H126.504V444.796Z" fill="#EBEBEB"/>
<path d="M376.924 446.62H344.092V446.848H376.924V446.62Z" fill="#EBEBEB"/>
<path d="M337.328 446.62H323.04V446.848H337.328V446.62Z" fill="#EBEBEB"/>
<path d="M244 443.428H216.184V443.656H244V443.428Z" fill="#EBEBEB"/>
<path d="M215.12 399.728H68.364C66.008 399.728 64.032 397.752 64.032 395.396V189.132C64.032 186.776 66.008 184.8 68.364 184.8H215.12C217.476 184.8 219.452 186.776 219.452 189.132V395.396C219.452 397.752 217.552 399.728 215.12 399.728ZM68.364 184.952C66.084 184.952 64.184 186.776 64.184 189.132V395.396C64.184 397.676 66.008 399.576 68.364 399.576H215.12C217.4 399.576 219.3 397.752 219.3 395.396V189.132C219.3 186.852 217.476 184.952 215.12 184.952H68.364Z" fill="#EBEBEB"/>
<path d="M379.508 399.728H232.752C230.396 399.728 228.42 397.752 228.42 395.396V189.132C228.42 186.776 230.396 184.8 232.752 184.8H379.508C381.864 184.8 383.84 186.776 383.84 189.132V395.396C383.84 397.752 381.94 399.728 379.508 399.728ZM232.752 184.952C230.472 184.952 228.572 186.776 228.572 189.132V395.396C228.572 397.676 230.396 399.576 232.752 399.576H379.508C381.788 399.576 383.688 397.752 383.688 395.396V189.132C383.688 186.852 381.864 184.952 379.508 184.952H232.752Z" fill="#EBEBEB"/>
<path d="M225 467.9C306.387 467.9 372.364 464.055 372.364 459.312C372.364 454.569 306.387 450.724 225 450.724C143.613 450.724 77.636 454.569 77.636 459.312C77.636 464.055 143.613 467.9 225 467.9Z" fill="#F5F5F5"/>
<path d="M112.14 275.164C109.176 274.328 106.82 274.176 104.388 274.708C102.64 275.012 99.676 273.416 97.624 270.984C97.396 272.504 98.004 274.936 101.12 275.468C98.46 277.368 93.444 275.24 92.836 271.744C92.228 268.172 96.104 268.248 93.748 262.168C91.392 256.012 97.624 258.748 99.6 249.628C101.576 240.508 111.456 241.268 113.052 244.612C118.676 242.256 121.488 245.676 123.692 250.844C125.592 255.404 125.212 258.976 128.024 266.5C130.76 273.72 120.196 277.444 112.14 275.164Z" fill="#263238"/>
<path d="M101.88 274.784C101.576 274.784 101.196 274.708 100.816 274.556C99.296 274.024 97.396 272.2 96.712 269.844C96.712 269.768 96.712 269.616 96.864 269.616C96.94 269.616 97.092 269.616 97.092 269.768C97.7 271.972 99.524 273.644 100.968 274.176C101.424 274.328 102.108 274.48 102.64 274.1C102.716 274.024 102.868 274.1 102.868 274.176C102.944 274.252 102.868 274.404 102.792 274.404C102.64 274.708 102.26 274.784 101.88 274.784Z" fill="#263238"/>
<path d="M125.364 260.42C125.288 260.42 125.288 260.42 125.364 260.42C125.212 260.42 125.136 260.268 125.212 260.192C126.276 254.112 125.288 249.4 122.476 246.816C120.728 245.22 118.296 244.612 116.016 245.22C115.94 245.22 115.788 245.22 115.788 245.068C115.788 244.992 115.788 244.84 115.94 244.84C118.372 244.232 120.88 244.84 122.78 246.512C124.452 248.032 127.112 251.908 125.592 260.268C125.516 260.344 125.44 260.42 125.364 260.42Z" fill="#263238"/>
<path d="M128.024 323.5C128.024 323.5 128.024 364.54 125.516 386.808C125.288 407.708 120.5 454.828 120.5 454.828H115.256C114.344 431.42 107.884 409.608 112.216 388.936C102.108 348.428 106.82 323.5 106.82 323.5H128.024Z" fill="#CE7A63"/>
<path d="M122.324 323.5C122.324 323.5 113.736 369.024 110.772 388.404C107.656 408.772 103.02 448.292 103.172 454.752H98.612C98.612 454.752 90.936 414.776 98.08 389.088C92.228 331.404 104.388 323.424 104.388 323.424H122.324V323.5Z" fill="#CE7A63"/>
<path d="M132.128 287.096C132.052 289.072 131.976 291.124 131.9 293.1C131.824 295.076 131.672 297.128 131.596 299.104C131.368 303.132 131.064 307.16 130.76 311.112L130.684 310.2L131.14 312.708C131.292 313.544 131.368 314.38 131.52 315.292C131.596 316.128 131.748 317.04 131.824 317.876C131.9 318.712 131.976 319.624 132.052 320.46C132.128 321.448 131.368 322.208 130.38 322.284C129.696 322.284 129.088 321.98 128.784 321.372C128.328 320.612 127.948 319.776 127.568 319.016C127.188 318.18 126.884 317.42 126.504 316.584C126.2 315.748 125.82 314.988 125.516 314.152C125.212 313.316 124.908 312.48 124.68 311.644C124.604 311.416 124.604 311.264 124.604 311.036V310.732C124.68 306.704 124.756 302.676 124.832 298.724C124.908 296.748 124.984 294.696 125.06 292.72C125.136 290.744 125.212 288.692 125.364 286.716C125.516 284.816 127.112 283.372 129.012 283.524C130.76 283.676 132.204 285.272 132.128 287.096Z" fill="#CE7A63"/>
<path d="M128.024 278.584C132.812 281.776 134.864 288.844 134.94 293.328C132.812 297.888 125.06 298.648 125.06 298.648C125.06 298.648 122.856 290.364 123.008 286.336C123.236 282.308 125.288 276.76 128.024 278.584Z" fill="#263238"/>
<path d="M132.052 286.032C132.052 281.32 128.404 277.444 123.692 277.14C122.4 277.064 121.032 276.988 119.74 276.988C115.788 276.912 112.064 277.368 107.656 277.9C106.516 278.052 105.376 278.204 104.312 278.432C100.36 279.116 97.776 283.068 98.84 286.944C103.248 303.588 103.856 315.748 102.184 323.196C102.184 323.196 96.864 330.264 94.508 346.528C92.38 360.664 94.432 385.06 92.152 397.828C100.436 403.756 125.136 402.92 129.012 399.5C127.948 373.584 133.192 339.536 129.164 323.88C130.76 315.14 131.216 305.64 131.52 300.32C136.916 295.456 132.052 292.188 132.052 286.032Z" fill="#407BFF"/>
<path d="M128.404 323.956C126.124 322.968 127.036 319.472 127.036 319.472L126.504 317.496C126.276 316.66 126.732 315.976 127.568 315.9L128.86 315.748C129.772 315.596 130.836 316.28 131.216 317.192L131.52 317.8C132.052 318.864 132.128 320.004 131.9 321.144L131.52 322.74C131.444 323.12 131.292 323.424 131.064 323.652C130.456 324.26 129.316 324.412 128.404 323.956Z" fill="#CE7A63"/>
<path opacity="0.2" d="M113.736 377.384C113.052 366.972 113.736 351.316 120.12 342.576C118.448 353.672 113.736 377.384 113.736 377.384Z" fill="black"/>
<path d="M108.036 264.22C109.024 268.02 110.164 275.164 107.504 277.9C107.504 277.9 117.156 280.56 123.464 289.224C126.352 280.104 119.588 277.064 119.588 277.064C115.18 276.38 115.104 273.112 115.712 270.072L108.036 264.22Z" fill="#CE7A63"/>
<path opacity="0.2" d="M111.228 266.576L115.864 269.996C115.712 270.756 115.636 271.44 115.636 272.2C113.964 272.048 111.608 270.452 111.304 268.704C111.152 267.792 111.076 266.956 111.228 266.576Z" fill="black"/>
<path d="M103.552 257.38C105.376 263.612 106.06 266.272 109.936 268.704C115.788 272.352 122.932 268.628 122.932 261.94C122.932 255.936 119.892 246.74 113.28 245.828C106.744 244.84 101.728 251.148 103.552 257.38Z" fill="#CE7A63"/>
<path d="M113.052 245.068C117.84 251.148 105.756 249.476 106.896 254.568C108.036 259.66 101.804 260.876 103.248 264.752C95.572 263.536 99.372 241.952 113.052 245.068Z" fill="#263238"/>
<path d="M111.684 245.676C112.824 249.628 117.916 247.88 120.728 250.16C120.196 245.676 113.052 243.928 111.684 245.676Z" fill="#263238"/>
<path d="M112.596 256.772C112.748 257.304 113.052 257.608 113.432 257.532C113.736 257.456 113.964 256.924 113.812 256.468C113.66 255.936 113.356 255.632 112.976 255.708C112.672 255.784 112.52 256.24 112.596 256.772Z" fill="#263238"/>
<path d="M118.98 255.252C119.132 255.784 119.436 256.088 119.816 256.012C120.12 255.936 120.348 255.404 120.196 254.948C120.044 254.416 119.74 254.112 119.36 254.188C119.056 254.264 118.904 254.72 118.98 255.252Z" fill="#263238"/>
<path d="M119.208 254.264L120.348 253.58C120.424 253.58 119.968 254.72 119.208 254.264Z" fill="#263238"/>
<path d="M117.764 256.088C117.764 256.088 119.132 258.064 120.348 258.9C119.816 259.736 118.6 259.736 118.6 259.736L117.764 256.088Z" fill="#BA4D3C"/>
<path d="M103.552 263.612C104.464 264.6 105.68 265.056 106.668 265.056C108.188 264.98 108.416 263.308 107.58 261.864C106.82 260.572 105.148 259.052 103.856 259.812C102.564 260.496 102.488 262.396 103.552 263.612Z" fill="#CE7A63"/>
<path d="M111.38 254.568C111.456 254.568 111.532 254.492 111.532 254.416C111.988 253.124 113.052 252.744 113.128 252.744C113.28 252.668 113.432 252.516 113.356 252.364C113.28 252.212 113.128 252.136 112.976 252.136C112.9 252.136 111.532 252.592 111 254.188C110.924 254.34 111 254.492 111.228 254.568C111.228 254.644 111.304 254.568 111.38 254.568Z" fill="#263238"/>
<path d="M121.336 252.212C121.412 252.212 121.488 252.212 121.564 252.136C121.716 251.984 121.716 251.832 121.564 251.68C120.424 250.388 118.98 250.616 118.904 250.616C118.752 250.616 118.6 250.768 118.676 250.996C118.676 251.148 118.828 251.3 119.056 251.224C119.132 251.224 120.196 251.072 121.108 252.06C121.184 252.136 121.26 252.212 121.336 252.212Z" fill="#263238"/>
<path d="M112.824 255.784L113.964 255.1C114.04 255.1 113.584 256.24 112.824 255.784Z" fill="#263238"/>
<path d="M110.772 324.944L116.016 327.376L111.608 332.392C111.608 332.392 108.264 329.732 107.428 326.616L107.732 325.78C108.796 324.868 109.328 324.64 110.772 324.944Z" fill="#CE7A63"/>
<path d="M117.156 331.784L114.952 333.684C114.268 334.216 113.356 334.216 112.748 333.608L111.608 332.468L116.016 327.452L117.46 329.58C117.992 330.264 117.84 331.252 117.156 331.784Z" fill="#CE7A63"/>
<path d="M105.072 286.944C103.78 290.82 102.564 294.696 101.348 298.572C100.74 300.548 100.208 302.448 99.676 304.348C99.448 305.336 99.22 306.248 98.992 307.16C98.764 308.072 98.612 309.06 98.612 309.744C98.46 310.732 99.068 312.328 99.98 313.772C100.892 315.292 102.108 316.736 103.476 318.18C104.768 319.624 106.212 320.992 107.732 322.284C109.252 323.652 110.848 324.944 112.368 326.16L112.444 326.236C113.204 326.844 113.28 327.908 112.748 328.592C112.216 329.276 111.38 329.428 110.62 329.048C106.744 327.072 103.248 324.716 99.904 321.904C98.232 320.46 96.636 318.94 95.268 316.964C94.584 315.976 93.9 314.988 93.368 313.772C92.836 312.556 92.456 311.112 92.456 309.592C92.456 308.224 92.608 307.084 92.76 306.02C92.912 304.88 93.14 303.816 93.368 302.828C93.824 300.7 94.356 298.648 94.888 296.672C96.028 292.568 97.244 288.616 98.612 284.664C99.22 282.916 101.196 281.928 102.944 282.612C104.692 283.22 105.604 285.12 105.072 286.944Z" fill="#CE7A63"/>
<path d="M101.804 279.344C98.004 281.092 96.256 283.828 93.368 291.276C94.356 296.216 103.172 299.18 103.172 299.18C103.172 299.18 105.528 293.708 106.288 289.756C107.048 285.804 105.68 277.52 101.804 279.344Z" fill="#263238"/>
<path d="M114.8 454.828C114.8 454.676 115.028 454.524 115.256 454.524L120.12 454.448C120.652 454.448 121.184 454.524 121.564 454.752C123.008 455.74 125.668 456.88 128.936 457.412C130 457.564 129.468 459.312 127.036 459.312C123.008 459.388 122.248 459.084 118.828 459.084C115.864 459.084 117.308 459.236 114.952 459.312C114.42 459.312 113.964 458.932 114.04 458.552L114.8 454.828Z" fill="#263238"/>
<path d="M98.004 454.828C98.004 454.676 98.232 454.524 98.46 454.524L102.412 454.448C102.944 454.448 103.476 454.524 103.856 454.752C105.3 455.74 105.072 456.88 108.416 457.412C109.48 457.564 108.948 459.312 106.516 459.312C102.488 459.388 102.716 459.084 101.044 459.084C99.372 459.084 100.436 459.236 98.08 459.312C97.548 459.312 97.092 458.932 97.168 458.552L98.004 454.828Z" fill="#263238"/>
<path d="M120.88 286.108C119.056 285.652 115.028 285.956 112.976 288.312C109.024 286.792 105.3 281.396 105.376 277.976C106.896 276.684 108.34 276.684 108.34 276.684C108.34 276.684 117.232 281.016 120.88 286.108Z" fill="#FAFAFA"/>
<path d="M124.224 285.804C124.224 285.804 124.756 281.32 119.36 276.912C119.892 276.456 122.02 276.988 122.02 276.988C122.02 276.988 128.404 279.724 128.176 286.792C126.2 285.348 124.224 285.804 124.224 285.804Z" fill="#FAFAFA"/>
<path d="M113.964 261.712C113.66 261.56 113.356 261.408 113.052 261.256C112.976 261.18 112.976 261.104 113.052 261.028C113.128 260.952 113.204 260.952 113.28 260.952C115.484 262.396 117.688 261.636 117.688 261.56C117.764 261.56 117.916 261.56 117.916 261.636C117.916 261.712 117.916 261.864 117.84 261.864C117.764 261.94 116.016 262.548 113.964 261.712Z" fill="#263238"/>
<path d="M183.504 275.164C180.54 274.328 178.184 274.176 175.752 274.708C174.004 275.012 171.04 273.416 168.988 270.984C168.76 272.504 169.368 274.936 172.484 275.468C169.824 277.368 164.808 275.24 164.2 271.744C163.592 268.172 167.468 268.248 165.112 262.168C162.756 256.012 168.988 258.748 170.964 249.628C172.94 240.508 182.82 241.268 184.416 244.612C190.04 242.256 192.852 245.676 195.056 250.844C196.956 255.404 196.576 258.976 199.388 266.5C202.124 273.72 191.56 277.444 183.504 275.164Z" fill="#263238"/>
<path d="M173.244 274.784C172.94 274.784 172.56 274.708 172.18 274.556C170.66 274.024 168.76 272.2 168.076 269.844C168.076 269.768 168.076 269.616 168.228 269.616C168.304 269.616 168.456 269.616 168.456 269.768C169.064 271.972 170.888 273.644 172.332 274.176C172.788 274.328 173.472 274.48 174.004 274.1C174.08 274.024 174.232 274.1 174.232 274.176C174.308 274.252 174.232 274.404 174.156 274.404C173.928 274.708 173.624 274.784 173.244 274.784Z" fill="#263238"/>
<path d="M196.652 260.42C196.5 260.42 196.424 260.268 196.5 260.192C197.564 254.112 196.576 249.4 193.764 246.816C192.016 245.22 189.584 244.612 187.304 245.22C187.228 245.22 187.076 245.22 187.076 245.068C187.076 244.992 187.076 244.84 187.228 244.84C189.66 244.232 192.168 244.84 194.068 246.512C195.74 248.032 198.4 251.908 196.88 260.268C196.804 260.344 196.728 260.42 196.652 260.42Z" fill="#263238"/>
<path d="M200.376 323.5C200.376 323.5 200.376 364.54 197.868 386.808C197.64 407.708 192.852 454.828 192.852 454.828H187.608C186.696 431.42 180.236 409.608 184.568 388.936C174.46 348.428 179.172 323.5 179.172 323.5H200.376Z" fill="#CE7A63"/>
<path d="M193.612 323.5C193.612 323.5 185.024 369.024 182.06 388.404C178.944 408.772 174.308 448.292 174.46 454.752H169.9C169.9 454.752 162.224 414.776 169.368 389.088C163.516 331.404 175.676 323.424 175.676 323.424H193.612V323.5Z" fill="#CE7A63"/>
<path d="M203.492 286.868C203.568 288.844 203.568 290.82 203.568 292.796C203.568 294.772 203.568 296.748 203.568 298.724C203.492 302.676 203.416 306.704 203.036 310.732L202.96 309.82C203.112 310.504 203.188 311.188 203.416 311.872C203.568 312.556 203.796 313.316 204.024 314C204.252 314.76 204.48 315.444 204.784 316.204C205.012 316.964 205.316 317.724 205.544 318.408L205.62 318.56C205.924 319.472 205.468 320.46 204.556 320.764C203.948 320.992 203.264 320.84 202.808 320.384C202.124 319.776 201.592 319.092 200.984 318.408C200.452 317.724 199.92 317.04 199.388 316.28C198.4 314.76 197.564 313.164 196.956 311.34C196.88 311.112 196.88 310.96 196.88 310.732V310.428C196.88 306.552 196.804 302.676 196.804 298.724L196.728 292.796L196.652 286.868C196.652 284.968 198.172 283.448 200.072 283.448C201.896 283.524 203.416 284.968 203.492 286.868Z" fill="#CE7A63"/>
<path d="M199.312 278.584C204.1 281.776 206.152 288.844 206.228 293.328C204.1 297.888 196.348 298.648 196.348 298.648C196.348 298.648 194.144 290.364 194.296 286.336C194.524 282.308 196.576 276.76 199.312 278.584Z" fill="#263238"/>
<path d="M203.34 286.032C203.34 281.32 199.692 277.444 194.98 277.14C193.688 277.064 192.32 276.988 191.028 276.988C187.076 276.912 183.352 277.368 178.944 277.9C177.804 278.052 176.664 278.204 175.6 278.432C171.648 279.116 169.064 283.068 170.128 286.944C174.536 303.588 175.144 315.748 173.472 323.196C173.472 323.196 168.152 330.264 165.796 346.528C163.668 360.664 165.72 385.06 163.44 397.828C171.724 403.756 197.716 402.92 201.592 399.5C200.528 373.584 206.228 341.208 202.2 325.476C206.228 319.396 203.264 305.944 202.2 300.396C207.596 295.532 203.34 292.188 203.34 286.032Z" fill="#407BFF"/>
<path opacity="0.2" d="M198.552 326.008C193.612 327.3 189.28 326.996 189.28 326.996C189.28 326.996 196.424 328.82 198.552 326.008Z" fill="black"/>
<path d="M202.656 320.84C200.376 319.852 201.288 316.356 201.288 316.356L200.756 314.38C200.528 313.544 200.984 312.86 201.82 312.784L203.112 312.632C204.024 312.48 205.088 313.164 205.468 314.076L205.772 314.684C206.304 315.748 206.38 316.888 206.152 318.028L205.772 319.624C205.696 320.004 205.544 320.308 205.316 320.536C204.784 321.068 203.644 321.22 202.656 320.84Z" fill="#CE7A63"/>
<path opacity="0.2" d="M186.012 377.384C185.328 366.972 186.012 351.316 192.396 342.576C190.724 353.672 186.012 377.384 186.012 377.384Z" fill="black"/>
<path d="M179.4 264.22C180.388 268.02 181.528 275.164 178.868 277.9C178.868 277.9 188.52 280.56 194.828 289.224C197.716 280.104 190.952 277.064 190.952 277.064C186.544 276.38 186.468 273.112 187.076 270.072L179.4 264.22Z" fill="#CE7A63"/>
<path opacity="0.2" d="M182.516 266.576L187.152 269.996C187 270.756 186.924 271.44 186.924 272.2C185.252 272.048 182.896 270.452 182.592 268.704C182.44 267.792 182.44 266.956 182.516 266.576Z" fill="black"/>
<path d="M174.916 257.38C176.74 263.612 177.424 266.272 181.3 268.704C187.152 272.352 194.296 268.628 194.296 261.94C194.296 255.936 191.256 246.74 184.644 245.828C178.032 244.84 173.016 251.148 174.916 257.38Z" fill="#CE7A63"/>
<path d="M184.34 245.068C189.128 251.148 177.044 249.476 178.184 254.568C179.324 259.66 173.092 260.876 174.536 264.752C166.936 263.536 170.66 241.952 184.34 245.068Z" fill="#263238"/>
<path d="M182.972 245.676C184.112 249.628 189.204 247.88 192.016 250.16C191.484 245.676 184.34 243.928 182.972 245.676Z" fill="#263238"/>
<path d="M183.884 256.772C184.036 257.304 184.34 257.608 184.72 257.532C185.024 257.456 185.252 256.924 185.1 256.468C184.948 256.012 184.644 255.632 184.264 255.708C183.96 255.784 183.808 256.24 183.884 256.772Z" fill="#263238"/>
<path d="M190.268 255.252C190.42 255.784 190.724 256.088 191.104 256.012C191.408 255.936 191.636 255.404 191.484 254.948C191.332 254.492 191.028 254.112 190.648 254.188C190.344 254.264 190.192 254.72 190.268 255.252Z" fill="#263238"/>
<path d="M190.572 254.264L191.712 253.58C191.712 253.58 191.332 254.72 190.572 254.264Z" fill="#263238"/>
<path d="M189.128 256.088C189.128 256.088 190.496 258.064 191.712 258.9C191.18 259.736 189.964 259.736 189.964 259.736L189.128 256.088Z" fill="#BA4D3C"/>
<path d="M174.84 263.612C175.752 264.6 176.968 265.056 177.956 265.056C179.476 264.98 179.704 263.308 178.868 261.864C178.108 260.572 176.436 259.052 175.144 259.812C173.852 260.496 173.852 262.396 174.84 263.612Z" fill="#CE7A63"/>
<path d="M182.744 254.568C182.82 254.568 182.896 254.492 182.896 254.416C183.352 253.124 184.416 252.744 184.492 252.744C184.644 252.668 184.796 252.516 184.72 252.364C184.644 252.212 184.492 252.136 184.34 252.136C184.264 252.136 182.896 252.592 182.364 254.188C182.288 254.34 182.364 254.492 182.592 254.568C182.592 254.644 182.668 254.568 182.744 254.568Z" fill="#263238"/>
<path d="M192.624 252.212C192.7 252.212 192.776 252.212 192.852 252.136C193.004 251.984 193.004 251.832 192.852 251.68C191.712 250.388 190.268 250.616 190.192 250.616C190.04 250.616 189.888 250.768 189.964 250.996C189.964 251.148 190.116 251.3 190.344 251.224C190.42 251.224 191.484 251.072 192.396 252.06C192.472 252.136 192.548 252.212 192.624 252.212Z" fill="#263238"/>
<path d="M184.188 255.784L185.328 255.1C185.328 255.1 184.948 256.24 184.188 255.784Z" fill="#263238"/>
<path d="M184.34 323.956L190.116 324.792L187.304 330.872C187.304 330.872 183.276 329.276 181.604 326.616L181.68 325.704C182.364 324.412 182.896 324.032 184.34 323.956Z" fill="#CE7A63"/>
<path d="M192.396 328.592L190.876 331.024C190.42 331.784 189.432 332.012 188.672 331.556L187.228 330.796L190.04 324.716L192.092 326.388C192.7 326.996 192.852 327.908 192.396 328.592Z" fill="#CE7A63"/>
<path d="M176.436 286.716C175.372 290.668 174.308 294.62 173.32 298.648C172.864 300.624 172.332 302.6 171.952 304.576C171.724 305.564 171.572 306.552 171.42 307.464C171.344 307.92 171.268 308.376 171.192 308.832C171.116 309.288 171.116 309.668 171.116 309.972C171.04 310.96 171.724 312.404 172.788 313.848C173.852 315.216 175.22 316.584 176.74 317.876C178.184 319.168 179.78 320.384 181.452 321.524C183.124 322.664 184.796 323.804 186.544 324.868H186.62C187.456 325.324 187.684 326.388 187.152 327.224C186.696 327.908 185.86 328.212 185.1 327.908C181.072 326.388 177.272 324.412 173.624 321.98C171.8 320.688 170.052 319.32 168.456 317.572C167.62 316.66 166.86 315.672 166.252 314.532C165.644 313.392 165.112 311.948 164.96 310.352C164.884 309.592 164.96 308.984 164.96 308.376C164.96 307.768 165.036 307.236 165.112 306.628C165.264 305.488 165.416 304.424 165.568 303.36C165.948 301.232 166.328 299.18 166.784 297.128C167.696 293.024 168.76 288.92 169.9 284.892C170.432 283.068 172.332 282.08 174.156 282.612C175.828 283.068 176.892 284.892 176.436 286.716Z" fill="#CE7A63"/>
<path d="M173.092 279.344C169.292 281.092 167.544 283.828 164.656 291.276C165.644 296.216 174.46 299.18 174.46 299.18C174.46 299.18 176.816 293.708 177.576 289.756C178.336 285.804 176.968 277.52 173.092 279.344Z" fill="#263238"/>
<path d="M187.228 454.828C187.228 454.676 187.456 454.524 187.684 454.524L192.548 454.448C193.08 454.448 193.612 454.524 193.992 454.752C195.436 455.74 198.096 456.88 201.364 457.412C202.428 457.564 201.896 459.312 199.464 459.312C195.436 459.388 194.676 459.084 191.256 459.084C188.292 459.084 189.736 459.236 187.38 459.312C186.848 459.312 186.392 458.932 186.468 458.552L187.228 454.828Z" fill="#263238"/>
<path d="M169.292 454.828C169.292 454.676 169.52 454.524 169.748 454.524L173.7 454.448C174.232 454.448 174.764 454.524 175.144 454.752C176.588 455.74 176.36 456.88 179.704 457.412C180.768 457.564 180.236 459.312 177.804 459.312C173.776 459.388 174.004 459.084 172.332 459.084C170.66 459.084 171.724 459.236 169.368 459.312C168.836 459.312 168.38 458.932 168.456 458.552L169.292 454.828Z" fill="#263238"/>
<path d="M192.168 286.108C190.344 285.652 186.316 285.956 184.264 288.312C180.312 286.792 176.588 281.396 176.664 277.976C178.184 276.684 179.628 276.684 179.628 276.684C179.628 276.684 188.52 281.016 192.168 286.108Z" fill="#FAFAFA"/>
<path d="M195.512 285.804C195.512 285.804 196.044 281.32 190.648 276.912C191.18 276.456 193.308 276.988 193.308 276.988C193.308 276.988 199.692 279.724 199.464 286.792C197.488 285.348 195.512 285.804 195.512 285.804Z" fill="#FAFAFA"/>
<path d="M185.252 261.712C184.948 261.56 184.644 261.408 184.34 261.256C184.264 261.18 184.264 261.104 184.34 261.028C184.416 260.952 184.492 260.952 184.568 260.952C186.772 262.396 188.976 261.636 188.976 261.56C189.052 261.56 189.204 261.56 189.204 261.636C189.204 261.712 189.204 261.864 189.128 261.864C189.052 261.94 187.304 262.548 185.252 261.712Z" fill="#263238"/>
<path d="M254.488 275.164C251.524 274.328 249.168 274.176 246.736 274.708C244.988 275.012 242.024 273.416 239.972 270.984C239.744 272.504 240.352 274.936 243.468 275.468C240.808 277.368 235.792 275.24 235.184 271.744C234.576 268.172 238.452 268.248 236.096 262.168C233.74 256.012 239.972 258.748 241.948 249.628C243.924 240.508 253.804 241.268 255.4 244.612C261.024 242.256 263.836 245.676 266.04 250.844C267.94 255.404 267.56 258.976 270.372 266.5C273.108 273.72 262.544 277.444 254.488 275.164Z" fill="#263238"/>
<path d="M244.228 274.784C243.924 274.784 243.544 274.708 243.164 274.556C241.644 274.024 239.744 272.2 239.06 269.844C239.06 269.768 239.06 269.616 239.212 269.616C239.288 269.616 239.44 269.616 239.44 269.768C240.048 271.972 241.872 273.644 243.316 274.176C243.772 274.328 244.456 274.48 244.988 274.1C245.064 274.024 245.216 274.1 245.216 274.176C245.292 274.252 245.216 274.404 245.14 274.404C244.988 274.708 244.608 274.784 244.228 274.784Z" fill="#263238"/>
<path d="M267.712 260.42C267.636 260.42 267.636 260.42 267.712 260.42C267.56 260.42 267.484 260.268 267.56 260.192C268.624 254.112 267.636 249.4 264.824 246.816C263.076 245.22 260.644 244.612 258.364 245.22C258.288 245.22 258.136 245.22 258.136 245.068C258.136 244.992 258.136 244.84 258.288 244.84C260.72 244.232 263.228 244.84 265.128 246.512C266.8 248.032 269.46 251.908 267.94 260.268C267.864 260.344 267.788 260.42 267.712 260.42Z" fill="#263238"/>
<path d="M273.336 323.5C273.336 323.5 273.336 364.54 270.828 386.808C270.6 407.708 265.812 454.828 265.812 454.828H260.568C259.656 431.42 253.196 409.608 257.528 388.936C247.42 348.428 252.132 323.5 252.132 323.5H273.336Z" fill="#CE7A63"/>
<path d="M264.596 323.5C264.596 323.5 256.008 369.024 253.044 388.404C249.928 408.772 245.292 448.292 245.444 454.752H240.884C240.884 454.752 233.208 414.776 240.352 389.088C234.5 331.404 246.66 323.424 246.66 323.424H264.596V323.5Z" fill="#CE7A63"/>
<path d="M274.476 286.868C274.552 288.844 274.552 290.82 274.552 292.796C274.552 294.772 274.552 296.748 274.552 298.724C274.476 302.676 274.4 306.704 274.02 310.732L273.944 309.82C273.944 309.972 273.944 309.896 273.792 309.744C273.64 309.592 273.184 309.364 272.956 309.364C272.728 309.364 272.804 309.44 272.956 309.44C273.108 309.44 273.336 309.44 273.64 309.364C274.172 309.212 274.856 308.984 275.464 308.68C276.148 308.376 276.832 307.996 277.44 307.692L277.592 307.616C278.428 307.16 279.492 307.54 279.872 308.376C280.176 308.984 280.1 309.592 279.72 310.124C279.188 310.884 278.656 311.492 277.972 312.176C277.364 312.784 276.604 313.392 275.768 314C275.312 314.304 274.856 314.532 274.248 314.76C273.64 314.988 272.88 315.14 271.892 315.064C271.436 314.988 270.828 314.836 270.372 314.608C269.84 314.304 269.384 314 269.08 313.544C268.396 312.784 268.092 311.948 267.864 311.34C267.788 311.112 267.788 310.96 267.788 310.732V310.428C267.788 306.552 267.712 302.676 267.712 298.724L267.636 292.796L267.56 286.868C267.56 284.968 269.08 283.448 270.98 283.448C272.88 283.524 274.4 284.968 274.476 286.868Z" fill="#CE7A63"/>
<path d="M270.372 278.584C275.16 281.776 277.212 288.844 277.288 293.328C275.16 297.888 267.408 298.648 267.408 298.648C267.408 298.648 265.204 290.364 265.356 286.336C265.584 282.308 267.636 276.76 270.372 278.584Z" fill="#263238"/>
<path d="M274.4 286.032C274.4 281.32 270.752 277.444 266.04 277.14C264.748 277.064 263.38 276.988 262.088 276.988C258.136 276.912 254.412 277.368 250.004 277.9C248.864 278.052 247.724 278.204 246.66 278.432C242.708 279.116 240.124 283.068 241.188 286.944C245.596 303.588 246.204 315.748 244.532 323.196C244.532 323.196 239.212 330.264 236.856 346.528C234.728 360.664 236.78 385.06 234.5 397.828C242.784 403.756 269.308 402.844 273.26 399.5C272.804 373.508 280.86 341.284 276.832 325.628C280.86 319.548 280.556 306.172 273.26 300.396C278.656 295.532 274.324 292.188 274.4 286.032Z" fill="#407BFF"/>
<path opacity="0.2" d="M274.628 326.16C266.8 327.756 260.036 327.072 260.036 327.072C260.036 327.072 271.132 330.34 274.628 326.16Z" fill="black"/>
<path d="M278.428 311.492C275.996 311.112 275.92 307.54 275.92 307.54L274.856 305.792C274.4 305.032 274.704 304.272 275.464 303.968L276.68 303.436C277.516 303.056 278.732 303.436 279.34 304.196L279.796 304.728C280.556 305.64 281.012 306.704 281.012 307.844L281.088 309.44C281.088 309.82 281.012 310.124 280.86 310.504C280.556 311.188 279.492 311.644 278.428 311.492Z" fill="#CE7A63"/>
<path opacity="0.2" d="M257.908 377.384C257.224 366.972 257.908 351.316 264.292 342.576C262.62 353.672 257.908 377.384 257.908 377.384Z" fill="black"/>
<path d="M250.384 264.22C251.372 268.02 252.512 275.164 249.852 277.9C249.852 277.9 259.504 280.56 265.812 289.224C268.7 280.104 261.936 277.064 261.936 277.064C257.528 276.38 257.452 273.112 258.06 270.072L250.384 264.22Z" fill="#CE7A63"/>
<path opacity="0.2" d="M253.576 266.576L258.212 269.996C258.06 270.756 257.984 271.44 257.984 272.2C256.312 272.048 253.956 270.452 253.652 268.704C253.424 267.792 253.424 266.956 253.576 266.576Z" fill="black"/>
<path d="M245.9 257.38C247.724 263.612 248.408 266.272 252.284 268.704C258.136 272.352 265.28 268.628 265.28 261.94C265.28 255.936 262.24 246.74 255.628 245.828C249.092 244.84 244.076 251.148 245.9 257.38Z" fill="#CE7A63"/>
<path d="M255.324 245.068C260.112 251.148 248.028 249.476 249.168 254.568C250.308 259.66 244.076 260.876 245.52 264.752C237.92 263.536 241.72 241.952 255.324 245.068Z" fill="#263238"/>
<path d="M254.032 245.676C255.172 249.628 260.264 247.88 263.076 250.16C262.468 245.676 255.4 243.928 254.032 245.676Z" fill="#263238"/>
<path d="M254.944 256.772C255.096 257.304 255.4 257.608 255.78 257.532C256.084 257.456 256.312 256.924 256.16 256.468C256.008 256.012 255.704 255.632 255.324 255.708C255.02 255.784 254.868 256.24 254.944 256.772Z" fill="#263238"/>
<path d="M261.328 255.252C261.48 255.784 261.784 256.088 262.164 256.012C262.468 255.936 262.696 255.404 262.544 254.948C262.392 254.416 262.088 254.112 261.708 254.188C261.404 254.264 261.176 254.72 261.328 255.252Z" fill="#263238"/>
<path d="M261.556 254.264L262.696 253.58C262.772 253.58 262.316 254.72 261.556 254.264Z" fill="#263238"/>
<path d="M260.112 256.088C260.112 256.088 261.48 258.064 262.696 258.9C262.164 259.736 260.948 259.736 260.948 259.736L260.112 256.088Z" fill="#BA4D3C"/>
<path d="M245.9 263.612C246.812 264.6 248.028 265.056 249.016 265.056C250.536 264.98 250.764 263.308 249.928 261.864C249.168 260.572 247.496 259.052 246.204 259.812C244.912 260.496 244.836 262.396 245.9 263.612Z" fill="#CE7A63"/>
<path d="M253.728 254.568C253.804 254.568 253.88 254.492 253.88 254.416C254.336 253.124 255.4 252.744 255.476 252.744C255.628 252.668 255.78 252.516 255.704 252.364C255.628 252.212 255.476 252.136 255.324 252.136C255.248 252.136 253.88 252.592 253.348 254.188C253.272 254.34 253.348 254.492 253.576 254.568C253.576 254.644 253.652 254.568 253.728 254.568Z" fill="#263238"/>
<path d="M263.684 252.212C263.76 252.212 263.836 252.212 263.912 252.136C264.064 251.984 264.064 251.832 263.912 251.68C262.772 250.388 261.328 250.616 261.252 250.616C261.1 250.616 260.948 250.768 261.024 250.996C261.024 251.148 261.176 251.3 261.404 251.224C261.48 251.224 262.544 251.072 263.456 252.06C263.532 252.136 263.608 252.212 263.684 252.212Z" fill="#263238"/>
<path d="M255.172 255.784L256.312 255.1C256.388 255.1 255.932 256.24 255.172 255.784Z" fill="#263238"/>
<path d="M258.44 320.308L264.14 319.32L263.38 325.932C263.38 325.932 259.124 325.704 256.616 323.652L256.388 322.816C256.768 321.296 257.072 320.764 258.44 320.308Z" fill="#CE7A63"/>
<path d="M267.636 322.132L266.952 324.944C266.724 325.78 265.888 326.312 265.052 326.16L263.456 325.856L264.216 319.244L266.648 320.156C267.408 320.536 267.788 321.372 267.636 322.132Z" fill="#CE7A63"/>
<path d="M247.42 286.716C246.356 290.668 245.292 294.62 244.304 298.572C243.848 300.548 243.316 302.524 242.936 304.5C242.708 305.488 242.556 306.476 242.404 307.388C242.328 307.844 242.252 308.3 242.176 308.756C242.1 309.212 242.1 309.592 242.1 309.896V310.124V310.276C242.1 310.352 242.1 310.504 242.176 310.58C242.252 310.808 242.328 311.036 242.48 311.34C242.784 311.872 243.24 312.48 243.924 313.012C245.14 314.152 246.812 315.216 248.484 316.052C250.156 316.964 251.98 317.8 253.88 318.56C255.704 319.32 257.68 320.004 259.58 320.612H259.656C260.568 320.916 261.024 321.828 260.72 322.74C260.492 323.5 259.656 324.032 258.896 323.88C254.564 323.348 250.46 322.36 246.356 320.764C244.304 319.928 242.252 318.94 240.276 317.42C239.288 316.66 238.3 315.748 237.464 314.532C237.084 313.924 236.704 313.24 236.4 312.48C236.248 312.1 236.172 311.72 236.096 311.264C236.02 311.036 236.02 310.884 236.02 310.656L235.944 310.048C235.868 309.288 235.944 308.68 235.944 308.072C235.944 307.464 236.02 306.932 236.096 306.324C236.248 305.184 236.4 304.12 236.552 303.056C236.932 300.928 237.312 298.876 237.768 296.824C238.68 292.72 239.744 288.692 240.884 284.588C241.416 282.764 243.316 281.776 245.14 282.308C246.888 283.068 247.952 284.892 247.42 286.716Z" fill="#CE7A63"/>
<path d="M244.152 279.344C240.352 281.092 238.604 283.828 235.716 291.276C236.704 296.216 245.52 299.18 245.52 299.18C245.52 299.18 247.876 293.708 248.636 289.756C249.396 285.804 248.028 277.52 244.152 279.344Z" fill="#263238"/>
<path d="M260.188 454.828C260.188 454.676 260.416 454.524 260.644 454.524L265.508 454.448C266.04 454.448 266.572 454.524 266.952 454.752C268.396 455.74 271.056 456.88 274.324 457.412C275.388 457.564 274.856 459.312 272.424 459.312C268.396 459.388 267.636 459.084 264.216 459.084C261.252 459.084 262.696 459.236 260.34 459.312C259.808 459.312 259.352 458.932 259.428 458.552L260.188 454.828Z" fill="#263238"/>
<path d="M240.352 454.828C240.352 454.676 240.58 454.524 240.808 454.524L244.76 454.448C245.292 454.448 245.824 454.524 246.204 454.752C247.648 455.74 247.42 456.88 250.764 457.412C251.828 457.564 251.296 459.312 248.864 459.312C244.836 459.388 245.064 459.084 243.392 459.084C241.72 459.084 242.784 459.236 240.428 459.312C239.896 459.312 239.44 458.932 239.516 458.552L240.352 454.828Z" fill="#263238"/>
<path d="M263.228 286.108C261.404 285.652 257.376 285.956 255.324 288.312C251.372 286.792 247.648 281.396 247.724 277.976C249.244 276.684 250.688 276.684 250.688 276.684C250.688 276.684 259.58 281.016 263.228 286.108Z" fill="#FAFAFA"/>
<path d="M266.572 285.804C266.572 285.804 267.104 281.32 261.708 276.912C262.24 276.456 264.368 276.988 264.368 276.988C264.368 276.988 270.752 279.724 270.524 286.792C268.548 285.348 266.572 285.804 266.572 285.804Z" fill="#FAFAFA"/>
<path d="M256.312 261.712C256.008 261.56 255.704 261.408 255.4 261.256C255.324 261.18 255.324 261.104 255.4 261.028C255.476 260.952 255.552 260.952 255.628 260.952C257.832 262.396 260.036 261.636 260.036 261.56C260.112 261.56 260.264 261.56 260.264 261.636C260.264 261.712 260.264 261.864 260.188 261.864C260.112 261.94 258.288 262.548 256.312 261.712Z" fill="#263238"/>
<path d="M325.244 276.152C322.584 274.632 320.304 274.024 317.796 273.948C316.048 273.796 313.464 271.592 312.096 268.78C311.564 270.148 311.488 272.732 314.452 273.948C311.412 275.164 307.004 271.972 307.308 268.4C307.536 264.828 311.26 265.816 310.424 259.28C309.588 252.744 314.984 256.848 319.012 248.412C323.04 239.976 332.464 243.016 333.3 246.664C339.304 245.676 341.28 249.704 342.192 255.176C343.028 260.04 341.736 263.46 342.8 271.44C343.712 279.04 332.616 280.18 325.244 276.152Z" fill="#263238"/>
<path d="M315.136 272.428C314.832 272.428 314.452 272.352 314.072 272.2C312.552 271.668 310.652 269.844 309.968 267.488C309.968 267.412 309.968 267.26 310.12 267.26C310.196 267.26 310.348 267.26 310.348 267.412C310.956 269.616 312.78 271.288 314.224 271.82C314.68 271.972 315.364 272.124 315.896 271.744C315.972 271.668 316.124 271.744 316.124 271.82C316.2 271.896 316.124 272.048 316.048 272.048C315.896 272.276 315.516 272.428 315.136 272.428Z" fill="#263238"/>
<path d="M340.672 264.98H340.596C340.52 264.904 340.444 264.828 340.52 264.752C343.256 259.28 343.712 254.416 341.812 251.148C340.596 249.096 338.468 247.804 336.112 247.728C336.036 247.728 335.96 247.652 335.96 247.5C335.96 247.424 336.036 247.272 336.188 247.348C338.696 247.424 340.9 248.792 342.192 250.92C343.332 252.896 344.776 257.304 340.9 264.904C340.824 264.98 340.748 264.98 340.672 264.98Z" fill="#263238"/>
<path d="M341.584 323.5C341.584 323.5 341.584 364.54 339.076 386.808C338.848 407.708 334.06 454.828 334.06 454.828H328.816C327.904 431.42 321.444 409.608 325.776 388.936C315.668 348.428 320.38 323.5 320.38 323.5H341.584Z" fill="#CE7A63"/>
<path d="M335.884 323.5C335.884 323.5 327.296 369.024 324.332 388.404C321.216 408.772 316.58 448.292 316.732 454.752H312.172C312.172 454.752 304.496 414.776 311.64 389.088C305.788 331.404 317.948 323.424 317.948 323.424H335.884V323.5Z" fill="#CE7A63"/>
<path d="M345.688 287.628C345.384 289.376 345.004 291.276 344.776 293.176C344.472 295 344.244 296.9 344.092 298.724C343.864 300.548 343.788 302.448 343.712 304.196C343.636 306.02 343.712 307.768 343.94 309.364L343.636 308.528C343.56 308.452 343.332 308.3 343.408 308.376C343.484 308.452 343.712 308.528 344.092 308.604C344.852 308.68 345.916 308.604 346.98 308.452C348.044 308.3 349.184 307.996 350.248 307.692C351.388 307.388 352.528 307.008 353.592 306.704H353.668C354.58 306.4 355.492 306.932 355.796 307.844C356.024 308.528 355.72 309.288 355.188 309.744C354.124 310.504 353.06 311.188 351.92 311.796C350.78 312.404 349.64 312.936 348.348 313.468C347.056 313.924 345.688 314.304 344.092 314.456C343.256 314.456 342.344 314.456 341.204 314.076C340.14 313.696 338.924 312.784 338.24 311.644C338.088 311.416 338.012 311.188 337.936 310.884V310.808C337.404 308.528 337.252 306.476 337.176 304.424C337.1 302.372 337.176 300.32 337.328 298.344C337.48 296.368 337.708 294.316 337.936 292.416C338.24 290.44 338.544 288.54 339 286.488C339.38 284.664 341.204 283.448 343.104 283.904C344.852 284.056 345.992 285.804 345.688 287.628Z" fill="#CE7A63"/>
<path d="M341.584 278.584C346.372 281.776 348.424 288.844 348.5 293.328C346.372 297.888 338.62 298.648 338.62 298.648C338.62 298.648 336.416 290.364 336.568 286.336C336.796 282.308 338.848 276.76 341.584 278.584Z" fill="#263238"/>
<path d="M345.612 286.032C345.612 281.32 341.964 277.444 337.252 277.14C335.96 277.064 334.592 276.988 333.3 276.988C329.348 276.912 325.624 277.368 321.216 277.9C320.076 278.052 318.936 278.204 317.872 278.432C313.92 279.116 311.336 283.068 312.4 286.944C316.808 303.588 317.416 315.748 315.744 323.196C315.744 323.196 310.424 330.264 308.068 346.528C305.94 360.664 307.992 385.06 305.712 397.828C313.996 403.756 338.696 402.92 342.572 399.5C341.508 373.584 346.752 339.536 342.724 323.88C344.32 315.14 344.776 305.64 345.08 300.32C350.552 295.456 345.612 292.188 345.612 286.032Z" fill="#407BFF"/>
<path d="M322.736 317.572C323.268 311.34 337.556 286.716 346.98 287.02C356.404 287.4 358.912 294.544 355.796 303.436C352.756 312.252 344.092 322.208 333.984 323.5C323.876 324.792 322.432 321.144 322.736 317.572Z" fill="#407BFF"/>
<path opacity="0.8" d="M322.736 317.572C323.268 311.34 337.556 286.716 346.98 287.02C356.404 287.4 358.912 294.544 355.796 303.436C352.756 312.252 344.092 322.208 333.984 323.5C323.876 324.792 322.432 321.144 322.736 317.572Z" fill="white"/>
<path d="M339.38 294.772C341.812 289.984 346.98 288.92 350.324 290.744C353.668 292.568 351.92 298.572 349.488 300.244C346.98 301.84 335.884 301.46 339.38 294.772Z" fill="#CE7A63"/>
<path opacity="0.3" d="M339.836 305.944C335.048 305.944 331.172 305.26 330.108 304.044C329.804 303.664 329.728 303.284 329.956 302.904C330.032 302.828 330.108 302.752 330.184 302.828C330.26 302.904 330.336 302.98 330.26 303.056C330.108 303.36 330.184 303.588 330.412 303.816C332.236 305.868 345.004 306.552 354.352 303.512C354.428 303.512 354.58 303.512 354.58 303.664C354.58 303.74 354.58 303.892 354.428 303.892C349.944 305.26 344.472 305.944 339.836 305.944Z" fill="#407BFF"/>
<path opacity="0.3" d="M343.788 316.508C342.344 316.508 340.824 316.204 339.152 315.672C334.288 314 330.336 310.428 328.588 306.096C328.512 306.02 328.588 305.868 328.664 305.868C328.74 305.792 328.892 305.868 328.892 305.944C330.64 310.2 334.516 313.696 339.228 315.368C342.344 316.432 345.232 316.508 347.056 315.444C347.132 315.368 347.284 315.444 347.284 315.52C347.36 315.596 347.284 315.748 347.208 315.748C346.372 316.28 345.156 316.508 343.788 316.508Z" fill="#407BFF"/>
<path d="M345.004 293.784C345.004 293.784 344.168 294.012 343.484 294.468C343.104 294.696 343.104 295.304 343.484 295.532C343.788 295.684 344.092 295.76 344.092 295.76L345.004 293.784Z" fill="#BA4D3C"/>
<path d="M346.752 293.936C346.828 293.936 346.828 293.936 346.904 294.012C347.436 294.62 348.12 294.544 348.12 294.544C348.196 294.544 348.272 294.62 348.348 294.696C348.348 294.772 348.272 294.848 348.196 294.924C348.196 294.924 347.36 295 346.676 294.24C346.6 294.164 346.6 294.088 346.676 294.012C346.676 293.936 346.676 293.936 346.752 293.936Z" fill="#263238"/>
<path d="M343.56 293.024C343.56 293.024 343.636 293.1 343.636 293.176C343.636 293.252 343.56 293.328 343.484 293.404C342.496 293.556 341.964 292.948 341.964 292.872C341.888 292.796 341.888 292.72 341.964 292.644C342.04 292.568 342.116 292.568 342.192 292.644C342.192 292.644 342.648 293.176 343.408 293.024C343.484 293.024 343.56 293.024 343.56 293.024Z" fill="#263238"/>
<path d="M345.764 297.432C345.992 297.356 346.144 297.356 346.372 297.28C346.448 297.28 346.448 297.204 346.448 297.128C346.448 297.052 346.372 297.052 346.296 297.052C344.7 297.66 343.408 296.824 343.408 296.824C343.332 296.824 343.256 296.824 343.256 296.824C343.256 296.9 343.256 296.976 343.332 296.976C343.332 297.052 344.396 297.66 345.764 297.432Z" fill="#263238"/>
<path d="M346.524 289.756C343.636 290.288 344.244 292.568 346.904 293.024C349.564 293.556 348.196 291.96 348.196 291.96C348.5 292.644 347.132 292.644 346.752 291.96C346.144 290.896 352.452 292.34 351.236 291.048C350.096 289.756 347.056 289.604 346.524 289.756Z" fill="#263238"/>
<path d="M352.3 309.06C350.78 307.16 353.136 304.424 353.136 304.424L353.592 302.448C353.744 301.612 354.504 301.232 355.264 301.46L356.48 301.916C357.316 302.22 358 303.284 357.924 304.272V304.956C357.848 306.172 357.468 307.236 356.708 308.072L355.644 309.288C355.416 309.592 355.112 309.744 354.808 309.896C354.124 310.276 352.984 309.896 352.3 309.06Z" fill="#CE7A63"/>
<path opacity="0.2" d="M327.296 377.384C326.612 366.972 327.296 351.316 333.68 342.576C332.008 353.672 327.296 377.384 327.296 377.384Z" fill="black"/>
<path d="M321.672 264.22C322.66 268.02 323.8 275.164 321.14 277.9C321.14 277.9 330.792 280.56 337.1 289.224C339.988 280.104 333.224 277.064 333.224 277.064C328.816 276.38 328.74 273.112 329.348 270.072L321.672 264.22Z" fill="#CE7A63"/>
<path opacity="0.2" d="M324.788 266.576L329.424 269.996C329.272 270.756 329.196 271.44 329.196 272.2C327.524 272.048 325.168 270.452 324.864 268.704C324.712 267.792 324.712 266.956 324.788 266.576Z" fill="black"/>
<path d="M320.684 255.784C320.684 262.244 320.532 265.056 323.496 268.476C328.056 273.72 335.96 272.124 337.936 265.74C339.684 259.964 339.456 250.312 333.3 247.5C327.296 244.688 320.684 249.248 320.684 255.784Z" fill="#CE7A63"/>
<path d="M333.224 246.74C336.036 253.96 326.992 250.616 326.612 255.784C326.232 261.028 317.872 258.596 318.176 262.776C311.26 259.356 321.14 239.748 333.224 246.74Z" fill="#263238"/>
<path d="M331.78 246.892C331.704 250.996 337.1 250.844 339.152 253.808C339.912 249.4 333.604 245.676 331.78 246.892Z" fill="#263238"/>
<path d="M329.88 259.888C329.88 260.42 330.108 260.876 330.412 260.876C330.792 260.876 331.096 260.496 331.096 259.964C331.096 259.432 330.868 258.976 330.564 258.976C330.184 258.9 329.88 259.356 329.88 259.888Z" fill="#263238"/>
<path d="M336.416 260.268C336.416 260.8 336.644 261.256 336.948 261.256C337.252 261.256 337.632 260.876 337.632 260.344C337.632 259.812 337.404 259.356 337.1 259.356C336.796 259.28 336.492 259.736 336.416 260.268Z" fill="#263238"/>
<path d="M336.948 259.356L338.24 259.052C338.24 259.052 337.556 260.04 336.948 259.356Z" fill="#263238"/>
<path d="M335.048 260.724C335.048 260.724 335.808 263.004 336.72 264.144C335.96 264.752 334.82 264.448 334.82 264.448L335.048 260.724Z" fill="#BA4D3C"/>
<path d="M318.86 261.712C319.392 262.928 320.456 263.764 321.368 263.992C322.812 264.372 323.572 262.776 323.192 261.18C322.812 259.736 321.672 257.76 320.228 258.14C318.784 258.444 318.176 260.268 318.86 261.712Z" fill="#CE7A63"/>
<path d="M329.348 257.38C329.424 257.38 329.5 257.304 329.576 257.228C330.412 256.088 331.552 256.088 331.552 256.088C331.704 256.088 331.856 255.936 331.856 255.784C331.856 255.632 331.704 255.48 331.552 255.48C331.476 255.48 330.032 255.48 329.044 256.848C328.968 257 328.968 257.152 329.12 257.304C329.196 257.38 329.272 257.38 329.348 257.38Z" fill="#263238"/>
<path d="M339.532 257.988C339.608 257.988 339.684 257.988 339.76 257.988C339.912 257.912 339.988 257.76 339.912 257.608C339.152 256.088 337.784 255.86 337.708 255.86C337.556 255.86 337.404 255.936 337.328 256.164C337.328 256.316 337.404 256.468 337.556 256.544C337.632 256.544 338.696 256.696 339.304 257.912C339.38 257.912 339.456 257.988 339.532 257.988Z" fill="#263238"/>
<path d="M330.412 258.976L331.704 258.672C331.704 258.672 331.02 259.584 330.412 258.976Z" fill="#263238"/>
<path d="M325.624 315.064L331.4 314.836L329.728 321.296C329.728 321.296 325.472 320.46 323.344 318.104L323.268 317.192C323.8 315.9 324.18 315.368 325.624 315.064Z" fill="#CE7A63"/>
<path d="M334.44 318.18L333.376 320.84C333.072 321.6 332.16 322.056 331.324 321.752L329.804 321.22L331.476 314.76L333.756 316.052C334.44 316.508 334.744 317.42 334.44 318.18Z" fill="#CE7A63"/>
<path d="M318.632 286.944C317.416 290.592 316.276 294.24 315.136 297.888C314.604 299.712 314.072 301.536 313.54 303.36C313.084 305.184 312.628 307.008 312.324 308.68C312.324 308.908 312.248 309.06 312.248 309.288C312.248 309.516 312.172 309.668 312.172 309.82C312.172 310.124 312.172 310.276 312.172 310.504C312.248 310.884 312.4 311.188 312.704 311.644C313.388 312.48 314.908 313.24 316.504 313.772C318.1 314.304 319.924 314.684 321.748 314.988C323.572 315.292 325.472 315.444 327.296 315.596H327.372C328.284 315.672 329.044 316.432 328.968 317.42C328.892 318.256 328.284 318.864 327.524 319.016C326.46 319.168 325.472 319.32 324.484 319.396C323.496 319.472 322.432 319.548 321.444 319.548C319.392 319.548 317.34 319.396 315.136 319.016C313.008 318.56 310.728 317.876 308.6 316.052C307.536 315.14 306.624 313.772 306.168 312.176C305.94 311.416 305.864 310.58 305.864 309.972C305.864 309.668 305.864 309.288 305.864 309.06C305.864 308.756 305.94 308.452 305.94 308.224C306.168 306.02 306.548 304.044 307.004 302.068C307.46 300.092 307.992 298.192 308.524 296.292C309.588 292.492 310.728 288.768 312.096 284.968C312.704 283.22 314.68 282.232 316.428 282.916C318.252 283.22 319.24 285.12 318.632 286.944Z" fill="#CE7A63"/>
<path d="M315.364 279.344C311.564 281.092 309.816 283.828 306.928 291.276C307.916 296.216 316.732 299.18 316.732 299.18C316.732 299.18 319.088 293.708 319.848 289.756C320.684 285.804 319.24 277.52 315.364 279.344Z" fill="#263238"/>
<path d="M328.436 454.828C328.436 454.676 328.664 454.524 328.892 454.524L333.756 454.448C334.288 454.448 334.82 454.524 335.2 454.752C336.644 455.74 339.304 456.88 342.572 457.412C343.636 457.564 343.104 459.312 340.672 459.312C336.644 459.388 335.884 459.084 332.464 459.084C329.5 459.084 330.944 459.236 328.588 459.312C328.056 459.312 327.6 458.932 327.676 458.552L328.436 454.828Z" fill="#263238"/>
<path d="M311.564 454.828C311.564 454.676 311.792 454.524 312.02 454.524L315.972 454.448C316.504 454.448 317.036 454.524 317.416 454.752C318.86 455.74 318.632 456.88 321.976 457.412C323.04 457.564 322.508 459.312 320.076 459.312C316.048 459.388 316.276 459.084 314.604 459.084C312.932 459.084 313.996 459.236 311.64 459.312C311.108 459.312 310.652 458.932 310.728 458.552L311.564 454.828Z" fill="#263238"/>
<path d="M334.44 286.108C332.616 285.652 328.588 285.956 326.536 288.312C322.584 286.792 318.86 281.396 318.936 277.976C320.456 276.684 321.9 276.684 321.9 276.684C321.9 276.684 330.792 281.016 334.44 286.108Z" fill="#FAFAFA"/>
<path d="M337.784 285.804C337.784 285.804 338.316 281.32 332.92 276.912C333.452 276.456 335.58 276.988 335.58 276.988C335.58 276.988 341.964 279.724 341.736 286.792C339.76 285.348 337.784 285.804 337.784 285.804Z" fill="#FAFAFA"/>
<path d="M329.728 264.98C329.5 264.752 329.272 264.524 329.044 264.22C328.968 264.144 328.968 264.068 329.044 263.992C329.12 263.916 329.272 263.916 329.272 263.992C330.944 266.044 333.3 265.892 333.3 265.892C333.376 265.892 333.528 265.968 333.528 266.044C333.528 266.12 333.452 266.196 333.376 266.196C333.3 266.272 331.4 266.424 329.728 264.98Z" fill="#263238"/>
<path fill-rule="evenodd" clip-rule="evenodd" d="M238.625 161.25V156.984C238.625 150.642 233.483 145.5 227.141 145.5H223.859C217.517 145.5 212.375 150.642 212.375 156.984V161.25C212.375 170.109 207.125 171.75 207.125 174.375C207.125 177 213.031 179.625 225.5 179.625C237.969 179.625 243.875 177 243.875 174.375C243.875 171.75 238.625 168.141 238.625 161.25Z" stroke="#1B3661" stroke-width="5.25" stroke-linecap="round" stroke-linejoin="round"/>
<path d="M222.875 187.5H228.125" stroke="#1B3661" stroke-width="5.25" stroke-linecap="round" stroke-linejoin="round"/>
</g>
<defs>
<clipPath id="clip0_808_54955">
<rect width="380" height="380" fill="white" transform="translate(35 143)"/>
</clipPath>
</defs>
</svg>
