<svg width="393" height="483" viewBox="0 0 393 483" fill="none" xmlns="http://www.w3.org/2000/svg">
<g clip-path="url(#clip0_37681_37504)">
<path d="M374.501 382.785C385.866 375.36 399.13 366.262 403.534 355.314C413.583 330.251 420.975 310.493 416.216 287.051C413.533 273.823 410.369 262.701 416.216 251.728C425.05 235.155 414.444 212.056 416.216 194.089C418.292 172.928 425.829 159.177 407.73 143.769C389.353 128.133 353.112 112.26 331.495 102.554C301.196 88.9198 303.145 61.7026 283.983 40.9729C254.671 9.21941 206.4 49.9186 168.051 34.5867C129.855 19.3308 85.9375 -15.7677 41.919 3.77089C0.760747 22.0171 -10.1743 66.4162 -7.49114 103.593C-4.40301 146.117 18.9099 188.159 3.16544 231.012C-8.47834 262.715 -48.8013 277.743 -44.8272 313.855C-42.9034 331.239 -29.3865 344.443 -18.6034 358.431C-10.0477 369.531 3.46919 385.649 18.2517 390.438C33.2115 395.279 55.2334 395.076 71.155 395.076C108.921 395.076 146.713 395.101 184.505 395.101C218.398 395.101 252.292 395.101 286.16 395.126C313.396 395.126 344.202 402.856 368.173 386.916C370.198 385.573 372.299 384.204 374.501 382.785Z" fill="#E6EDFF"/>
<path d="M47.7547 324.241C45.8 323.079 44.5996 321.172 42.3375 320.458C39.0021 319.465 35.0592 320.021 31.5851 319.867C23.3133 319.407 16.5385 314.799 10.1602 309.877C13.5984 310.132 16.8824 311.494 20.3866 311.499C23.9919 311.541 27.6972 310.821 31.2511 311.231C34.3206 311.435 38.1514 311.738 40.7169 313.744C43.1576 315.717 45.0146 319.236 46.6028 321.941C46.8074 322.23 46.9999 322.618 47.2045 322.907L47.7547 324.241Z" fill="#9FC3AA"/>
<path d="M35.8737 304.621C38.5013 308.117 40.9826 311.801 42.9607 315.716C45.0306 319.789 46.5793 324.143 48.0269 328.461C51.1025 337.583 53.648 346.915 56.1193 356.231C58.6732 365.828 60.8579 375.566 63.111 385.272L65.3963 384.992C63.1285 375.167 60.6018 365.398 58.182 355.713C55.7947 346.095 53.2438 336.523 50.1123 327.142C48.6972 322.892 47.1602 318.633 45.1229 314.629C38.6735 301.836 28.1232 291.069 18.0977 281.035C17.4922 280.432 16.6451 281.406 17.0839 282.029C22.5982 290.151 29.984 296.787 35.8737 304.621Z" fill="#86A48F"/>
<path d="M40.3097 275.339C40.4651 282.716 39.5965 290.412 40.6206 297.779C41.421 304.11 42.9054 313.065 45.9848 319.261C43.0909 312.607 48.7565 299.102 48.023 292.134C47.6439 288.845 46.7382 285.597 45.7013 282.461C44.4691 278.914 40.0784 275.029 40.2205 271.459C40.2028 272.693 40.3751 274.098 40.3097 275.339Z" fill="#9FC3AA"/>
<path d="M37.6214 305.085C33.8468 303.662 24.2076 301.509 20.3462 301.547C13.721 301.707 6.58786 300.285 1.85157 295.355C0.352978 293.774 -1.05039 292.182 -2.29297 290.521C3.11906 292.686 7.67276 292.973 13.509 293.08C20.4277 293.343 26.4039 295.97 31.5511 300.705L37.6214 305.085Z" fill="#9FC3AA"/>
<path d="M33.1935 298.715C27.9203 293.149 26.5378 286.406 25.5472 281.283C24.7288 277.564 24.5323 273.794 24.345 269.901C24.0265 266.121 23.1961 262.501 22.8776 258.721C23.0047 260.349 24.3016 261.664 24.9738 263.008C25.9541 264.894 26.9197 266.661 28.0312 268.434C30.2569 272.004 31.2469 276.137 32.2936 280.141C32.9709 283.104 33.8767 286.352 33.6732 289.423C33.4837 291.621 32.1486 293.936 32.5508 296.231L33.1935 298.715Z" fill="#9FC3AA"/>
<path d="M23.6838 288.738C18.3508 285.839 12.367 283.938 7.06703 280.914C0.157301 276.782 -4.68724 269.786 -8.31235 262.883C-10.0474 259.374 -12.6541 255.85 -13.6211 252.102C-11.3502 255.449 -7.80954 257.722 -4.64977 260.041C-1.12753 262.558 2.23975 265.191 6.06651 267.235C12.5462 270.816 18.3872 275.296 21.1106 282.334C21.7313 284.046 21.9227 286.198 23.0976 287.504L23.6838 288.738Z" fill="#9FC3AA"/>
<path d="M51.0098 333.438C49.5635 331.102 50.2507 327.247 50.1375 324.747C49.9808 320.512 50.0299 315.986 50.7268 311.816C51.9619 305.139 55.5178 295.712 59.9596 290.357C57.349 298.823 60.4154 308.066 59.6013 316.602C59.2339 321.094 58.7488 325.021 55.5552 328.337C54.1893 329.809 51.0098 333.438 51.0098 333.438Z" fill="#9FC3AA"/>
<path d="M51.3575 335.498C43.1531 326.521 29.269 325.613 18.1211 322.388C19.6392 324.522 22.2566 325.965 24.0997 327.794C26.4506 330.019 28.7431 331.769 31.6345 333.082C34.7042 334.47 38.3699 335.398 41.644 335.891C44.3384 336.189 51.3575 335.498 51.3575 335.498Z" fill="#9FC3AA"/>
<path d="M55.6427 350.539C55.2611 344.47 55.0761 339.611 57.5542 334.4C60.9415 327.145 67.3057 321.506 72.6905 316.157C71.0224 319.697 71.615 324.531 70.2287 328.399C68.9444 331.916 67.63 335.582 65.8107 338.875C63.7458 342.923 55.6427 350.539 55.6427 350.539Z" fill="#9FC3AA"/>
<path d="M56.6907 354.978C51.8911 351.7 44.7618 352.477 39.3706 350.286C34.562 348.313 28.6728 345.41 25.2464 341.31C28.2193 339.544 35.6766 341.047 38.8662 342.033C43.5571 343.44 51.3081 346.55 53.8202 351.076L56.6907 354.978Z" fill="#9FC3AA"/>
<path d="M58.316 360.12C57.4873 355.726 60.7744 348.047 63.3657 345.337C68.4591 339.975 73.9917 335.043 79.4971 330.283C78.412 331.286 78.5586 333.468 78.2903 335.023C78.0021 337.403 77.5595 339.705 76.9595 341.906C75.6751 345.423 74.1586 349.017 72.1435 352.092C70.6626 354.4 68.9792 356.83 66.6675 358.274C65.6843 358.926 64.3144 359.578 63.214 359.471C62.1787 359.501 58.316 360.12 58.316 360.12Z" fill="#9FC3AA"/>
<path d="M43.4043 364.825C37.6357 362.511 33.1774 358.272 27.5554 355.578C39.0842 353.632 50.7636 357.252 59.2827 365.247C59.2827 365.247 48.7687 366.995 43.4043 364.825Z" fill="#9FC3AA"/>
<path d="M61.5243 373.31C60.5683 366.103 66.7776 360.581 70.8457 357.302C73.2803 355.481 75.8802 354.22 78.1846 352.124C80.1941 350.186 81.6131 347.571 83.5746 345.832C81.886 349.205 81.1988 353.06 79.3587 356.379C77.6831 359.268 75.4693 362.101 73.4467 364.524C70.377 368.26 61.5243 373.31 61.5243 373.31Z" fill="#9FC3AA"/>
<path d="M62.7182 378.892C59.3332 377.495 55.7357 377.912 52.3114 376.785C50.0585 375.949 41.5989 371.79 41.5989 371.79C41.5989 371.79 48.8437 369.983 51.767 370.374C56.8314 371.082 62.7182 378.892 62.7182 378.892Z" fill="#9FC3AA"/>
<path d="M374.379 325.184C375.794 323.864 376.465 322.041 378.24 321.033C380.854 319.594 384.26 319.354 387.138 318.61C393.997 316.739 398.866 311.653 403.327 306.375C400.473 307.215 397.978 308.942 395.052 309.566C392.03 310.237 388.793 310.309 385.891 311.293C383.349 312.013 380.207 312.972 378.408 315.108C376.705 317.195 375.794 320.481 374.931 323.048C374.811 323.312 374.715 323.696 374.595 323.96L374.379 325.184Z" fill="#9FC3AA"/>
<path d="M372.124 391.085C372.604 378.73 372.46 366.327 373.059 353.972C373.467 345.575 373.947 337.179 374.882 328.806C375.314 324.943 375.841 321.057 376.825 317.291C379.967 305.199 387.929 295.531 392.558 284.184C392.821 283.512 391.79 283.152 391.43 283.704C384.907 293.948 378.024 304.695 374.858 316.547C373.875 320.265 373.371 324.104 372.915 327.918C371.932 336.267 371.548 344.664 371.261 353.06C370.829 365.631 370.205 378.418 370.469 391.061H372.124V391.085Z" fill="#86A48F"/>
<path d="M371.834 282.816C373.009 289.03 375.144 295.339 375.6 301.697C376.055 307.167 376.439 314.94 374.952 320.697C376.175 314.604 369.004 304.264 368.381 298.314C368.117 295.483 368.285 292.605 368.597 289.774C368.98 286.583 371.978 282.529 371.211 279.554C371.451 280.585 371.546 281.785 371.834 282.816Z" fill="#9FC3AA"/>
<path d="M379.438 307.287C382.339 305.415 390.038 301.865 393.3 301.217C398.888 300.161 404.596 297.69 407.714 292.7C408.697 291.093 409.584 289.534 410.328 287.902C406.179 290.685 402.413 291.765 397.545 292.892C391.789 294.356 387.256 297.618 383.778 302.537L379.438 307.287Z" fill="#9FC3AA"/>
<path d="M381.981 301.145C385.411 295.532 385.363 289.63 385.267 285.144C385.291 281.857 384.763 278.666 384.235 275.38C383.828 272.141 383.876 268.974 383.468 265.735C383.66 267.127 382.796 268.47 382.461 269.718C381.981 271.469 381.477 273.124 380.878 274.828C379.655 278.21 379.559 281.857 379.415 285.408C379.367 288.023 379.199 290.901 379.918 293.444C380.494 295.268 382.005 296.947 382.077 298.962L381.981 301.145Z" fill="#9FC3AA"/>
<path d="M388.191 291.069C392.149 287.663 396.825 285.024 400.735 281.521C405.771 276.795 408.601 270.078 410.4 263.624C411.239 260.361 412.798 256.955 412.918 253.62C411.623 256.835 409.057 259.378 406.826 261.897C404.332 264.632 401.982 267.439 399.128 269.862C394.331 274.036 390.23 278.834 389.199 285.24C388.983 286.799 389.223 288.646 388.455 289.942L388.191 291.069Z" fill="#9FC3AA"/>
<path d="M373.296 333.485C374.088 331.278 372.841 328.159 372.457 326.024C371.809 322.425 370.97 318.659 369.651 315.276C367.42 309.902 362.72 302.633 358.043 298.938C361.736 305.584 360.849 313.861 363.055 320.89C364.183 324.608 365.286 327.799 368.548 330.006C369.963 331.014 373.296 333.485 373.296 333.485Z" fill="#9FC3AA"/>
<path d="M373.371 335.284C378.647 326.287 390.135 323.024 398.913 318.322C398.026 320.385 396.083 322.065 394.86 323.936C393.277 326.215 391.67 328.11 389.488 329.742C387.161 331.445 384.259 332.908 381.597 333.892C379.367 334.612 373.371 335.284 373.371 335.284Z" fill="#9FC3AA"/>
<path d="M372.482 348.671C371.715 343.513 370.995 339.41 367.973 335.476C363.824 330.006 357.493 326.407 351.977 322.881C354.015 325.544 354.399 329.718 356.246 332.717C357.948 335.428 359.723 338.283 361.834 340.706C364.304 343.729 372.482 348.671 372.482 348.671Z" fill="#9FC3AA"/>
<path d="M372.387 352.581C375.816 348.982 381.956 348.335 386.081 345.528C389.751 343.009 394.164 339.53 396.322 335.476C393.516 334.516 387.52 337.107 385.026 338.523C381.356 340.538 375.409 344.544 374.09 348.79L372.387 352.581Z" fill="#9FC3AA"/>
<path d="M371.956 357.187C371.86 353.348 367.735 347.495 365.072 345.695C359.844 342.121 354.304 338.954 348.836 335.955C349.915 336.603 350.179 338.45 350.707 339.722C351.354 341.665 352.146 343.512 353.057 345.263C354.76 347.974 356.678 350.733 358.933 352.94C360.588 354.62 362.434 356.347 364.617 357.139C365.552 357.499 366.823 357.81 367.735 357.523C368.598 357.379 371.956 357.187 371.956 357.187Z" fill="#9FC3AA"/>
<path d="M385.313 358.458C389.726 355.483 392.724 351.141 396.969 347.854C386.944 348.31 377.806 353.42 372.074 361.673C372.05 361.673 381.188 361.241 385.313 358.458Z" fill="#9FC3AA"/>
<path d="M371.619 368.846C371.115 362.609 364.928 359.106 360.947 357.091C358.572 355.988 356.174 355.412 353.848 354.068C351.809 352.797 350.154 350.878 348.188 349.75C350.202 352.293 351.473 355.388 353.632 357.835C355.55 359.97 357.925 361.937 360.035 363.617C363.273 366.184 371.619 368.846 371.619 368.846Z" fill="#9FC3AA"/>
<path d="M371.617 373.741C374.207 371.965 377.301 371.653 379.963 370.094C381.714 368.991 388.046 364.001 388.046 364.001C388.046 364.001 381.642 363.785 379.268 364.648C375.167 366.112 371.617 373.741 371.617 373.741Z" fill="#9FC3AA"/>
<path d="M276.859 299.106C275.492 297.019 275.204 294.5 273.285 292.7C270.431 290.085 266.258 288.718 262.853 286.919C254.842 282.432 250.285 274.54 246.328 266.551C249.638 268.47 252.252 271.421 255.73 273.124C259.303 274.899 263.356 276.003 266.69 278.114C269.664 279.818 273.309 281.977 274.916 285.215C276.403 288.382 276.547 292.772 276.811 296.251C276.883 296.635 276.883 297.115 276.955 297.499L276.859 299.106Z" fill="#9FC3AA"/>
<path d="M276.237 288.646C276.284 293.708 275.709 298.794 275.061 303.808C273.67 314.459 271.656 325.063 269.593 335.595C266.379 352.052 262.086 368.342 258.801 384.776H260.863C265.228 368.798 268.442 352.34 271.872 336.219C274.15 325.471 276.285 314.699 277.723 303.808C278.395 298.794 278.947 293.732 278.923 288.646C278.827 272.692 273.454 256.69 268.322 241.768C267.986 240.785 266.643 241.192 266.787 242.2C268.442 253.596 272.903 264.415 274.917 275.811C275.685 280.033 276.189 284.351 276.237 288.646Z" fill="#86A48F"/>
<path d="M293.19 246.71C289.785 254.147 285.156 261.392 282.614 269.261C280.335 275.979 277.457 285.623 277.553 293.3C277.913 285.263 290.096 274.515 292.758 267.246C293.958 263.767 294.653 260.097 295.133 256.474C295.636 252.348 293.118 246.326 295.013 242.848C294.341 244.047 293.838 245.511 293.19 246.71Z" fill="#9FC3AA"/>
<path d="M276.069 275.068C272.999 271.805 264.437 264.992 260.552 263.168C253.885 260.097 247.457 255.227 245.107 248.006C244.363 245.679 243.764 243.448 243.332 241.169C247.673 245.943 252.086 248.462 257.842 251.389C264.629 255.011 269.306 260.529 272.136 267.75L276.069 275.068Z" fill="#9FC3AA"/>
<path d="M274.748 266.574C272.181 258.465 274.076 251.076 275.587 245.486C276.57 241.36 278.201 237.522 279.928 233.563C281.439 229.629 282.35 225.622 283.885 221.712C283.214 223.415 283.885 225.358 283.909 227.014C283.957 229.365 284.077 231.596 284.317 233.899C284.797 238.529 283.813 243.135 282.878 247.646C282.134 250.932 281.439 254.603 279.736 257.578C278.465 259.689 276.019 261.32 275.323 263.815L274.748 266.574Z" fill="#9FC3AA"/>
<path d="M270.095 252.012C266.186 246.518 261.149 241.744 257.312 236.131C252.443 228.645 250.98 219.337 250.717 210.677C250.693 206.334 249.781 201.56 250.669 197.338C251.316 201.776 253.739 205.759 255.753 209.621C258.032 213.843 260.118 218.09 262.924 222C267.649 228.717 271.318 236.035 270.623 244.383C270.407 246.398 269.543 248.63 270.095 250.501V252.012Z" fill="#9FC3AA"/>
<path d="M275.636 309.854C275.324 306.831 277.866 303.304 278.993 300.761C280.912 296.443 283.142 291.981 285.852 288.166C290.313 282.097 298.444 274.444 305.471 271.253C298.779 278.426 297.34 289.126 292.4 297.259C289.858 301.577 287.459 305.247 282.663 306.999C280.576 307.766 275.636 309.854 275.636 309.854Z" fill="#9FC3AA"/>
<path d="M275.012 312.084C271.175 299.153 257.792 291.5 248.223 282.888C248.702 285.767 250.621 288.477 251.58 291.188C252.851 294.547 254.29 297.402 256.521 300.113C258.919 302.992 262.109 305.703 265.131 307.766C267.673 309.373 275.012 312.084 275.012 312.084Z" fill="#9FC3AA"/>
<path d="M271.965 329.141C274.531 322.928 276.714 317.962 281.702 313.979C288.609 308.39 297.675 305.847 305.661 303.136C302.28 305.847 300.529 310.957 297.267 314.147C294.293 317.026 291.175 320.049 287.794 322.448C283.741 325.471 271.965 329.141 271.965 329.141Z" fill="#9FC3AA"/>
<path d="M270.863 334.108C267.674 328.518 260.167 325.807 255.874 321.033C252.037 316.715 247.576 310.981 246.137 305.247C249.974 304.935 256.665 310.045 259.375 312.588C263.357 316.259 269.592 323.12 269.904 328.854L270.863 334.108Z" fill="#9FC3AA"/>
<path d="M270 340.009C271.295 335.211 278.298 329.165 282.207 327.726C289.882 324.847 297.797 322.616 305.615 320.553C304.056 321.033 303.145 323.264 302.113 324.703C300.674 326.934 299.116 329.021 297.437 330.917C294.439 333.795 291.201 336.65 287.676 338.738C285.085 340.321 282.207 341.928 279.234 342.24C277.938 342.408 276.236 342.408 275.204 341.76C274.125 341.281 270 340.009 270 340.009Z" fill="#9FC3AA"/>
<path d="M252.828 337.443C248.199 332.333 245.801 325.951 241.508 320.529C253.955 324.2 263.836 333.46 268.465 345.575C268.465 345.599 257.145 342.241 252.828 337.443Z" fill="#9FC3AA"/>
<path d="M266.785 354.74C269.351 347.087 278.201 344.592 283.837 343.296C287.171 342.649 290.361 342.649 293.67 341.689C296.62 340.729 299.282 338.81 302.112 338.019C298.803 340.562 296.236 344.088 292.783 346.463C289.713 348.526 286.14 350.302 282.95 351.741C278.081 353.996 266.785 354.74 266.785 354.74Z" fill="#9FC3AA"/>
<path d="M265.275 360.881C262.565 357.858 258.776 356.514 255.946 353.732C254.099 351.788 247.695 343.56 247.695 343.56C247.695 343.56 255.802 345.263 258.512 347.086C263.188 350.229 265.275 360.881 265.275 360.881Z" fill="#9FC3AA"/>
<path d="M103.774 379.474C103.102 382.209 102.311 385.04 101.52 387.919H102.191C103.51 383.145 104.949 378.467 105.932 374.028C107.515 366.951 109.026 359.682 108.475 352.389C107.923 345.048 105.621 337.515 103.342 330.558C103.246 330.27 102.839 330.39 102.887 330.678C104.134 338.498 107.084 345.84 107.683 353.78C108.307 362.273 105.741 371.294 103.774 379.474Z" fill="#86A48F"/>
<path d="M104.252 335.931C101.974 327.031 98.3765 318.298 98.9521 308.822C103.293 316.595 104.252 335.931 104.252 335.931Z" fill="#97B9A1"/>
<path d="M105.14 338.018C102.861 331.373 105.14 318.106 109.121 312.229H109.313C109.505 319.45 105.14 338.018 105.14 338.018Z" fill="#97B9A1"/>
<path d="M106.652 345.288C108.643 338.57 112.025 332.381 120.179 326.575L106.652 345.288Z" fill="#97B9A1"/>
<path d="M104.492 338.21C101.83 335.547 100.127 331.949 98.0402 328.734C96.5293 326.455 93.8672 320.577 93.8672 320.577C93.8672 320.577 103.005 329.526 105.043 339.146L104.492 338.21Z" fill="#97B9A1"/>
<path d="M91.4219 329.886C97.2978 330.845 103.941 339.17 106.771 344.112C106.771 344.088 94.6596 334.42 91.4219 329.886Z" fill="#97B9A1"/>
<path d="M106.147 343.009C104.444 335.428 109.744 326.144 115.812 321.777C113.15 327.823 106.147 343.009 106.147 343.009Z" fill="#97B9A1"/>
<path d="M95.7617 337.347C102.213 340.202 105.043 346.055 107.897 352.125C107.897 352.125 96.1454 341.137 95.7617 337.347Z" fill="#97B9A1"/>
<path d="M108.212 351.573C107.612 349.558 109.051 346.847 110.058 345.168C112.337 341.641 115.191 338.091 118.74 335.644C116.99 341.137 108.212 351.573 108.212 351.573Z" fill="#97B9A1"/>
<path d="M97.2734 345.527C97.2734 345.527 101.566 347.974 102.742 349.246C104.756 351.357 107.203 354.044 107.97 356.995C107.97 356.971 100.199 351.885 97.2734 345.527Z" fill="#97B9A1"/>
<path d="M108.188 353.828C111.641 349.102 117.061 343.752 122.961 342.145C121.69 343.248 121.114 344.831 120.179 346.199C118.908 347.806 117.277 349.39 115.574 350.229C113.224 351.381 108.188 353.828 108.188 353.828Z" fill="#97B9A1"/>
<path d="M107.875 360.858C108.547 357.667 112.168 354.548 114.518 352.605C117.204 350.494 120.082 348.551 123.272 347.375C121.665 349.654 119.651 351.669 117.708 353.685C115.693 355.796 107.875 360.858 107.875 360.858Z" fill="#97B9A1"/>
<path d="M102.908 358.914C101.062 356.467 99.2867 354.02 98.0156 351.237C99.9583 351.333 102.141 353.924 103.412 355.196C105.354 357.139 106.362 358.938 107.873 361.145C107.873 361.145 104.011 360.354 102.908 358.914Z" fill="#97B9A1"/>
<path d="M106.77 365.559C109.552 365.391 112.238 364.624 114.612 363.112C117.226 361.505 122.167 353.708 122.167 353.708C122.167 353.708 116.123 357.043 111.998 360.929L106.77 365.559Z" fill="#97B9A1"/>
<path d="M106.772 365.944C104.59 365.776 102.144 365.056 100.801 363.521C99.8652 362.345 99.0258 361.17 98.2823 359.898C97.6108 358.891 96.0039 356.18 96.0039 356.18C96.0039 356.18 100.057 357.691 101.4 359.202C103.151 361.242 106.772 365.944 106.772 365.944Z" fill="#97B9A1"/>
<path d="M105.789 371.629C110.754 370.694 115.214 367.503 118.596 363.784C116.078 364.216 112.984 365.583 110.514 367.311C108.019 369.086 105.789 371.629 105.789 371.629Z" fill="#97B9A1"/>
<path d="M103.916 371.678C102.07 370.238 100.799 368.655 99.4555 366.784C98.5201 365.512 96.4336 362.657 96.4336 362.657C96.4336 362.657 105.283 368.967 105.787 372.757L103.916 371.678Z" fill="#97B9A1"/>
<path d="M104.516 376.044C107.202 376.044 109.648 375.876 112.19 374.7C114.637 373.597 117.994 370.814 118.762 368.127C115.452 368.967 104.516 376.044 104.516 376.044Z" fill="#97B9A1"/>
<path d="M104.947 377.267C102.836 377.267 94.418 366.903 94.418 366.903C94.418 366.903 97.272 367.839 98.4711 368.847C100.414 370.598 104.947 377.267 104.947 377.267Z" fill="#97B9A1"/>
<path d="M102.621 383.673C105.739 382.905 108.521 382.497 111.207 380.554C112.814 379.451 114.325 378.203 115.836 376.836C117.011 375.732 119.793 374.053 119.793 374.053C119.793 374.053 115.404 375.396 113.821 376.164C110.464 377.603 107.514 379.619 104.732 381.97L102.621 383.673Z" fill="#97B9A1"/>
<path d="M104.133 380.098C101.855 380.266 99.4323 378.322 97.7535 377.051C95.8109 375.611 92.6211 371.245 92.6211 371.245C92.6211 371.245 96.3145 372.589 97.8494 373.86C99.5282 375.3 104.133 380.098 104.133 380.098Z" fill="#97B9A1"/>
<path d="M335.476 376.907C336.507 381.489 337.371 386.288 337.587 391.086H338.642C338.45 379.402 334.061 367.359 331.399 356.467C328.809 345.936 325.979 334.684 326.387 323.768C326.77 313.165 331.063 303.376 332.694 293.013C332.742 292.629 332.238 292.485 332.118 292.845C329.264 301.529 326.77 310.598 325.571 319.666C324.252 329.718 326.554 339.89 328.665 349.654C330.631 358.842 333.438 367.791 335.476 376.907Z" fill="#86A48F"/>
<path d="M330.895 299.922C333.868 288.239 338.593 276.795 337.85 264.368C332.142 274.564 330.895 299.922 330.895 299.922Z" fill="#AECCC1"/>
<path d="M329.719 302.657C332.693 293.949 329.719 276.555 324.491 268.854H324.251C323.987 278.283 329.719 302.657 329.719 302.657Z" fill="#AECCC1"/>
<path d="M327.755 312.181C325.141 303.353 320.728 295.244 310.008 287.663L327.755 312.181Z" fill="#AECCC1"/>
<path d="M330.56 302.897C334.037 299.418 336.268 294.692 339.002 290.47C340.993 287.495 344.47 279.794 344.47 279.794C344.47 279.794 332.503 291.501 329.816 304.144L330.56 302.897Z" fill="#AECCC1"/>
<path d="M347.684 291.957C339.986 293.205 331.28 304.144 327.562 310.598C327.562 310.598 343.463 297.931 347.684 291.957Z" fill="#AECCC1"/>
<path d="M328.401 309.158C330.632 299.226 323.677 287.039 315.738 281.329C319.216 289.27 328.401 309.158 328.401 309.158Z" fill="#AECCC1"/>
<path d="M341.998 301.745C333.556 305.464 329.815 313.189 326.098 321.129C326.098 321.129 341.519 306.711 341.998 301.745Z" fill="#AECCC1"/>
<path d="M325.693 320.41C326.46 317.747 324.589 314.22 323.27 312.013C320.296 307.383 316.531 302.729 311.902 299.538C314.205 306.711 325.693 320.41 325.693 320.41Z" fill="#AECCC1"/>
<path d="M340.034 312.469C340.034 312.469 334.398 315.683 332.863 317.339C330.2 320.098 327.011 323.648 326.027 327.511C326.003 327.487 336.196 320.817 340.034 312.469Z" fill="#AECCC1"/>
<path d="M325.714 323.361C321.182 317.172 314.083 310.142 306.336 308.031C307.991 309.471 308.758 311.558 309.981 313.333C311.636 315.42 313.771 317.532 316.025 318.611C319.119 320.146 325.714 323.361 325.714 323.361Z" fill="#AECCC1"/>
<path d="M326.147 332.574C325.26 328.375 320.511 324.297 317.418 321.754C313.892 318.995 310.127 316.452 305.93 314.893C308.016 317.867 310.678 320.53 313.221 323.169C315.883 325.952 326.147 332.574 326.147 332.574Z" fill="#AECCC1"/>
<path d="M332.648 330.031C335.071 326.816 337.397 323.625 339.052 319.979C336.51 320.098 333.632 323.505 331.977 325.16C329.435 327.703 328.116 330.079 326.125 332.957C326.125 332.957 331.209 331.902 332.648 330.031Z" fill="#AECCC1"/>
<path d="M327.564 338.763C323.919 338.547 320.393 337.539 317.3 335.548C313.87 333.461 307.395 323.217 307.395 323.217C307.395 323.217 315.309 327.583 320.729 332.693L327.564 338.763Z" fill="#AECCC1"/>
<path d="M327.562 339.243C330.44 339.027 333.63 338.067 335.405 336.076C336.628 334.541 337.731 332.981 338.715 331.326C339.602 330.007 341.689 326.456 341.689 326.456C341.689 326.456 336.388 328.447 334.614 330.438C332.311 333.101 327.562 339.243 327.562 339.243Z" fill="#AECCC1"/>
<path d="M328.882 346.703C322.359 345.48 316.507 341.282 312.094 336.436C315.403 336.987 319.457 338.787 322.694 341.066C325.932 343.345 328.882 346.703 328.882 346.703Z" fill="#AECCC1"/>
<path d="M331.305 346.776C333.727 344.904 335.382 342.793 337.157 340.37C338.38 338.715 341.138 334.948 341.138 334.948C341.138 334.948 329.53 343.225 328.883 348.191L331.305 346.776Z" fill="#AECCC1"/>
<path d="M330.538 352.486C327.012 352.486 323.799 352.27 320.489 350.71C317.299 349.271 312.862 345.624 311.879 342.098C316.196 343.201 330.538 352.486 330.538 352.486Z" fill="#AECCC1"/>
<path d="M329.961 354.092C332.719 354.092 343.775 340.514 343.775 340.514C343.775 340.514 340.01 341.737 338.475 343.057C335.933 345.36 329.961 354.092 329.961 354.092Z" fill="#AECCC1"/>
<path d="M333.032 362.49C328.955 361.506 325.309 360.93 321.76 358.411C319.673 356.972 317.683 355.316 315.692 353.541C314.157 352.102 310.512 349.895 310.512 349.895C310.512 349.895 316.244 351.67 318.354 352.653C322.767 354.525 326.628 357.188 330.274 360.282L333.032 362.49Z" fill="#AECCC1"/>
<path d="M331.039 357.812C334.013 358.028 337.203 355.485 339.409 353.829C341.951 351.958 346.148 346.2 346.148 346.2C346.148 346.2 341.28 347.975 339.313 349.631C337.083 351.502 331.039 357.812 331.039 357.812Z" fill="#AECCC1"/>
<path d="M154.784 356.947C156.655 365.608 158.19 374.844 158.262 383.984H159.797C159.893 376.835 159.029 369.638 157.83 362.609C155.144 347.111 150.3 332.069 146.63 316.787C142.313 298.818 137.517 279.674 138.38 261.081C139.243 242.464 146.75 225.311 149.508 207.078C149.604 206.407 148.693 206.119 148.477 206.791C143.153 222.936 138.356 239.993 136.605 256.955C134.782 274.732 139.171 292.964 143.033 310.214C146.558 325.879 151.427 341.233 154.784 356.947Z" fill="#86A48F"/>
<path d="M146.344 219.242C151.62 198.586 159.966 178.386 158.647 156.435C148.55 174.427 146.344 219.242 146.344 219.242Z" fill="#AECCC1"/>
<path d="M144.257 224.063C149.533 208.686 144.257 177.93 135.023 164.327H134.592C134.16 181.001 144.257 224.063 144.257 224.063Z" fill="#AECCC1"/>
<path d="M140.78 240.906C136.175 225.312 128.333 210.965 109.41 197.555L140.78 240.906Z" fill="#AECCC1"/>
<path d="M145.768 224.495C151.907 218.354 155.865 210.005 160.709 202.52C164.211 197.242 170.374 183.64 170.374 183.64C170.374 183.64 149.221 204.343 144.473 226.703L145.768 224.495Z" fill="#AECCC1"/>
<path d="M176.036 205.184C162.413 207.391 147.04 226.703 140.469 238.123C140.469 238.123 168.577 215.715 176.036 205.184Z" fill="#AECCC1"/>
<path d="M141.955 235.579C145.912 218.018 133.609 196.475 119.555 186.375C125.694 200.433 141.955 235.579 141.955 235.579Z" fill="#AECCC1"/>
<path d="M165.987 222.48C151.046 229.078 144.474 242.68 137.879 256.739C137.879 256.739 165.124 231.261 165.987 222.48Z" fill="#AECCC1"/>
<path d="M137.133 255.467C138.5 250.789 135.19 244.528 132.84 240.617C127.564 232.412 120.944 224.208 112.742 218.546C116.843 231.261 137.133 255.467 137.133 255.467Z" fill="#AECCC1"/>
<path d="M162.51 241.409C162.51 241.409 152.557 247.071 149.822 249.998C145.146 254.868 139.486 261.129 137.711 267.967C137.711 267.967 155.722 256.187 162.51 241.409Z" fill="#AECCC1"/>
<path d="M137.204 260.698C129.194 249.758 116.627 237.331 102.98 233.612C105.906 236.155 107.273 239.85 109.432 242.993C112.358 246.711 116.147 250.406 120.104 252.349C125.549 254.988 137.204 260.698 137.204 260.698Z" fill="#AECCC1"/>
<path d="M137.949 276.963C136.39 269.55 127.996 262.329 122.528 257.818C116.292 252.948 109.649 248.438 102.238 245.703C105.956 250.981 110.632 255.659 115.117 260.337C119.794 265.255 137.949 276.963 137.949 276.963Z" fill="#AECCC1"/>
<path d="M149.438 272.453C153.731 266.791 157.832 261.129 160.758 254.676C156.273 254.868 151.189 260.913 148.263 263.864C143.778 268.35 141.427 272.549 137.926 277.635C137.902 277.635 146.896 275.787 149.438 272.453Z" fill="#AECCC1"/>
<path d="M140.468 287.878C134.016 287.494 127.781 285.719 122.312 282.217C116.269 278.498 104.805 260.409 104.805 260.409C104.805 260.409 118.787 268.11 128.356 277.131L140.468 287.878Z" fill="#AECCC1"/>
<path d="M140.469 288.742C145.553 288.358 151.213 286.655 154.331 283.152C156.49 280.417 158.432 277.682 160.183 274.756C161.742 272.405 165.459 266.167 165.459 266.167C165.459 266.167 156.082 269.67 152.964 273.196C148.863 277.874 140.469 288.742 140.469 288.742Z" fill="#AECCC1"/>
<path d="M142.792 301.937C131.28 299.778 120.92 292.365 113.125 283.776C118.977 284.76 126.148 287.951 131.856 291.981C137.588 296.012 142.792 301.937 142.792 301.937Z" fill="#AECCC1"/>
<path d="M147.086 302.033C151.379 298.723 154.305 295.004 157.423 290.71C159.557 287.783 164.45 281.138 164.45 281.138C164.45 281.138 143.944 295.772 142.793 304.576L147.086 302.033Z" fill="#AECCC1"/>
<path d="M145.72 312.157C139.484 312.157 133.824 311.774 127.948 309.039C122.288 306.496 114.47 300.066 112.719 293.805C120.345 295.748 145.72 312.157 145.72 312.157Z" fill="#AECCC1"/>
<path d="M144.688 314.988C149.556 314.988 169.078 290.974 169.078 290.974C169.078 290.974 162.435 293.109 159.701 295.46C155.24 299.562 144.688 314.988 144.688 314.988Z" fill="#AECCC1"/>
<path d="M150.109 329.814C142.89 328.063 136.439 327.079 130.203 322.593C126.486 320.05 122.984 317.123 119.458 314.004C116.724 311.461 110.297 307.551 110.297 307.551C110.297 307.551 120.442 310.67 124.159 312.421C131.978 315.732 138.789 320.434 145.24 325.904L150.109 329.814Z" fill="#AECCC1"/>
<path d="M146.582 321.561C151.858 321.945 157.494 317.434 161.38 314.507C165.865 311.197 173.275 301.049 173.275 301.049C173.275 301.049 164.689 304.168 161.164 307.094C157.303 310.405 146.582 321.561 146.582 321.561Z" fill="#AECCC1"/>
<path d="M236.164 354.117C236.596 364.265 234.366 374.652 232.015 384.776H233.262C235.709 375.156 237.508 365.176 237.555 355.508C237.603 348.983 236.356 342.505 234.869 336.196C233.286 329.478 231.704 322.425 229.257 315.996C229.113 315.636 228.49 315.66 228.538 316.092C229.185 322.113 231.32 328.039 232.831 333.893C234.582 340.514 235.877 347.231 236.164 354.117Z" fill="#8AA893"/>
<path d="M229.591 317.027C228.776 314.556 228.176 312.157 227.673 309.614C227.625 309.422 227.337 309.47 227.361 309.662C227.385 312.253 227.96 314.94 229.184 317.219C229.279 317.435 229.663 317.291 229.591 317.027Z" fill="#9FC3AA"/>
<path d="M230.934 321.346C230.766 317.291 230.166 313.669 231.629 309.71C231.701 309.519 231.413 309.423 231.318 309.591C229.087 312.733 229.495 317.867 230.43 321.418C230.502 321.682 230.958 321.634 230.934 321.346Z" fill="#9FC3AA"/>
<path d="M231.702 323.601C232.038 323.505 232.469 319.019 232.565 318.515C232.925 316.716 233.429 314.965 233.764 313.141C233.788 312.973 233.573 312.853 233.477 313.021C232.134 315.037 231.918 318.179 231.558 320.506C231.51 320.794 230.958 324.201 231.798 323.865C231.942 323.793 231.894 323.553 231.702 323.601Z" fill="#9FC3AA"/>
<path d="M231.104 326.072C230.001 320.986 226.02 315.132 221.727 312.181C221.607 312.085 221.463 312.277 221.559 312.397C225.684 316.476 228.226 321.082 230.816 326.192C230.912 326.36 231.152 326.24 231.104 326.072Z" fill="#9FC3AA"/>
<path d="M229.902 320.338C228.775 318.059 227.48 315.971 225.705 314.124C225.657 314.076 225.585 314.148 225.633 314.196C227.264 316.115 228.415 318.323 229.614 320.506C229.71 320.722 229.998 320.53 229.902 320.338Z" fill="#9FC3AA"/>
<path d="M232.348 328.447C232.204 326 232.708 323.625 232.708 321.202C232.708 321.034 232.444 321.01 232.42 321.154C231.964 323.481 231.461 326.144 231.94 328.495C231.988 328.735 232.348 328.687 232.348 328.447Z" fill="#9FC3AA"/>
<path d="M233.309 330.414C233.765 326.599 234.076 322.929 237.338 320.386C237.458 320.29 237.386 320.074 237.218 320.122C233.669 321.562 232.59 326.983 232.925 330.39C232.949 330.678 233.285 330.654 233.309 330.414Z" fill="#9FC3AA"/>
<path d="M231.918 328.519C230.239 327.08 228.728 325.64 226.905 324.393C225.011 323.097 222.564 321.034 220.262 320.698C220.118 320.674 219.974 320.89 220.142 320.962C222.42 322.042 224.507 323.457 226.593 324.896C227.769 325.688 228.896 326.576 229.927 327.559C230.479 328.087 230.982 328.615 231.726 328.855C231.918 328.927 232.086 328.663 231.918 328.519Z" fill="#9FC3AA"/>
<path d="M223.786 320.41C226.88 320.962 228.631 324.032 230.837 325.952C230.981 326.072 231.149 325.904 231.029 325.76C229.35 323.577 226.856 320.266 223.81 320.17C223.69 320.17 223.666 320.386 223.786 320.41Z" fill="#9FC3AA"/>
<path d="M231.917 328.446C232.204 325.184 234.051 322.833 235.466 320.026C235.562 319.834 235.322 319.666 235.178 319.81C233.164 321.801 231.221 325.544 231.509 328.446C231.533 328.71 231.893 328.71 231.917 328.446Z" fill="#9FC3AA"/>
<path d="M223.451 328.375C227.384 329.143 229.879 332.406 232.828 334.829C232.972 334.949 233.14 334.781 233.02 334.637C230.454 331.638 227.576 328.759 223.523 328.135C223.355 328.087 223.283 328.327 223.451 328.375Z" fill="#9FC3AA"/>
<path d="M233.19 332.477C231.943 331.23 231.032 330.054 229.497 329.07C228.034 328.111 226.259 327.199 224.46 327.223C224.34 327.223 224.293 327.415 224.436 327.439C226.235 327.799 227.77 328.423 229.281 329.478C230.6 330.39 231.535 332.141 232.95 332.789C233.142 332.861 233.358 332.645 233.19 332.477Z" fill="#9FC3AA"/>
<path d="M234.1 336.412C231.918 336.436 229.975 336.652 228.129 337.924C228.009 337.996 228.105 338.187 228.248 338.115C230.143 337.252 232.062 337.06 234.1 336.94C234.46 336.94 234.46 336.412 234.1 336.412Z" fill="#9FC3AA"/>
<path d="M233.142 336.028C229.64 334.013 224.34 334.853 220.838 336.388C220.742 336.436 220.814 336.556 220.91 336.532C225.035 335.284 228.873 335.452 233.022 336.34C233.214 336.412 233.334 336.148 233.142 336.028Z" fill="#9FC3AA"/>
<path d="M234.219 334.804C230.022 333.893 226.112 333.101 221.819 334.229C221.675 334.277 221.699 334.493 221.843 334.493C223.786 334.301 225.729 334.157 227.671 334.229C229.878 334.301 231.988 335.212 234.147 335.188C234.387 335.188 234.459 334.852 234.219 334.804Z" fill="#9FC3AA"/>
<path d="M233.235 333.7C233.955 330.102 236.617 327.919 238.703 325.16C238.823 325.016 238.584 324.8 238.44 324.896C235.849 326.887 232.947 330.222 232.852 333.652C232.876 333.868 233.187 333.916 233.235 333.7Z" fill="#9FC3AA"/>
<path d="M233.646 335.045C235.325 331.83 237.987 329.911 241.537 329.191C241.729 329.143 241.657 328.879 241.489 328.879C237.987 328.687 234.27 331.614 233.262 334.901C233.215 335.093 233.55 335.237 233.646 335.045Z" fill="#9FC3AA"/>
<path d="M234.581 338.355C235.108 335.86 237.051 334.06 238.658 332.213C238.778 332.093 238.634 331.853 238.466 331.973C237.435 332.669 236.571 333.652 235.828 334.636C235.061 335.668 234.149 336.963 234.197 338.307C234.221 338.523 234.533 338.57 234.581 338.355Z" fill="#9FC3AA"/>
<path d="M235.3 340.346C237.819 337.875 240.385 337.851 243.671 337.684C243.934 337.66 243.982 337.3 243.743 337.228C240.697 336.34 236.955 337.564 235.013 340.059C234.869 340.274 235.109 340.538 235.3 340.346Z" fill="#9FC3AA"/>
<path d="M235.562 341.905C231.844 340.922 227.288 341.545 225.369 345.312C225.321 345.432 225.465 345.504 225.537 345.408C226.76 343.68 228.175 342.625 230.262 342.145C232.084 341.713 233.787 342.457 235.562 342.217C235.706 342.169 235.682 341.929 235.562 341.905Z" fill="#9FC3AA"/>
<path d="M234.772 340.01C231.918 339.05 228.081 340.538 225.419 341.593C225.323 341.641 225.347 341.809 225.467 341.761C226.786 341.426 228.081 340.994 229.424 340.706C231.199 340.298 232.949 340.466 234.748 340.25C234.892 340.25 234.916 340.058 234.772 340.01Z" fill="#9FC3AA"/>
<path d="M234.677 338.283C230.048 338.091 225.012 337.012 220.959 339.915C220.863 339.987 220.935 340.155 221.054 340.083C223.501 338.763 226.163 338.523 228.897 338.523C230.84 338.523 232.806 338.955 234.701 338.619C234.917 338.595 234.869 338.283 234.677 338.283Z" fill="#9FC3AA"/>
<path d="M234.771 338.57C235.419 335.668 239.88 336.507 241.966 335.979C242.182 335.931 242.182 335.62 241.966 335.548C239.76 335.02 234.747 335.668 234.411 338.498C234.387 338.714 234.723 338.762 234.771 338.57Z" fill="#9FC3AA"/>
<path d="M236.329 346.68C237.432 342.05 242.037 342.53 245.778 341.93C245.922 341.906 245.946 341.642 245.778 341.618C242.229 341.09 236.281 342.242 235.993 346.632C235.945 346.824 236.281 346.872 236.329 346.68Z" fill="#9FC3AA"/>
<path d="M236.089 344.353C236.401 343.849 236.353 343.321 236.809 342.842C237.312 342.29 238.008 341.906 238.655 341.57C239.758 340.994 240.982 340.706 242.061 340.155C242.205 340.083 242.133 339.843 241.989 339.843C240.502 339.987 238.943 340.754 237.672 341.498C237.024 341.882 234.986 343.441 235.921 344.353C235.993 344.425 236.065 344.401 236.089 344.353Z" fill="#9FC3AA"/>
<path d="M236.089 341.665C237.264 340.202 239.183 339.986 240.67 339.026C240.814 338.93 240.766 338.69 240.574 338.69C239.663 338.714 238.679 339.29 237.888 339.674C237.12 340.058 236.113 340.586 235.705 341.377C235.61 341.617 235.921 341.881 236.089 341.665Z" fill="#9FC3AA"/>
<path d="M237.048 353.349C236.377 351.31 234.194 349.439 232.516 348.191C231.029 347.088 228.846 345.72 227.119 347.112C226.999 347.207 227.143 347.351 227.263 347.303C229.422 346.368 231.34 347.975 232.899 349.319C234.29 350.542 235.801 351.91 236.809 353.469C236.88 353.565 237.096 353.493 237.048 353.349Z" fill="#9FC3AA"/>
<path d="M236.57 350.47C235.707 348.719 233.932 347.687 232.325 346.68C231.078 345.888 229.256 344.808 227.745 345.336C227.649 345.36 227.673 345.504 227.769 345.504C230.767 345.456 234.556 348.311 236.283 350.638C236.403 350.83 236.666 350.686 236.57 350.47Z" fill="#9FC3AA"/>
<path d="M236.281 347.207C234.65 345.744 231.556 343.824 229.35 345.12C229.254 345.192 229.326 345.336 229.422 345.312C231.652 344.76 234.314 346.031 236.041 347.447C236.185 347.591 236.425 347.351 236.281 347.207Z" fill="#9FC3AA"/>
<path d="M235.274 344.377C234.099 343.753 232.588 343.345 231.245 343.585C231.101 343.609 231.101 343.849 231.245 343.873C232.516 344.137 233.811 344.569 235.106 344.785C235.346 344.833 235.514 344.521 235.274 344.377Z" fill="#9FC3AA"/>
<path d="M236.762 356.636C234.028 355.172 230.406 354.405 227.648 356.228C227.528 356.3 227.624 356.468 227.768 356.42C230.766 355.148 233.692 355.94 236.594 357.044C236.81 357.139 236.977 356.756 236.762 356.636Z" fill="#9FC3AA"/>
<path d="M236.545 355.508C235.154 353.205 230.79 352.893 228.463 353.493C228.415 353.493 228.415 353.589 228.487 353.589C231.413 353.229 233.955 354.117 236.378 355.7C236.474 355.748 236.617 355.604 236.545 355.508Z" fill="#9FC3AA"/>
<path d="M236.739 353.517C234.653 352.27 232.278 352.03 229.88 351.886C229.76 351.886 229.736 352.078 229.856 352.102C232.087 352.653 234.437 352.845 236.547 353.853C236.763 353.925 236.931 353.637 236.739 353.517Z" fill="#9FC3AA"/>
<path d="M236.955 352.509C240.409 350.614 243.479 350.182 247.34 349.846C247.556 349.822 247.628 349.487 247.388 349.439C243.839 348.719 239.594 349.99 236.74 352.126C236.548 352.293 236.716 352.629 236.955 352.509Z" fill="#9FC3AA"/>
<path d="M237.075 350.926C238.227 348.479 241.248 348.79 243.383 347.927C243.575 347.855 243.551 347.567 243.335 347.567C241.272 347.543 237.339 348.455 236.764 350.806C236.716 350.974 236.979 351.117 237.075 350.926Z" fill="#9FC3AA"/>
<path d="M236.712 348.791C237.696 348.143 238.559 347.351 239.614 346.775C240.91 346.08 242.349 345.768 243.788 345.48C243.931 345.456 243.907 345.216 243.764 345.216C241.221 345.12 237.984 346.415 236.521 348.575C236.425 348.719 236.593 348.863 236.712 348.791Z" fill="#9FC3AA"/>
<path d="M236.498 360.426C238.8 357.331 242.614 356.515 246.067 355.292C246.235 355.244 246.211 354.956 246.019 354.98C242.902 355.34 237.625 357.139 236.258 360.282C236.162 360.45 236.378 360.57 236.498 360.426Z" fill="#9FC3AA"/>
<path d="M237.124 357.523C238.85 355.7 240.865 355.172 243.095 354.236C243.215 354.188 243.215 353.948 243.047 353.972C240.961 354.188 237.939 355.412 236.86 357.331C236.764 357.475 236.98 357.643 237.124 357.523Z" fill="#9FC3AA"/>
<path d="M237.505 354.884C238.2 354.428 238.872 353.925 239.591 353.517C240.335 353.109 241.126 352.821 241.87 352.413C242.062 352.317 241.918 352.077 241.726 352.101C240.191 352.341 238.32 353.469 237.289 354.596C237.145 354.74 237.337 354.98 237.505 354.884Z" fill="#9FC3AA"/>
<path d="M236.282 363.761C235.898 361.986 233.931 360.69 232.301 360.139C232.133 360.091 232.061 360.307 232.181 360.403C232.9 360.906 233.668 361.338 234.339 361.89C235.035 362.442 235.538 363.138 235.994 363.881C236.114 364.025 236.33 363.929 236.282 363.761Z" fill="#9FC3AA"/>
<path d="M236.45 361.53C235.683 360.33 234.268 359.826 232.924 359.538C232.805 359.514 232.709 359.682 232.829 359.754C234.028 360.33 235.083 360.93 236.138 361.769C236.306 361.889 236.594 361.722 236.45 361.53Z" fill="#9FC3AA"/>
<path d="M236.284 359.178C235.468 358.675 234.557 358.291 233.694 357.811C232.782 357.307 231.871 356.827 230.887 356.515C230.768 356.467 230.696 356.659 230.816 356.707C232.47 357.643 234.293 359.202 236.212 359.418C236.356 359.442 236.404 359.25 236.284 359.178Z" fill="#9FC3AA"/>
<path d="M228.823 350.662C232.037 350.758 234.172 352.534 236.858 353.997C236.978 354.069 237.098 353.901 237.002 353.805C234.963 351.742 231.773 349.943 228.799 350.494C228.703 350.494 228.727 350.638 228.823 350.662Z" fill="#9FC3AA"/>
<path d="M224.868 322.137C227.506 323.097 228.897 325.808 230.864 327.631C230.96 327.703 231.08 327.607 231.032 327.511C230.264 326.239 229.305 325.112 228.274 324.056C227.386 323.145 226.211 322.089 224.868 321.993C224.796 321.945 224.772 322.089 224.868 322.137Z" fill="#9FC3AA"/>
<path d="M230.645 324.728C230.741 321.106 231.82 317.819 233.091 314.484C233.139 314.364 232.947 314.292 232.875 314.388C231.149 317.435 230.165 321.226 230.381 324.728C230.381 324.896 230.645 324.896 230.645 324.728Z" fill="#9FC3AA"/>
<path d="M232.468 330.822C232.732 329.119 233.163 327.583 233.931 326.048C234.698 324.489 235.897 323.265 236.785 321.802C236.905 321.61 236.641 321.466 236.497 321.586C233.955 323.673 232.156 327.511 232.204 330.798C232.204 330.918 232.444 330.966 232.468 330.822Z" fill="#9FC3AA"/>
<path d="M225.657 325.712C228.703 325.784 231.101 329.071 233.044 331.062C233.139 331.158 233.307 331.038 233.235 330.918C231.844 328.351 228.775 325.352 225.681 325.4C225.465 325.424 225.465 325.712 225.657 325.712Z" fill="#9FC3AA"/>
<path d="M233.764 336.819C234.34 335.38 235.083 334.205 236.187 333.125C237.338 331.997 238.705 331.494 239.976 330.606C240.144 330.486 240.096 330.198 239.88 330.222C238.321 330.27 236.786 331.638 235.707 332.645C234.58 333.701 233.429 335.164 233.309 336.772C233.309 337.035 233.668 337.035 233.764 336.819Z" fill="#9FC3AA"/>
<path d="M234.844 339.314C231.366 337.707 228.056 337.443 224.243 337.827C224.075 337.851 224.075 338.067 224.243 338.091C226.33 338.283 228.392 338.211 230.455 338.522C231.942 338.738 233.261 339.818 234.724 339.746C234.94 339.722 235.059 339.41 234.844 339.314Z" fill="#9FC3AA"/>
<path d="M234.579 340.658C234.699 341.066 235.322 340.898 235.202 340.49C235.202 340.466 235.202 340.466 235.178 340.442C235.082 340.155 234.675 340.155 234.603 340.442C234.603 340.466 234.603 340.466 234.579 340.49C234.459 340.874 235.082 341.042 235.202 340.658C235.202 340.658 235.202 340.658 235.202 340.634C235.346 340.131 234.411 340.131 234.579 340.658Z" fill="#9FC3AA"/>
<path d="M235.491 341.45C236.594 339.147 239.688 338.307 241.943 337.587C242.062 337.539 242.062 337.324 241.919 337.348C240.552 337.42 239.232 337.971 238.009 338.547C236.93 339.051 235.323 339.987 235.083 341.282C235.059 341.522 235.371 341.69 235.491 341.45Z" fill="#9FC3AA"/>
<path d="M235.18 339.483C235.804 337.06 239.329 336.004 241.392 335.189C241.512 335.141 241.464 334.949 241.344 334.973C239.857 335.309 238.442 335.908 237.123 336.7C236.164 337.252 234.82 338.211 234.868 339.459C234.868 339.627 235.132 339.675 235.18 339.483Z" fill="#9FC3AA"/>
<path d="M235.132 341.042C232.518 340.49 230.12 339.866 227.41 340.202C227.218 340.226 227.218 340.49 227.41 340.514C228.705 340.682 230 340.706 231.295 340.85C232.566 340.994 233.861 341.57 235.132 341.354C235.3 341.33 235.3 341.066 235.132 341.042Z" fill="#9FC3AA"/>
<path d="M223.333 331.542C227.626 330.414 230.6 333.941 234.077 335.716C234.173 335.764 234.293 335.62 234.197 335.548C231.055 333.077 227.506 329.863 223.237 331.134C222.949 331.206 223.069 331.614 223.333 331.542Z" fill="#9FC3AA"/>
<path d="M233.022 335.812C233.574 334.756 234.125 333.749 234.821 332.813C235.588 331.758 236.548 330.894 237.387 329.91C237.507 329.79 237.363 329.574 237.195 329.67C235.229 330.918 233.358 333.461 232.638 335.668C232.566 335.884 232.926 336.028 233.022 335.812Z" fill="#9FC3AA"/>
<path d="M242.66 389.071C286.381 389.983 329.647 392.861 373.056 395.524C394.737 396.844 416.37 398.283 437.859 400.154C408.383 393.989 354.158 383.217 323.771 380.554C293.36 377.891 263.045 375.012 232.419 374.101C160.11 371.942 88.1842 378.347 20.3838 397.276C15.827 398.547 11.4141 399.867 7.12109 401.21C83.6514 390.87 162.988 387.416 242.66 389.071Z" fill="#9FC3AA"/>
<path d="M242.749 418.057C240.303 410.716 230.494 408.149 224.474 406.686C214.761 404.287 204.04 404.478 194.351 407.069C192.193 406.638 189.698 406.997 187.684 407.189C183.391 407.597 179.146 408.389 174.925 409.372C170.944 410.308 166.962 411.484 163.221 413.307C160.607 414.578 158.28 416.186 157.345 419.329C154.995 427.053 165.26 428.925 169.696 429.477C176.556 430.34 183.583 429.98 190.466 429.381C195.478 428.949 200.419 430.34 205.263 431.636C211.403 433.291 217.615 435.066 223.97 434.85C229.846 434.658 235.362 432.163 239.727 427.821C242.174 425.422 243.972 421.704 242.749 418.057Z" fill="#E1DFDF"/>
<path d="M168.075 214.447C168.219 214.039 168.387 213.631 168.53 213.175C169.586 210.057 169.969 207.97 171.193 202.932C171.96 199.693 172.703 196.646 173.279 194.583C173.615 193.407 173.855 191.68 174.142 189.689C175.198 182.444 178.555 172.56 185.75 172.56C186.014 172.56 189.803 175.774 188.293 183.499C186.973 190.241 179.946 212.888 176.901 219.941C176.253 221.452 174.79 223.036 172.656 223.036C171.528 223.036 170.401 222.58 169.298 221.692C166.276 219.245 167.139 216.918 168.075 214.447Z" fill="#8786B9"/>
<path d="M233.736 216.765C233.663 216.338 233.567 215.908 233.502 215.434C232.989 212.182 232.964 210.06 232.611 204.888C232.402 201.566 232.184 198.437 231.966 196.306C231.834 195.091 231.889 193.348 231.943 191.337C232.128 184.018 230.088 173.639 223.02 172.426C222.76 172.382 218.884 174.978 219.067 182.848C219.227 189.715 222.323 213.224 224.132 220.691C224.515 222.29 225.689 224.098 227.792 224.459C228.903 224.649 230.091 224.391 231.329 223.703C234.697 221.798 234.216 219.354 233.736 216.765Z" fill="#8786B9"/>
<path d="M224.046 151.208C218.171 143.723 217.715 128.753 206.131 120.5C198.96 115.39 183.011 121.747 180.445 130.84C176.752 143.987 184.57 158.429 183.371 163.443C183.371 163.443 188.287 164.019 204.284 159.221C220.257 154.398 224.046 151.208 224.046 151.208Z" fill="#2D2321"/>
<path d="M181.429 162.292C182.317 159.677 181.765 156.918 181.214 154.255C180.59 151.28 179.751 148.329 179.727 145.259C179.703 141.924 179.535 138.613 180.038 135.302C180.278 133.743 180.638 132.208 181.094 130.696C181.573 129.161 182.437 127.769 182.821 126.234C182.892 125.946 182.533 125.826 182.365 126.042C178.671 131.056 178.24 138.301 178.671 144.299C178.887 147.25 179.559 150.081 180.374 152.935C181.214 155.886 182.149 159.197 181.382 162.268C181.382 162.316 181.406 162.316 181.429 162.292Z" fill="#2D2321"/>
<path d="M195.173 118.365C198.219 117.885 201.792 118.365 204.646 119.469C207.716 120.644 210.114 122.947 212.081 125.538C213.904 127.937 215.367 130.624 216.662 133.335C217.981 136.046 219.108 138.949 220.859 141.42C221.003 141.636 221.291 141.444 221.195 141.228C219.924 138.205 218.365 135.255 216.854 132.352C215.391 129.545 213.808 126.762 211.721 124.339C209.707 121.964 207.332 120.069 204.335 119.109C201.265 118.125 198.291 118.341 195.125 118.317C195.125 118.293 195.125 118.365 195.173 118.365Z" fill="#2D2321"/>
<path d="M217.716 138.661C218.531 140.605 219.323 142.524 220.378 144.347C221.313 145.979 222.512 148.114 224.143 149.121C224.263 149.193 224.407 149.049 224.335 148.929C223.879 148.09 223.184 147.442 222.584 146.698C221.889 145.835 221.265 144.899 220.69 143.963C219.634 142.236 218.723 140.413 217.788 138.637C217.764 138.589 217.692 138.613 217.716 138.661Z" fill="#2D2321"/>
<path d="M216.494 170.713C215.151 170.713 210.019 167.954 209.539 163.852C209.539 163.852 204.935 167.714 204.599 167.786C204.239 167.738 199.658 163.852 199.658 163.852C199.179 167.954 194.046 170.713 192.703 170.713C192.703 170.713 192.871 185.155 204.599 185.155C216.327 185.155 216.494 170.713 216.494 170.713Z" fill="#614C41"/>
<path d="M212.152 148.305C209.921 152.648 208.77 171.96 209.082 176.134C206.324 180.261 198.026 179.373 197.378 178.485C196.851 177.766 201.791 162.412 198.433 158.238C195.579 154.663 194.116 153.224 196.227 151.4C200.016 148.09 205.197 147.106 210.089 146.026L212.152 148.305Z" fill="#614C41"/>
<path d="M199.609 162.964C201.24 163.252 202.535 163.084 204.334 163.444C208.267 164.236 210.785 166.875 210.785 166.875C210.785 166.875 209.442 164.715 209.514 163.852C210.138 156.583 211.145 150.249 212.128 148.306L210.066 146.051C205.173 147.13 200.017 148.114 196.204 151.425C194.093 153.272 195.556 154.711 198.41 158.262C198.77 158.67 199.609 160.301 199.609 162.964Z" fill="#4D3C33"/>
<path d="M198.868 410.042C198.868 410.018 198.916 408.65 199.036 406.275H192.824L192.944 407.667C192.656 410.042 188.099 412.873 183.159 415.776C181.072 416.999 179.417 418.223 179.273 418.822C178.89 420.574 181.744 420.694 183.063 420.526C186.468 420.166 189.586 418.654 192.776 417.935C194.407 417.551 198.004 417.071 199.06 415.584C200.187 414 199.851 411.577 198.868 410.042Z" fill="#161828"/>
<path d="M226.039 415.776C221.074 412.873 216.517 410.066 216.254 407.667L216.374 406.275H210.162C210.258 408.65 210.306 410.018 210.306 410.042C209.322 411.577 208.987 414 210.114 415.584C211.169 417.071 214.767 417.551 216.398 417.935C219.611 418.654 222.705 420.166 226.111 420.526C227.454 420.67 230.284 420.55 229.9 418.822C229.78 418.223 228.125 416.999 226.039 415.776Z" fill="#161828"/>
<path d="M187.045 408.89C188.22 415.751 201.099 408.074 201.099 408.074C201.099 408.074 201.315 333.848 201.938 328.474C201.89 325.835 207.047 256.79 207.047 256.79V240.045H187.332C185.078 247.554 180.449 256.43 180.449 272.84C180.473 298.174 186.637 404.98 187.045 408.89Z" fill="#163074"/>
<path d="M221.845 406.083C220.67 412.944 208.582 407.882 208.582 407.882C208.582 407.882 208.223 333.848 207.575 328.474C207.623 325.835 202.467 256.79 202.467 256.79L186.422 243.619L187.357 240.045H222.181C224.435 247.554 229.064 256.43 229.064 272.84C229.064 298.174 222.253 402.173 221.845 406.083Z" fill="#163074"/>
<path d="M207.907 133.168C203.71 128.106 198.674 128.825 198.674 128.825C197.619 128.897 196.587 129.017 195.604 129.185L195.58 129.065C195.388 129.137 195.196 129.209 195.004 129.281C194.813 129.329 194.597 129.353 194.405 129.401L194.429 129.521C193.493 129.929 192.558 130.385 191.647 130.912C191.647 130.912 187.042 133.072 186.323 139.645C185.867 143.819 187.186 145.307 188.457 148.713C189.656 151.976 189.752 152.672 191.167 155.191C192.966 158.406 196.707 160.397 200.329 161.644C201.984 162.124 203.423 162.076 204.694 161.62C205.989 161.284 207.236 160.541 208.339 159.221C210.665 156.174 212.704 152.456 212.44 148.785C212.224 145.907 211.913 145.283 211.121 141.9C210.306 138.35 210.593 136.382 207.907 133.168Z" fill="#614C41"/>
<path d="M234.555 274.831C234.387 271.905 228.439 255.807 227 244.435C224.482 224.403 218.414 208.498 222.419 200.581C229.542 186.594 223.091 172.56 223.091 172.56C220.884 171.768 219.061 172.08 213.905 169.537C213.905 169.537 211.579 175.223 204.576 175.703C197.572 175.223 195.246 169.537 195.246 169.537C190.09 172.08 187.931 171.768 185.725 172.56C185.725 172.56 179.489 190.361 185.797 200.581C190.306 207.898 185.257 231.338 182 244.435C179 256.5 173.805 271.929 173.613 274.831C173.613 274.831 180.952 282.221 205.943 282.221C230.933 282.197 234.555 274.831 234.555 274.831Z" fill="#8786B9"/>
<path d="M199.277 154.903C202.227 155.335 205.681 153.128 205.681 153.128C205.681 153.128 205.969 155.551 203.115 156.415C200.285 157.254 199.277 154.903 199.277 154.903Z" fill="#F5F4F4"/>
<path d="M202.873 157.854C203.041 157.686 203.256 157.518 203.472 157.374C203.688 157.254 203.904 157.206 204.144 157.11C204.24 157.062 204.24 156.942 204.144 156.918C203.544 156.679 202.969 157.23 202.681 157.686C202.585 157.83 202.753 157.974 202.873 157.854Z" fill="#846C5F"/>
<path d="M205.683 145.139C205.419 144.275 206.762 143.867 207.026 144.731" stroke="black" stroke-width="1.3704" stroke-miterlimit="10" stroke-linecap="round" stroke-linejoin="round"/>
<path d="M203.378 142.428C204.074 142.332 204.458 141.564 205.177 141.42C205.825 141.301 206.832 141.612 207.288 141.061C207.384 140.941 207.456 140.725 207.36 140.581C206.904 139.909 205.489 140.029 204.794 140.269C204.122 140.509 202.971 141.324 203.091 142.14C203.091 142.26 203.211 142.452 203.378 142.428Z" fill="#2D2321"/>
<path d="M209.372 144.851C207.022 144.371 203.304 149.529 207.022 150.345C210.739 151.16 211.722 145.355 209.372 144.851Z" fill="#7A6458"/>
<path d="M193.472 148.809C193.208 147.946 194.551 147.538 194.815 148.402" stroke="black" stroke-width="1.3704" stroke-miterlimit="10" stroke-linecap="round" stroke-linejoin="round"/>
<path d="M195.32 144.467C194.888 143.772 193.713 143.652 192.969 143.82C192.25 143.963 191.051 144.635 190.907 145.403C190.859 145.691 191.027 145.859 191.29 145.907C191.962 146.003 192.537 145.307 193.137 145.043C193.833 144.755 194.504 145.139 195.152 144.899C195.32 144.827 195.439 144.635 195.32 144.467Z" fill="#2D2321"/>
<path d="M191.578 150.201C193.281 148.497 199.229 150.776 196.567 153.487C193.905 156.222 189.876 151.928 191.578 150.201Z" fill="#7A6458"/>
<path d="M196.328 144.443C197.12 145.21 198.055 145.738 198.726 146.602C198.75 146.65 198.822 146.578 198.798 146.554C198.415 145.57 197.215 144.923 196.328 144.443C196.328 144.419 196.328 144.419 196.328 144.443Z" fill="#846C5F"/>
<path d="M199.878 148.329C200.166 149.049 200.286 149.792 200.31 150.584C200.31 150.872 200.238 151.52 200.429 151.784C200.861 152.311 202.132 151.712 202.54 151.4C202.564 151.376 202.54 151.328 202.492 151.352C202.108 151.616 201.557 151.76 201.077 151.76C200.477 151.76 200.501 151.352 200.477 150.848C200.429 149.936 200.333 149.145 199.902 148.329C199.902 148.281 199.854 148.281 199.878 148.329Z" fill="#846C5F"/>
<path d="M190.403 135.327C190.859 136.263 192.202 136.958 192.993 137.582C193.833 138.254 194.72 138.878 195.727 139.285C198.15 140.293 200.836 139.621 203.282 140.629C203.45 140.701 203.546 140.461 203.45 140.341C201.723 138.518 198.749 139.573 196.591 138.854C195.224 138.398 194.145 137.414 193.041 136.551C192.346 135.999 191.434 135.087 190.499 135.207C190.403 135.207 190.379 135.255 190.403 135.327Z" fill="#2D2321"/>
<path d="M209.085 123.259C200.907 112.943 181.385 118.821 180.281 132.064C179.634 139.741 183.855 150.081 186.517 150.321C187.476 150.417 186.301 148.617 188.412 149.289C193.52 150.872 186.349 142.596 190.498 135.303C198.772 141.852 205.416 134.967 210.596 143.867C211.723 145.786 213.114 142.716 213.858 142.14C215.92 140.437 213.882 129.281 209.085 123.259Z" fill="#2D2321"/>
<path d="M190.019 150.009C188.724 147.826 184.431 146.77 185.102 150.633C185.63 153.823 191.074 159.077 190.906 152.816L190.019 150.009Z" fill="#4D3C33"/>
<path d="M210.574 143.844C210.454 141.301 213.452 138.062 215.035 141.636C216.33 144.587 214.699 151.976 211.389 146.674L210.574 143.844Z" fill="#4D3C33"/>
<path d="M191.96 155.551C192.656 154.111 192.512 152.36 192.368 150.8C192.224 149.169 191.864 147.586 191.409 146.002C190.953 144.419 190.425 142.86 190.185 141.204C189.85 138.925 190.401 136.886 190.641 134.631C190.665 134.511 190.473 134.463 190.425 134.559C188.818 137.798 189.298 141.852 190.329 145.163C190.809 146.698 191.241 148.257 191.576 149.817C191.984 151.736 191.936 153.559 191.888 155.503C191.864 155.575 191.936 155.575 191.96 155.551Z" fill="#2D2321"/>
<path d="M204.097 200.197C204.097 200.197 204.073 200.197 204.097 200.197C204.073 200.197 204.073 200.197 204.097 200.197C201.603 200.197 194.408 208.882 185.75 200.581C193.952 210.153 200.787 202.98 204.097 201.997C207.407 202.98 214.242 210.153 222.444 200.581C213.762 208.906 206.567 200.197 204.097 200.197Z" fill="#7A79AC"/>
<path d="M226.857 242.037C227.826 249.911 227.25 252.257 225.898 253.783C224.333 255.537 223.308 257.204 222.747 259.499C222.524 260.339 222.364 261.991 222.882 262.243C223.799 262.702 224.074 261.878 224.447 260.489C224.552 260.095 225.193 259.087 225.368 258.3C225.508 260.722 223.344 264.637 223.724 267.576C223.942 269.35 224.59 270.379 226.494 269.987C228.834 269.477 228.339 267.544 229.589 265.987C230.092 265.375 231.483 264.9 232.085 262.349C232.424 260.928 231.984 257.278 231.982 255.835C231.964 253.986 233.091 249.532 231.634 244.544L226.857 242.037Z" fill="#614C41"/>
<path d="M225.534 251.72C225.534 251.72 229.543 235.872 226.036 224.62C224.222 218.749 233.18 219.316 234.048 219.623C234.048 219.623 239.108 224.899 236.464 239.561C235.015 247.659 231.554 254.426 230.992 255.511C228.782 254.705 227.186 253.329 225.534 251.72Z" fill="#8C8BC1"/>
<path d="M145.303 227.834C145.303 227.834 160.238 221.187 171.922 222.729C178.017 223.518 175.934 214.787 175.483 213.983C175.483 213.983 169.423 209.894 155.425 214.995C147.691 217.8 141.612 222.362 140.639 223.101C141.813 225.118 143.436 226.48 145.303 227.834Z" fill="#8C8BC1"/>
<path d="M317.976 227.576C317.863 227.2 312.971 205.47 311.514 198.451C310.032 191.428 305.878 183.537 299.389 183.281C299.389 183.281 296.298 185.724 297.5 192.75C298.551 198.884 305.844 226.728 308.466 233.185C309.022 234.528 319.815 234.152 317.976 227.576Z" fill="#963D20"/>
<path d="M335.386 415.273C332.53 423.195 321.358 426.253 314.494 428.058C303.422 430.941 291.248 431.142 280.251 428.71C277.796 429.237 274.965 428.961 272.686 428.81C267.826 428.535 262.992 427.833 258.232 426.93C253.723 426.078 249.189 424.95 244.981 423.145C242.025 421.866 239.42 420.262 238.368 416.928C235.787 408.78 247.461 406.423 252.546 405.671C260.361 404.493 268.352 404.643 276.143 405.045C281.829 405.32 287.465 403.666 293.001 402.111C299.99 400.131 307.08 398 314.294 398C320.957 398 327.195 400.482 332.129 404.944C334.81 407.451 336.814 411.362 335.386 415.273Z" fill="#D8D5D7"/>
<path d="M167.386 414.273C164.53 422.195 153.358 425.253 146.494 427.058C135.422 429.941 123.248 430.142 112.251 427.71C109.796 428.237 106.965 427.961 104.686 427.81C99.8263 427.535 94.9916 426.833 90.2321 425.93C85.7231 425.078 81.1891 423.95 76.9807 422.145C74.0248 420.866 71.4196 419.262 70.3675 415.928C67.7874 407.78 79.4606 405.423 84.5458 404.671C92.3614 403.493 100.352 403.643 108.143 404.045C113.829 404.32 119.465 402.666 125.001 401.111C131.99 399.131 139.08 397 146.294 397C152.957 397 159.195 399.482 164.129 403.944C166.81 406.451 168.814 410.362 167.386 414.273Z" fill="#D8D5D7"/>
<path d="M104.571 405.015C104.571 405.015 96.6302 411.432 94.2755 412.811C92.021 414.165 90.2174 415.469 90.0671 416.12C89.6412 418.026 92.7474 418.151 94.1753 417.976C97.8576 417.574 101.239 415.945 104.721 415.143C106.5 414.742 110.408 414.215 111.535 412.611C112.762 410.881 112.261 407.396 111.209 405.742C107.226 408.023 104.571 405.015 104.571 405.015Z" fill="#001326"/>
<path d="M149.261 405.015C149.261 405.015 157.202 411.432 159.557 412.811C161.811 414.165 163.615 415.469 163.765 416.12C164.191 418.026 161.11 418.151 159.657 417.976C155.975 417.574 152.593 415.945 149.111 415.143C147.332 414.742 143.425 414.215 142.297 412.611C141.07 410.881 141.571 407.396 142.623 405.742C146.606 408.023 149.261 405.015 149.261 405.015Z" fill="#001326"/>
<path d="M100.887 327.374C101.914 333.341 105.797 335.472 110.406 335.748C115.015 336.023 118.322 333.291 118.898 328.603C118.848 326.321 128.768 269.238 128.768 269.238V245.974H103.442C103.442 245.974 101.864 260.238 101.864 274.503C101.864 296.539 100.536 323.965 100.887 327.374Z" fill="#394359"/>
<path d="M100.887 327.374C101.864 334.719 98.9336 406.819 98.9336 406.819C101.163 407.22 110.131 407.747 112.06 405.465C112.06 405.465 118.322 336.9 118.923 328.602C118.623 323.588 100.887 327.374 100.887 327.374Z" fill="#394359"/>
<path d="M152.217 327.374C151.215 333.341 147.307 335.472 142.698 335.748C138.088 336.023 134.782 333.291 134.206 328.603C134.256 326.321 124.336 269.238 124.336 269.238V245.974H149.661C149.661 245.974 151.24 260.238 151.24 274.503C151.24 296.539 152.567 323.965 152.217 327.374Z" fill="#394359"/>
<path d="M152.214 327.374C151.237 334.719 155.395 406.819 155.395 406.819C153.191 407.22 142.971 407.747 141.067 405.465C141.067 405.465 134.829 336.9 134.203 328.602C134.504 323.588 152.214 327.374 152.214 327.374Z" fill="#394359"/>
<path d="M132.225 158.557H121.153C121.554 159.534 121.779 169.362 118.448 173.824C118.448 173.824 117.571 186.233 126.89 186.233C136.208 186.233 135.331 173.824 135.331 173.824C131.724 169.311 132.1 159.76 132.225 158.557Z" fill="#E39583"/>
<path d="M146.829 177.81C144.925 177.133 139.439 175.83 135.356 173.824C135.356 173.824 132.926 178.337 127.39 178.713C121.829 178.337 118.472 173.824 118.472 173.824C114.389 175.83 108.603 177.133 106.674 177.81C104.62 178.537 98.9835 266.205 99.9854 267.007C104.745 270.818 117.946 272.423 127.44 272.748C136.934 272.423 149.108 270.818 153.868 267.007C154.845 266.205 148.858 178.537 146.829 177.81Z" fill="#774644"/>
<path d="M90.9686 223.787C91.0438 223.411 94.6259 201.124 95.678 193.904C96.7301 186.709 100.438 178.461 106.976 177.81C106.976 177.81 110.257 180.091 109.481 187.261C108.804 193.528 103.168 222.157 100.939 228.826C100.463 230.255 89.5157 230.556 90.9686 223.787Z" fill="#774644"/>
<path d="M162.835 223.787C162.76 223.411 159.178 201.124 158.126 193.904C157.074 186.709 153.367 178.461 146.829 177.81C146.829 177.81 143.572 180.091 144.324 187.261C145 193.528 150.636 222.157 152.866 228.826C153.341 230.255 164.288 230.556 162.835 223.787Z" fill="#774644"/>
<path d="M121.152 165.326C121.503 165.326 128.742 164.95 132.575 166.554C131.974 162.819 132.124 159.284 132.199 158.582H121.152C121.303 158.883 121.177 163.646 121.152 165.326Z" fill="#C78171"/>
<path d="M309.477 266.112C309.423 267.183 309.342 267.907 309.283 268.131C308.913 269.54 308.671 271.135 307.678 272.698C306.529 274.521 305.843 276.177 305.657 278.342C305.599 279.142 305.661 280.65 306.171 280.817C307.057 281.09 307.2 280.324 307.32 278.994C307.35 278.639 307.809 277.625 307.819 276.888C308.315 279.072 306.895 282.935 307.695 285.517C308.162 287.082 308.903 287.942 310.555 287.294C312.595 286.503 311.883 284.802 312.772 283.219C313.124 282.582 314.304 281.955 314.514 279.561C314.621 278.21 314.578 276.598 314.351 275.294C314.064 273.636 313.595 271.404 313.57 270.084C313.557 269.667 313.519 269.876 314.186 266.377L309.477 266.112Z" fill="#E39583"/>
<path d="M315.22 273.006C316.447 270.753 318.015 234.767 317.484 231.941C316.234 225.292 308.071 225.342 308.531 231.107C308.897 235.729 309.662 266.779 309.32 267.639C310.653 270.444 313.583 272.754 315.22 273.006Z" fill="#963D20"/>
<path d="M137.689 138.727C135.234 132.886 130.424 132.159 130.424 132.159C129.447 131.933 128.47 131.758 127.493 131.633V131.532C127.293 131.532 127.117 131.557 126.917 131.582C126.717 131.557 126.541 131.532 126.341 131.532V131.633C125.364 131.758 124.387 131.933 123.41 132.159C123.41 132.159 118.626 132.886 116.146 138.727C114.567 142.437 115.394 144.167 115.594 147.677C115.795 151.011 115.695 151.688 116.296 154.396C117.047 157.855 119.628 160.713 122.583 162.869C123.961 163.772 125.614 164.123 126.892 164.072C128.17 164.123 129.848 163.822 131.226 162.919C134.182 160.763 136.737 157.855 137.488 154.396C138.089 151.688 137.989 151.011 138.19 147.677C138.465 144.167 139.267 142.463 137.689 138.727Z" fill="#E39583"/>
<path d="M126.115 160.261C126.566 160.011 127.017 159.96 127.543 159.91C127.643 159.91 127.668 159.785 127.593 159.71C127.067 159.334 126.366 159.66 125.965 160.036C125.84 160.161 125.99 160.336 126.115 160.261Z" fill="#C78171"/>
<path d="M122.883 144.142C124.135 144.769 124.937 145.822 125.638 147C125.663 147.05 125.739 147.025 125.713 146.975C125.338 145.721 124.16 144.468 122.883 144.142C122.883 144.142 122.883 144.117 122.883 144.142Z" fill="#C78171"/>
<path d="M126.166 148.303C126.341 150.033 125.991 151.763 125.84 153.493C125.74 154.521 127.343 154.345 127.995 154.119C128.045 154.094 128.02 154.044 127.97 154.044C127.669 154.119 126.016 154.32 126.041 153.668C126.066 153.092 126.141 152.54 126.191 151.964C126.316 150.735 126.417 149.507 126.216 148.303C126.216 148.253 126.166 148.278 126.166 148.303Z" fill="#C78171"/>
<path d="M123.508 156.024C125.587 156.325 130.447 156.275 130.447 156.275C130.447 156.275 129.42 158.732 126.839 158.732C124.284 158.732 123.508 156.024 123.508 156.024Z" fill="#EFEEEF"/>
<path d="M133.15 147.527C133.15 146.699 131.848 146.699 131.848 147.527" stroke="#000920" stroke-width="1.1263" stroke-miterlimit="10" stroke-linecap="round" stroke-linejoin="round"/>
<path d="M135.106 144.794C135.957 144.117 134.63 143.164 134.229 142.863C133.803 142.563 133.252 142.387 132.751 142.312C131.774 142.161 130.547 142.537 129.92 143.34C129.394 143.991 129.87 145.345 130.847 144.944C131.398 144.719 131.849 144.443 132.45 144.393C133.127 144.342 133.578 144.618 134.154 144.944C134.379 145.069 134.73 145.12 134.93 144.944C135.006 144.869 135.056 144.844 135.106 144.794Z" fill="#41446C"/>
<path d="M135.434 149.281C133.279 148.328 128.219 151.587 131.576 153.141C134.958 154.671 137.588 150.233 135.434 149.281Z" fill="#E2907F"/>
<path d="M121.728 147.527C121.728 146.699 120.426 146.699 120.426 147.527" stroke="#000920" stroke-width="1.1263" stroke-miterlimit="10" stroke-linecap="round" stroke-linejoin="round"/>
<path d="M118.221 144.97C118.948 145.271 119.399 144.719 120.075 144.518C120.977 144.243 121.828 144.719 122.655 144.995C122.981 145.095 123.357 144.97 123.582 144.744C123.707 144.619 123.757 144.468 123.832 144.318C123.958 144.017 123.807 143.591 123.582 143.39C121.979 141.836 119.298 142.212 117.996 143.942C117.82 144.167 117.896 144.493 117.996 144.719C118.071 144.794 118.121 144.92 118.221 144.97Z" fill="#41446C"/>
<path d="M118.123 149.281C120.277 148.328 125.337 151.587 121.981 153.141C118.624 154.671 115.994 150.233 118.123 149.281Z" fill="#E2907F"/>
<path d="M115.294 134.089L117.824 138.05C118.3 142.287 115.645 142.863 116.747 147.551C117.098 149.055 115.92 149.256 115.595 148.679C115.044 147.702 115.67 153.643 116.096 153.192C116.396 154.245 117.549 157.378 117.549 157.378C113.891 156.952 111.938 149.557 111.938 140.632C111.937 135.493 115.294 134.089 115.294 134.089Z" fill="#474A74"/>
<path d="M138.641 131.532L134.358 136.697C133.882 140.933 138.641 140.507 137.138 147.451C136.813 148.956 138.015 149.206 138.316 148.655C138.867 147.677 138.241 153.618 137.815 153.167C137.514 154.22 136.362 157.354 136.362 157.354C140.019 156.928 141.973 149.532 141.973 140.607C141.948 135.493 138.641 131.532 138.641 131.532Z" fill="#474A74"/>
<path d="M116.697 149.181C116.121 146.824 112.488 144.693 112.012 148.403C111.637 151.462 115.144 157.779 116.722 152.013L116.697 149.181Z" fill="#E39583"/>
<path d="M137.189 149.181C137.765 146.824 141.397 144.693 141.873 148.403C142.249 151.462 138.742 157.779 137.164 152.013L137.189 149.181Z" fill="#E39583"/>
<path d="M134.357 136.721C134.357 136.721 130.223 141.084 123.635 141.084C118.801 141.084 115.068 141.259 112.638 137.072C107.904 129 115.519 119.599 121.356 122.557C123.134 123.46 124.086 125.114 123.936 126.267C123.936 126.267 126.19 126.543 129.823 125.34C137.162 122.908 138.841 129.727 138.665 131.557L134.357 136.721Z" fill="#555889"/>
<path d="M156.691 263.041C156.7 264.121 156.692 264.829 156.652 265.062C156.376 266.502 156.278 268.114 155.403 269.745C154.395 271.647 153.828 273.37 153.813 275.516C153.81 276.302 154 277.823 154.508 277.94C155.426 278.133 155.494 277.374 155.516 276.038C155.531 275.679 155.89 274.638 155.856 273.894C156.516 276.034 155.4 279.986 156.379 282.511C156.973 284.028 157.766 284.841 159.365 284.051C161.334 283.11 160.502 281.473 161.255 279.81C161.576 279.137 162.696 278.435 162.708 276.019C162.706 274.692 162.558 273.073 162.217 271.777C161.812 270.128 161.166 267.954 161.039 266.652C161.003 266.233 160.963 266.466 161.365 262.888L156.691 263.041Z" fill="#E39583"/>
<path d="M154.847 264.745C154.816 261.561 152.827 227.349 152.836 226.776C152.871 218.663 163.494 221.601 163.738 228.544C163.838 231.699 163.168 264.508 163.061 265.635C160.921 265.698 156.821 265.535 154.847 264.745Z" fill="#774644"/>
<path d="M99.3509 264.112C99.4055 265.183 99.4859 265.907 99.5453 266.131C99.9151 267.54 100.157 269.135 101.15 270.698C102.3 272.521 102.986 274.177 103.171 276.342C103.229 277.142 103.167 278.65 102.657 278.817C101.771 279.09 101.629 278.324 101.508 276.994C101.478 276.639 101.02 275.625 101.009 274.888C100.513 277.072 101.933 280.935 101.133 283.517C100.666 285.082 99.9248 285.942 98.2727 285.294C96.2334 284.503 96.9449 282.802 96.0564 281.219C95.7038 280.582 94.524 279.955 94.3139 277.561C94.2074 276.21 94.2506 274.598 94.4771 273.294C94.7641 271.636 95.2328 269.404 95.258 268.084C95.2708 267.667 95.3096 267.876 94.6421 264.377L99.3509 264.112Z" fill="#E39583"/>
<path d="M101.864 263.709C101.636 260.543 100.991 226.289 100.937 225.705C100.263 217.611 89.8974 221.382 90.2116 228.317C90.3485 231.482 93.5598 264.122 93.7526 265.257C95.8947 265.146 99.9672 264.658 101.864 263.709Z" fill="#774644"/>
<path d="M296.859 407.479C296.859 407.479 304.7 413.797 307.004 415.176C309.234 416.504 311.012 417.808 311.163 418.435C311.563 420.29 308.532 420.44 307.104 420.265C303.472 419.864 300.141 418.259 296.709 417.482C294.955 417.081 291.098 416.555 289.97 414.975C288.768 413.271 289.244 409.836 290.296 408.181C294.254 410.463 296.859 407.479 296.859 407.479Z" fill="#001326"/>
<path d="M266.324 407.479C266.324 407.479 258.483 413.797 256.179 415.176C253.949 416.504 252.171 417.808 252.021 418.435C251.62 420.29 254.651 420.44 256.079 420.265C259.711 419.864 263.043 418.259 266.474 417.482C268.228 417.081 272.086 416.555 273.213 414.975C274.415 413.271 273.939 409.836 272.887 408.181C268.929 410.463 266.324 407.479 266.324 407.479Z" fill="#001326"/>
<path d="M304.451 330.842C303.449 336.734 299.592 338.839 295.058 339.115C290.524 339.391 287.242 336.683 286.691 332.071C286.741 329.814 279.777 273.483 279.777 273.483V250.52H304.777C304.777 250.52 306.33 264.609 306.33 278.673C306.305 300.433 304.802 327.483 304.451 330.842Z" fill="#152234"/>
<path d="M304.448 330.842C303.472 338.088 302.419 409.26 302.419 409.26C300.24 409.661 291.347 410.162 289.469 407.931C289.469 407.931 286.613 368.346 285.811 356.539C285.01 344.706 287.264 340.269 286.663 332.071C286.964 327.107 304.448 330.842 304.448 330.842Z" fill="#152234"/>
<path d="M259.433 330.842C260.435 336.734 264.293 338.839 268.827 339.115C273.361 339.391 276.643 336.683 277.194 332.071C277.144 329.814 284.108 273.483 284.108 273.483V250.52H259.108C259.108 250.52 257.555 264.609 257.555 278.673C257.58 300.433 259.083 327.483 259.433 330.842Z" fill="#152234"/>
<path d="M259.434 330.842C260.411 338.088 260.26 409.26 260.26 409.26C262.44 409.661 272.51 410.162 274.414 407.931C274.414 407.931 277.269 368.346 278.071 356.539C278.872 344.706 276.643 340.269 277.219 332.071C276.919 327.107 259.434 330.842 259.434 330.842Z" fill="#152234"/>
<path d="M276.243 166.336H287.34C286.939 167.314 286.714 177.166 290.046 181.653C290.046 181.653 290.922 194.088 281.579 194.088C272.235 194.088 273.112 181.653 273.112 181.653C276.769 177.116 276.393 167.539 276.243 166.336Z" fill="#E8A791"/>
<path d="M301.568 183.259C299.689 182.582 293.852 182.832 289.444 180.651C289.444 180.651 287.114 185.54 281.102 185.941C275.09 185.515 273.812 180.651 273.812 180.651C269.404 182.832 263.843 182.582 261.939 183.259C261.388 183.459 260.561 189.626 259.659 198.576C260.16 204.392 259.083 210.133 258.808 215.974C258.482 223.169 258.833 230.364 258.582 237.559C258.206 247.762 256.728 257.865 255.426 267.993C266.874 261.851 271.909 276.667 281.102 276.993C290.471 276.667 303.497 275.088 308.181 271.328C309.158 270.5 303.572 183.986 301.568 183.259Z" fill="#AE4B2B"/>
<path d="M261.538 250.57C261.212 248.84 262.79 249.016 263.066 246.659C263.216 245.481 261.212 245.882 260.411 245.03C259.509 244.102 259.183 238.261 259.81 235.052C261.738 224.949 264.168 216.45 265.02 206.122C265.396 201.384 265.822 196.069 264.744 191.406C264.093 188.598 262.866 185.941 262.69 183.083C262.415 183.133 262.139 183.208 261.939 183.284C261.388 183.484 260.561 189.651 259.659 198.601C260.16 204.417 259.083 210.158 258.808 215.999C258.482 223.194 258.833 230.389 258.582 237.584C258.206 247.787 256.728 257.89 255.426 267.993C257.605 266.715 260.937 265.06 266.172 268.094C265.12 265.211 262.49 255.734 261.538 250.57Z" fill="#963D20"/>
<path d="M264.355 274.112C264.409 275.183 264.49 275.907 264.549 276.131C264.919 277.54 265.161 279.135 266.154 280.698C267.303 282.521 267.989 284.177 268.175 286.342C268.233 287.142 268.171 288.65 267.661 288.817C266.775 289.09 266.632 288.324 266.512 286.994C266.482 286.639 266.023 285.625 266.013 284.888C265.517 287.072 266.937 290.935 266.137 293.517C265.67 295.082 264.929 295.942 263.277 295.294C261.237 294.503 261.949 292.802 261.06 291.219C260.708 290.582 259.528 289.955 259.318 287.561C259.211 286.21 259.254 284.598 259.481 283.294C259.768 281.636 260.237 279.404 260.262 278.084C260.275 277.667 260.313 277.876 259.646 274.377L264.355 274.112Z" fill="#E39583"/>
<path d="M246.134 228.635C246.209 228.259 249.766 206.248 250.793 199.153C251.82 192.058 255.503 183.911 261.966 183.259C261.966 183.259 265.197 185.515 264.421 192.585C263.744 198.777 258.183 227.03 255.979 233.623C255.503 235.027 244.681 235.303 246.134 228.635Z" fill="#AE4B2B"/>
<path d="M287.465 174.208C287.114 174.208 279.549 172.578 275.266 177.166C276.493 172.553 276.318 167.038 276.243 166.336H287.34C287.214 166.662 286.763 171.199 287.465 174.208Z" fill="#C98B76"/>
<path d="M265.802 140.891C265.802 140.891 265.15 145.328 266.002 151.119C266.578 154.905 266.778 159.342 267.53 163.103C269.434 172.579 272.164 173.03 278.151 172.303C290.551 170.799 289.123 159.794 289.123 159.794C289.123 159.794 290.877 162.351 293.006 159.718C293.908 158.615 295.11 154.905 293.356 147.71C290.275 135.2 265.802 140.891 265.802 140.891Z" fill="#E5A695"/>
<path d="M298.516 144.451C294.082 143.222 296.762 140.816 293.355 136.93C290.65 133.846 285.164 136.855 279.578 129.209C275.946 124.245 262.619 127.579 266.352 139.913L267.379 143.147C273.215 141.217 273.942 143.348 279.052 146.582C285.79 150.843 292.729 149.866 298.516 144.451Z" fill="#774644"/>
<path d="M288.096 149.214C289.649 151.094 287.269 151.922 288.547 154.328C288.697 154.604 289.048 155.858 289.123 156.133C289.574 155.657 290.125 155.256 290.701 155.256C292.179 155.256 293.381 156.459 293.381 157.938C293.381 159.418 292.179 160.621 290.701 160.621C290.15 160.621 289.599 160.245 289.148 159.794C288.872 161.373 288.346 164.457 287.469 167.139C287.469 167.139 293.381 165.936 295.135 152.323C295.31 150.919 295.31 148.813 295.285 146.958C292.98 148.362 290.551 149.139 288.096 149.214Z" fill="#915A58"/>
<path d="M266.375 139.913C266.375 139.913 264.722 140.089 264.722 143.398C264.722 147.233 265.849 149.79 265.849 149.79L267.402 143.147L266.375 139.913Z" fill="#8D5755"/>
<path d="M277.875 162.125C273.917 163.153 271.111 162.727 269.734 162.777C267.955 162.852 268.055 168.042 270.235 171.276C271.838 173.657 277.073 174.309 282.309 171.276C282.785 171 283.937 169.195 282.66 163.905C282.209 162.075 279.904 161.599 277.875 162.125Z" fill="#774644"/>
<path d="M289.596 158.515C289.596 158.515 289.822 158.314 290.398 157.562C290.999 156.81 291.901 157.512 291.425 158.314C290.999 159.016 289.596 158.515 289.596 158.515Z" fill="#C98B76"/>
<path d="M268.928 155.256C268.928 154.378 270.281 154.378 270.281 155.256" stroke="#430F00" stroke-width="1.1263" stroke-miterlimit="10" stroke-linecap="round" stroke-linejoin="round"/>
<path d="M270.41 152.473C269.282 152.122 268.506 152.147 267.429 152.624C266.752 152.924 265.625 152.423 266.001 151.52C266.852 149.44 270.084 149.715 271.286 151.32C271.737 151.871 271.036 152.674 270.41 152.473Z" fill="#353F58"/>
<path d="M278.522 155.256C278.522 154.378 279.875 154.378 279.875 155.256" stroke="#430F00" stroke-width="1.1263" stroke-miterlimit="10" stroke-linecap="round" stroke-linejoin="round"/>
<path d="M276.646 150.844C277.999 149.415 282.458 149.339 282.758 151.771C282.808 152.248 282.307 152.724 281.856 152.674C281.13 152.598 280.504 152.172 279.777 152.072C278.951 151.947 278.224 151.897 277.423 152.147C276.621 152.398 276.145 151.395 276.646 150.844Z" fill="#353F58"/>
<path d="M283.158 156.91C281.079 155.782 276.194 159.568 279.426 161.373C282.682 163.178 285.237 158.038 283.158 156.91Z" fill="#E29282"/>
<path d="M266.675 156.886C266.85 158.515 267.051 160.17 267.351 161.749C267.727 161.724 268.303 161.599 268.679 161.373C271.134 160.044 268.779 157.563 266.675 156.886Z" fill="#E29282"/>
<path d="M271.084 152.298C271.685 152.925 272.312 153.827 272.387 154.705C272.387 154.755 272.312 154.755 272.312 154.705C272.136 154.253 271.961 153.827 271.735 153.401C271.535 153.025 271.285 152.674 271.084 152.298Z" fill="#C98B76"/>
<path d="M272.737 155.983C272.938 157.186 272.812 158.289 272.537 159.468C272.412 159.969 272.261 160.496 272.161 160.997C271.835 162.501 273.789 162.426 274.691 162.075C274.716 162.05 274.741 162.125 274.716 162.125C274.09 162.401 272.161 162.777 271.886 161.749C271.735 161.172 272.161 160.245 272.286 159.718C272.637 158.49 272.812 157.237 272.687 155.958C272.687 155.958 272.737 155.958 272.737 155.983Z" fill="#C98B76"/>
<path d="M274.718 169.42C275.119 169.044 275.795 168.718 276.296 169.095C276.371 169.145 276.346 169.27 276.246 169.295C275.745 169.32 275.319 169.37 274.868 169.621C274.743 169.671 274.593 169.521 274.718 169.42Z" fill="#ADA9A7"/>
<path d="M271.534 163.905C273.863 164.256 277.871 163.328 277.871 163.328C278.172 166.587 273.939 168.242 273.212 166.487C272.461 164.607 271.534 163.905 271.534 163.905Z" fill="#EFEEEF"/>
<path d="M258.425 282.525C256.371 280.168 246 238.578 246 235.168C246 227.146 256.17 225.416 256.947 232.235C257.573 237.7 263.886 274.051 264.512 274.979C263.51 278.538 260.404 281.873 258.425 282.525Z" fill="#AE4B2B"/>
<path d="M156.605 89.6075C145.678 88.8475 143.875 84.3825 143.875 73.125C143.875 60.6562 146.081 56.5 160.5 56.5C174.916 56.5 177.125 60.6562 177.125 73.125C177.125 84.3825 175.32 88.8475 164.393 89.6075" stroke="#1B3661" stroke-width="4.75" stroke-linecap="round" stroke-linejoin="round"/>
<path fill-rule="evenodd" clip-rule="evenodd" d="M155.75 73.125C155.75 74.4384 154.688 75.5 153.375 75.5C152.062 75.5 151 74.4384 151 73.125C151 71.8116 152.062 70.75 153.375 70.75C154.688 70.75 155.75 71.8116 155.75 73.125Z" fill="#1B3661"/>
<path fill-rule="evenodd" clip-rule="evenodd" d="M162.875 73.125C162.875 74.4384 161.813 75.5 160.5 75.5C159.187 75.5 158.125 74.4384 158.125 73.125C158.125 71.8116 159.187 70.75 160.5 70.75C161.813 70.75 162.875 71.8116 162.875 73.125Z" fill="#1B3661"/>
<path fill-rule="evenodd" clip-rule="evenodd" d="M170 73.125C170 74.4384 168.938 75.5 167.625 75.5C166.312 75.5 165.25 74.4384 165.25 73.125C165.25 71.8116 166.312 70.75 167.625 70.75C168.938 70.75 170 71.8116 170 73.125Z" fill="#1B3661"/>
<path d="M156.574 89.6084H156.6L160.493 94.5009L164.388 89.6084H164.414" stroke="#1B3661" stroke-width="4.75" stroke-linecap="round" stroke-linejoin="round"/>
</g>
<defs>
<clipPath id="clip0_37681_37504">
<rect width="393" height="483" fill="white"/>
</clipPath>
</defs>
</svg>
