<svg width="418" height="483" viewBox="0 0 418 483" fill="none" xmlns="http://www.w3.org/2000/svg">
<g clip-path="url(#clip0_808_53845)">
<path d="M72.5735 391.005C61.4786 383.051 48.5488 373.291 44.267 361.567C34.4799 334.727 51.7549 309.028 56.3953 283.932C59.0108 269.767 49.0761 259.564 43.381 247.807C34.7752 230.03 33.6362 208.102 31.9066 188.836C29.8606 166.148 34.2268 134.745 51.8814 118.267C69.8103 101.505 93.4763 101.156 114.548 90.7624C144.099 76.1543 142.201 47.0015 160.889 24.7566C189.491 -9.27615 236.549 34.3263 273.946 17.912C311.196 1.5611 354.035 -36.0207 396.98 -15.1067C437.077 4.44468 447.75 52.0398 445.135 91.8398C442.14 137.407 419.402 182.467 434.736 228.383C446.084 262.352 485.422 278.45 481.541 317.14C479.664 335.773 466.481 349.906 455.955 364.894C447.624 376.777 434.441 394.079 419.992 399.18C405.396 404.345 383.924 404.124 368.378 404.124C331.55 404.124 294.68 404.155 257.831 404.155C224.779 404.155 191.726 404.155 158.674 404.187C132.118 404.187 102.061 412.489 78.6692 395.378C76.7709 394.015 74.7038 392.557 72.5735 391.005Z" fill="#FFE9E2" fill-opacity="0.7"/>
<path d="M234.315 408.818C229.588 418.913 211.085 422.538 199.725 424.632C181.382 428.015 161.24 427.908 143.058 424.417C139.003 425.035 134.33 424.578 130.517 424.337C122.46 423.827 114.457 422.806 106.588 421.491C99.122 420.256 91.6292 418.672 84.6467 416.229C79.732 414.51 75.4351 412.336 73.6894 408.04C69.3925 397.462 88.7556 394.777 97.1347 393.971C110.052 392.71 123.292 393.112 136.21 393.864C145.637 394.401 154.956 392.441 164.087 390.615C175.662 388.28 187.371 385.756 199.349 385.971C210.386 386.185 220.726 389.541 228.863 395.448C233.348 398.724 236.652 403.825 234.315 408.818Z" fill="#D8D5D7"/>
<path d="M217.637 202.356C214.28 202.087 178.347 197.416 177.756 197.389C169.189 196.825 171.498 208.236 178.803 209.014C182.133 209.363 216.777 211.135 217.986 211.081C218.201 208.826 218.335 204.504 217.637 202.356Z" fill="#3870C9"/>
<path d="M183.126 199.107C182.938 198.731 173.807 176.688 170.987 169.547C168.14 162.405 162.313 154.834 155.411 155.747C155.411 155.747 152.591 158.888 155.142 166.083C157.371 172.366 170.154 200.422 174.102 206.758C174.908 208.074 186.268 205.711 183.126 199.107Z" fill="#3870C9"/>
<path d="M152.216 395.796C152.216 395.796 160.621 402.562 163.092 404.038C165.482 405.461 167.389 406.857 167.55 407.529C167.98 409.515 164.73 409.676 163.2 409.489C159.305 409.059 155.734 407.341 152.054 406.508C150.174 406.079 146.039 405.515 144.83 403.824C143.541 401.998 144.051 398.32 145.179 396.548C149.422 398.964 152.216 395.796 152.216 395.796Z" fill="#001326"/>
<path d="M119.452 395.796C119.452 395.796 111.046 402.562 108.575 404.038C106.185 405.461 104.278 406.857 104.117 407.529C103.687 409.515 106.937 409.676 108.467 409.489C112.362 409.059 115.933 407.341 119.613 406.508C121.493 406.079 125.628 405.515 126.837 403.824C128.126 401.998 127.616 398.32 126.488 396.548C122.245 398.964 119.452 395.796 119.452 395.796Z" fill="#001326"/>
<path d="M160.325 313.722C159.251 320.031 155.115 322.286 150.254 322.581C145.393 322.877 141.875 319.977 141.285 315.037C141.338 312.621 133.872 252.293 133.872 252.293V227.673H160.675C160.675 227.673 162.34 242.762 162.34 257.823C162.34 281.128 160.728 310.124 160.325 313.722Z" fill="#152234"/>
<path d="M160.326 313.721C159.279 321.48 158.151 397.702 158.151 397.702C155.814 398.132 146.28 398.669 144.266 396.279C144.266 396.279 141.205 353.886 140.345 341.241C139.486 328.568 141.903 323.816 141.258 315.037C141.581 309.721 160.326 313.721 160.326 313.721Z" fill="#152234"/>
<path d="M112.094 313.722C113.168 320.031 117.304 322.286 122.165 322.581C127.026 322.877 130.544 319.977 131.135 315.037C131.081 312.621 138.547 252.293 138.547 252.293V227.673H111.745C111.745 227.673 110.08 242.762 110.08 257.823C110.08 281.128 111.691 310.124 112.094 313.722Z" fill="#152234"/>
<path d="M112.093 313.721C113.14 321.48 112.979 397.702 112.979 397.702C115.316 398.132 126.112 398.669 128.153 396.279C128.153 396.279 131.214 353.886 132.074 341.241C132.933 328.568 130.543 323.816 131.161 315.037C130.838 309.721 112.093 313.721 112.093 313.721Z" fill="#152234"/>
<path d="M130.114 137.517H142.011C141.581 138.564 141.34 149.116 144.911 153.922C144.911 153.922 145.851 167.238 135.834 167.238C125.817 167.238 126.757 153.922 126.757 153.922C130.651 149.062 130.248 138.833 130.114 137.517Z" fill="#E8A791"/>
<path d="M157.237 155.639C155.222 154.914 148.965 155.183 144.238 152.847C144.238 152.847 141.741 158.083 135.295 158.512C128.85 158.056 127.48 152.847 127.48 152.847C122.754 155.183 116.791 154.914 114.75 155.639C114.16 155.854 113.273 162.459 112.307 172.044C112.844 178.272 111.689 184.421 111.393 190.676C111.044 198.382 111.42 206.087 111.152 213.793C110.749 224.72 109.164 235.54 107.768 246.386C120.041 239.809 125.439 255.676 135.295 256.025C145.339 255.676 159.305 253.984 164.327 249.957C165.401 249.071 159.412 156.418 157.237 155.639Z" fill="#3870C9"/>
<path d="M114.321 227.753C113.972 225.901 115.664 226.089 115.959 223.565C116.12 222.303 113.972 222.733 113.112 221.82C112.145 220.826 111.796 214.571 112.468 211.134C114.536 200.314 117.141 191.213 118.054 180.151C118.457 175.077 118.913 169.385 117.758 164.391C117.06 161.384 115.744 158.538 115.556 155.478C115.261 155.531 114.965 155.612 114.75 155.693C114.16 155.907 113.273 162.512 112.307 172.097C112.844 178.326 111.689 184.474 111.393 190.73C111.044 198.435 111.42 206.14 111.152 213.846C110.749 224.773 109.164 235.593 107.768 246.413C110.104 245.044 113.676 243.272 119.289 246.52C118.188 243.406 115.368 233.257 114.321 227.753Z" fill="#255299"/>
<path d="M97.8054 204.235C97.8859 203.832 101.699 180.259 102.801 172.661C103.902 165.063 107.85 156.337 114.778 155.639C114.778 155.639 118.243 158.056 117.41 165.627C116.685 172.258 110.723 202.516 108.36 209.578C107.849 211.081 96.2746 211.403 97.8054 204.235Z" fill="#3870C9"/>
<path d="M142.144 145.948C141.768 145.948 133.658 144.203 129.066 149.116C130.381 144.176 130.193 138.269 130.113 137.517H142.01C141.876 137.866 141.366 142.726 142.144 145.948Z" fill="#CE9683"/>
<path d="M152.806 110.266C152.806 110.266 153.505 115.018 152.592 121.22C151.974 125.274 151.759 130.027 150.953 134.054C148.912 144.202 145.985 144.686 139.566 143.907C126.273 142.296 127.803 130.51 127.803 130.51C127.803 130.51 125.924 133.248 123.641 130.429C122.674 129.248 121.385 125.274 123.265 117.569C126.568 104.172 152.806 110.266 152.806 110.266Z" fill="#E5A695"/>
<path d="M117.732 114.078C122.486 112.763 119.612 110.185 123.265 106.024C126.165 102.722 132.046 105.943 138.035 97.7546C141.929 92.4387 156.217 96.0095 152.215 109.219L151.114 112.682C144.857 110.615 144.078 112.897 138.599 116.36C131.402 120.925 123.963 119.904 117.732 114.078Z" fill="#222D3F"/>
<path d="M128.931 119.206C127.266 121.22 129.818 122.106 128.448 124.683C128.287 124.979 127.911 126.321 127.83 126.616C127.347 126.106 126.756 125.677 126.138 125.677C124.554 125.677 123.265 126.965 123.265 128.549C123.265 130.133 124.554 131.422 126.138 131.422C126.729 131.422 127.32 131.019 127.804 130.536C128.099 132.228 128.663 135.53 129.603 138.403C129.603 138.403 123.265 137.114 121.385 122.535C121.197 121.032 121.197 118.777 121.224 116.79C123.695 118.266 126.273 119.099 128.931 119.206Z" fill="#001829"/>
<path d="M152.214 109.219C152.214 109.219 153.987 109.407 153.987 112.951C153.987 117.058 152.778 119.797 152.778 119.797L151.113 112.682L152.214 109.219Z" fill="#001829"/>
<path d="M139.888 133.033C144.131 134.134 147.139 133.678 148.616 133.731C150.523 133.812 150.415 139.369 148.079 142.833C146.36 145.383 140.747 146.081 135.134 142.833C134.624 142.537 133.389 140.604 134.758 134.939C135.242 132.979 137.712 132.442 139.888 133.033Z" fill="#001829"/>
<path d="M127.319 129.14C127.319 129.14 127.077 128.926 126.46 128.12C125.815 127.315 124.848 128.067 125.359 128.926C125.788 129.704 127.319 129.14 127.319 129.14Z" fill="#CE9683"/>
<path d="M149.477 125.65C149.477 124.71 148.026 124.71 148.026 125.65" stroke="#430F00" stroke-width="1.1263" stroke-miterlimit="10" stroke-linecap="round" stroke-linejoin="round"/>
<path d="M147.864 122.67C149.073 122.294 149.905 122.321 151.06 122.831C151.785 123.153 152.993 122.616 152.591 121.65C151.678 119.421 148.213 119.717 146.924 121.435C146.467 122.026 147.193 122.885 147.864 122.67Z" fill="#353F58"/>
<path d="M139.164 125.65C139.164 124.71 137.714 124.71 137.714 125.65" stroke="#430F00" stroke-width="1.1263" stroke-miterlimit="10" stroke-linecap="round" stroke-linejoin="round"/>
<path d="M141.204 120.952C139.754 119.421 134.973 119.341 134.651 121.945C134.597 122.455 135.135 122.965 135.618 122.912C136.397 122.831 137.068 122.375 137.847 122.267C138.733 122.133 139.512 122.079 140.371 122.348C141.204 122.616 141.741 121.516 141.204 120.952Z" fill="#353F58"/>
<path d="M134.195 127.422C136.424 126.214 141.661 130.268 138.196 132.201C134.705 134.134 131.992 128.63 134.195 127.422Z" fill="#E29282"/>
<path d="M151.866 127.422C151.678 129.168 151.463 130.939 151.141 132.631C150.738 132.604 150.121 132.47 149.718 132.228C147.113 130.778 149.61 128.12 151.866 127.422Z" fill="#E29282"/>
<path d="M147.139 122.482C146.494 123.153 145.823 124.12 145.742 125.059C145.742 125.113 145.823 125.113 145.823 125.059C146.011 124.576 146.199 124.12 146.441 123.663C146.682 123.287 146.951 122.912 147.139 122.482C147.166 122.482 147.139 122.482 147.139 122.482Z" fill="#FDC2B2"/>
<path d="M145.366 126.429C145.151 127.718 145.286 128.899 145.581 130.161C145.715 130.698 145.876 131.262 145.984 131.799C146.333 133.409 144.238 133.329 143.271 132.953C143.245 132.926 143.218 133.007 143.245 133.007C143.916 133.302 145.984 133.705 146.279 132.604C146.44 131.987 145.984 130.993 145.85 130.429C145.474 129.114 145.286 127.771 145.42 126.402C145.447 126.402 145.366 126.402 145.366 126.429Z" fill="#FDC2B2"/>
<path d="M143.273 140.82C142.843 140.417 142.118 140.068 141.581 140.471C141.5 140.525 141.527 140.659 141.635 140.686C142.172 140.713 142.628 140.766 143.112 141.035C143.219 141.115 143.38 140.928 143.273 140.82Z" fill="#ADA9A7"/>
<path d="M146.682 134.94C144.185 135.316 139.888 134.323 139.888 134.323C139.566 137.813 144.104 139.585 144.883 137.706C145.689 135.692 146.682 134.94 146.682 134.94Z" fill="#EFEEEF"/>
<path d="M218.335 202.946C218.335 202.946 220.752 202.355 222.068 205.281C223.357 208.208 224.968 211.779 218.174 215.323C211.379 218.867 208.13 212.718 212.91 209.121C217.637 205.469 219.06 205.255 218.335 202.946Z" fill="#E8A791"/>
<path d="M111.019 256.616C108.817 254.092 97.6981 209.551 97.6981 205.899C97.6981 197.308 108.602 195.455 109.434 202.758C110.079 208.611 116.846 247.541 117.518 248.534C116.444 252.347 113.14 255.918 111.019 256.616Z" fill="#3870C9"/>
<path d="M371.669 403.702C368.607 412.186 356.629 415.462 349.271 417.395C337.401 420.482 324.349 420.697 312.559 418.093C309.927 418.656 306.892 418.361 304.448 418.2C299.238 417.905 294.055 417.153 288.952 416.186C284.118 415.274 279.257 414.065 274.746 412.132C271.577 410.763 268.784 409.045 267.656 405.474C264.889 396.748 277.404 394.225 282.856 393.419C291.235 392.157 299.802 392.318 308.154 392.748C314.251 393.043 320.293 391.271 326.228 389.607C333.721 387.486 341.322 385.204 349.056 385.204C356.2 385.204 362.887 387.862 368.177 392.641C371.051 395.299 373.173 399.487 371.669 403.702Z" fill="#D8D5D7"/>
<path d="M321.046 318.834C320.079 307.799 304.583 306.188 303.079 317.867C304.449 323.827 312.13 395.62 312.13 395.62C311.888 397.821 309.229 400.318 304.691 402.976C304.691 402.976 302.247 405.258 302.488 405.768C303.079 407.111 303.697 407.03 304.932 406.896C308.048 406.547 308.397 405.231 311.351 404.56C312.855 404.211 315.836 403.889 316.803 402.52C317.984 400.855 316.937 399.002 316.776 396.989C316.749 396.962 321.798 343.937 321.046 318.834Z" fill="#E6A192"/>
<path d="M338.313 402.976C333.748 400.318 331.116 397.794 330.874 395.62C330.874 395.62 338.555 323.801 339.925 317.867C338.421 306.188 322.898 307.799 321.958 318.834C321.206 343.964 326.255 396.989 326.255 396.989C326.094 399.029 325.047 400.882 326.228 402.52C327.195 403.889 330.176 404.211 331.68 404.56C334.634 405.231 334.956 406.547 338.099 406.896C339.334 407.03 339.952 407.111 340.542 405.768C340.757 405.258 338.313 402.976 338.313 402.976Z" fill="#E6A192"/>
<path d="M341.51 230.798C339.335 208.246 343.255 192.942 335.172 182.928C335.172 182.928 325.987 180.297 323.463 178.095C321.61 176.484 321.717 178.525 320.643 177.129V177.075L320.616 177.102C320.616 177.102 320.616 177.075 320.589 177.075V177.129C319.515 178.525 319.622 176.484 317.769 178.095C315.245 180.27 306.06 182.928 306.06 182.928C297.976 192.942 302.139 208.246 299.964 230.798C299.964 230.798 299.212 236.114 320.643 236.114C342.074 236.114 341.51 230.798 341.51 230.798Z" fill="#E5A09C"/>
<path d="M301.791 196.97C303.752 198.017 310.251 198.151 314.172 191.976C316.267 188.674 318.147 185.425 322.9 185.103C327.627 184.781 330.339 180.431 332.058 175.813C332.918 173.558 339.068 156.187 336.194 148.67C333.804 142.387 326.472 136.91 319.57 138.494C309.848 140.696 307.297 148.24 304.772 156.724C303.188 162.04 301.039 167.168 299.133 172.35C296.796 178.713 292.768 184.781 298.273 191.896C299.294 193.211 300.341 196.191 301.791 196.97Z" fill="#3E456E"/>
<path d="M356.335 224.973C355.368 217.804 352.495 217.429 346.667 197.239C344.196 188.701 339.147 183.492 332.594 184.325C332.353 184.352 332.084 184.405 331.843 184.459C331.708 184.486 331.574 184.566 331.467 184.647C331.305 184.781 324.564 188.647 326.176 195.708C327.116 199.843 331.493 208.891 337.053 216.945C341.645 223.604 345.378 231.604 347.929 233.001C350.534 234.424 353.623 233.269 354.536 232.329C356.98 229.779 356.845 228.759 356.335 224.973Z" fill="#E6A192"/>
<path d="M334.125 215.388C329.452 208.112 325.558 199.44 324.725 195.762C323.114 188.701 332.54 182.982 332.782 182.955C339.335 182.123 344.625 187.224 347.096 195.762C348.009 198.957 350.856 206.877 350.856 206.877C345.27 214.234 335.575 214.771 334.125 215.388Z" fill="#AE4B2B"/>
<path d="M285.408 224.973C286.375 217.804 289.248 217.429 295.076 197.239C297.547 188.701 302.596 183.492 309.149 184.325C309.39 184.352 309.659 184.405 309.9 184.459C310.035 184.486 310.169 184.566 310.276 184.647C310.438 184.781 317.178 188.647 315.567 195.708C314.627 199.843 310.25 208.891 304.69 216.945C300.098 223.604 296.365 231.604 293.814 233.001C291.209 234.424 288.12 233.269 287.207 232.329C284.736 229.779 284.871 228.759 285.408 224.973Z" fill="#E6A192"/>
<path d="M307.592 215.388C312.265 208.112 316.159 199.44 316.992 195.762C318.603 188.701 309.176 182.982 308.935 182.955C302.382 182.123 297.091 187.224 294.62 195.762C293.707 198.957 290.861 206.877 290.861 206.877C296.474 214.234 306.142 214.771 307.592 215.388Z" fill="#AE4B2B"/>
<path d="M304.69 402.977C302.757 404.104 301.253 405.232 301.118 405.769C300.769 407.38 303.374 407.487 304.61 407.353C307.752 407.004 317.017 402.816 317.017 402.816C318.038 401.366 317.742 399.137 316.829 397.714C315.513 401.044 306.839 405.232 304.69 402.977Z" fill="#1E293B"/>
<path d="M338.314 402.977C340.247 404.104 341.751 405.232 341.885 405.769C342.235 407.38 339.63 407.487 338.394 407.353C335.252 407.004 325.987 402.816 325.987 402.816C324.939 401.366 325.262 399.137 326.175 397.714C327.491 401.044 336.165 405.232 338.314 402.977Z" fill="#1E293B"/>
<path d="M341.511 230.798C341.511 230.798 330.5 233.644 320.59 233.644C310.68 233.644 299.938 230.798 299.938 230.798L299.105 235.255C299.105 235.255 306.41 238.074 320.858 238.074C335.307 238.074 342.343 235.255 342.343 235.255L341.511 230.798Z" fill="#000616"/>
<path d="M327.303 167.678L325.611 166.712C323.919 166.9 322.173 167.088 320.508 167.356C318.843 167.114 317.098 166.926 315.406 166.712L313.687 167.678C314.734 168.725 315.486 171.813 315.916 174.659C316.238 176.887 312.21 180.539 312.022 180.968C312.022 180.968 308.235 190.338 320.508 190.338C332.781 190.338 328.726 181.022 328.726 181.022C328.538 180.565 324.751 177.021 325.047 174.9C325.477 172.001 326.229 168.752 327.303 167.678Z" fill="#E6A192"/>
<path d="M325.61 166.712C323.919 166.9 322.173 167.088 320.508 167.356L315.486 172.296C316.533 174.659 318.816 174.954 320.427 175.035C322.603 175.169 325.127 174.39 325.127 174.39C325.53 171.41 326.201 168.806 327.302 167.678L325.61 166.712Z" fill="#B37F73"/>
<path d="M335.172 182.929C335.172 182.929 331.923 181.989 328.754 180.781C325.236 187.251 315.541 186.258 312.022 180.942C308.988 182.069 306.034 182.929 306.034 182.929C305.067 189.372 296.473 199.091 301.414 210.878C301.414 210.878 286.939 304.981 284.146 322.593C317.206 336.823 353.085 324.983 356.845 322.593C353.246 303.531 339.577 210.878 339.577 210.878C345.888 199.118 335.28 188.969 335.172 182.929Z" fill="#AE4B2B"/>
<path d="M333.106 152.106C331.87 146.253 327.519 144.696 327.519 144.696C326.66 144.32 325.774 143.971 324.888 143.676L324.914 143.568C324.726 143.541 324.538 143.541 324.35 143.515C324.162 143.461 324.001 143.407 323.813 143.354L323.786 143.461C322.873 143.38 321.907 143.38 320.967 143.407C320.967 143.407 316.347 143.192 312.99 148.159C310.842 151.327 311.298 153.073 310.869 156.348C310.466 159.489 310.224 160.08 310.305 162.711C310.385 166.067 312.561 169.235 314.951 171.786C316.079 172.887 317.26 173.45 318.469 173.611C319.651 173.907 320.967 173.826 322.417 173.236C325.586 171.786 328.782 169.638 330.124 166.577C331.172 164.161 331.199 163.543 331.978 160.483C332.837 157.288 333.884 155.838 333.106 152.106Z" fill="#E6A192"/>
<path d="M316.536 165.342C318.631 166.094 322.632 166.738 322.632 166.738C322.632 166.738 321.746 169.262 319.06 168.752C316.375 168.242 316.536 165.342 316.536 165.342Z" fill="#EFEEEF"/>
<path d="M318.2 169.826C318.657 169.691 319.059 169.691 319.543 169.772C319.623 169.772 319.704 169.691 319.623 169.611C319.221 169.181 318.549 169.342 318.093 169.611C317.985 169.665 318.066 169.853 318.2 169.826Z" fill="#D5D0CE"/>
<path d="M325.29 157.476C325.934 157.637 326.525 157.207 327.197 157.422C327.814 157.61 328.325 158.147 328.996 158.013C329.184 157.986 329.291 157.744 329.238 157.557C329.023 156.858 328.002 156.402 327.331 156.295C326.606 156.16 325.478 156.375 325.129 157.073C325.048 157.234 325.102 157.449 325.29 157.476Z" fill="#4D5584"/>
<path d="M329.078 162.013C327.359 160.59 322.123 163.221 324.808 165.476C327.494 167.731 330.797 163.436 329.078 162.013Z" fill="#E18E86"/>
<path d="M317.798 155.704C317.771 154.952 316.831 154.361 316.186 154.146C315.515 153.932 314.172 153.985 313.769 154.603C313.689 154.737 313.715 154.952 313.823 155.032C314.36 155.462 315.112 155.167 315.756 155.193C316.482 155.247 316.858 155.891 317.529 155.945C317.663 155.972 317.798 155.838 317.798 155.704Z" fill="#4D5584"/>
<path d="M312.292 158.738C314.414 158.066 318.281 162.47 314.951 163.544C311.594 164.644 310.171 159.409 312.292 158.738Z" fill="#E18E86"/>
<path d="M318.63 156.079C318.952 157.019 319.462 157.878 319.677 158.871C319.677 158.925 319.758 158.898 319.758 158.871C319.812 157.905 319.14 156.858 318.63 156.079Z" fill="#B2ADA8"/>
<path d="M319.84 160.777C319.759 161.502 319.544 162.146 319.222 162.791C319.114 163.005 318.765 163.542 318.819 163.811C318.98 164.428 320.216 164.482 320.699 164.401C320.726 164.401 320.726 164.348 320.699 164.348C320.269 164.401 319.813 164.267 319.41 164.106C318.846 163.865 319.088 163.489 319.276 163.032C319.625 162.28 319.866 161.609 319.866 160.777C319.893 160.75 319.84 160.75 319.84 160.777Z" fill="#B2ADA8"/>
<path d="M315.943 158.093C315.943 158.093 315.863 157.422 315.165 157.288C314.466 157.153 314.225 157.744 314.225 157.744" stroke="#110E1E" stroke-width="1.1263" stroke-miterlimit="10" stroke-linecap="round" stroke-linejoin="round"/>
<path d="M325.746 160C325.746 160 326.068 159.409 326.767 159.544C327.465 159.678 327.465 160.322 327.465 160.322" stroke="#110E1E" stroke-width="1.1263" stroke-miterlimit="10" stroke-linecap="round" stroke-linejoin="round"/>
<path d="M332.057 175.813C346.13 151.435 337.831 140.669 329.828 137.313C323.732 134.762 315.03 136.024 310.519 140.696C303.805 147.703 305.631 152.375 302.865 154.952C293.438 163.758 301.844 170.121 296.634 177.156C294.083 180.619 290.645 194.231 300.421 196.674C313.446 199.95 313.016 184.378 310.787 179.411C308.263 173.773 312.56 171.786 313.741 167.383C315.218 161.96 310.68 160.375 314.332 155.65C316.346 153.073 319.542 151.865 322.174 150.066C325.504 147.784 328.109 147.542 329.533 152.106C329.828 153.046 330.741 161.798 330.687 161.798C331.896 162.201 330.177 166.336 329.935 166.98C327.76 172.35 332.245 170.793 332.057 175.813Z" fill="#3870C9"/>
<path d="M330.714 161.826C331.681 159.731 335.467 158.389 335.226 161.933C335.038 164.859 330.579 170.095 330.177 164.43L330.714 161.826Z" fill="#E5A09C"/>
<path d="M339.577 210.876H301.415C298.622 220.032 295.748 222.555 293.412 238.074C291.156 253.055 305.524 265.566 320.483 265.566C335.441 265.566 347.553 254.854 347.553 239.685C347.553 228.596 342.37 220.032 339.577 210.876Z" fill="#AE4B2B"/>
<path d="M320.509 264.52C302.972 264.52 295.748 251.23 295.748 251.23C299.964 263.124 309.444 267.634 320.509 267.634C331.52 267.634 341 263.177 345.216 251.364C345.216 251.364 338.046 264.52 320.509 264.52Z" fill="#9B4225"/>
<path d="M320.482 210.582C317.904 210.582 310.465 217.589 301.495 210.877C309.981 218.61 317.044 212.81 320.482 212.032C323.919 212.837 330.982 218.61 339.469 210.877C330.526 217.589 323.06 210.582 320.482 210.582Z" fill="#843B24"/>
<path d="M348.304 223.174C343.792 224.436 337.025 239.363 329.371 248.492C328.404 249.431 326.417 250.72 324.617 251.284C322.549 251.928 320.965 252.761 319.434 254.291C318.87 254.855 317.957 256.063 318.226 256.519C318.736 257.298 319.327 256.815 320.293 255.875C320.562 255.607 321.556 255.123 322.039 254.586C320.992 256.573 317.447 258.64 316.372 261.11C315.728 262.614 315.728 263.742 317.42 264.332C319.515 265.03 320.052 263.285 321.771 262.641C322.469 262.372 323.785 262.668 325.477 260.949C326.417 259.983 327.437 258.721 328.109 257.566C328.968 256.09 330.042 254.076 330.875 253.083C330.955 253.002 354.186 238.048 356.28 232.141C359.127 224.167 350.023 220.704 348.304 223.174Z" fill="#E6A192"/>
<path d="M290.94 220.65C295.586 220.059 307.698 231.094 318.306 236.49C319.569 236.974 321.905 237.376 323.758 237.188C325.907 236.974 327.706 237.108 329.72 237.913C330.472 238.209 331.788 238.96 331.681 239.497C331.519 240.41 330.767 240.195 329.532 239.712C329.183 239.578 328.082 239.524 327.41 239.202C329.156 240.625 333.238 241.108 335.199 242.988C336.38 244.115 336.837 245.162 335.494 246.344C333.856 247.82 332.674 246.397 330.848 246.505C330.123 246.532 329.022 247.31 326.793 246.397C325.557 245.887 324.107 245.109 323.033 244.33C321.663 243.31 319.891 241.887 318.736 241.269C318.629 241.216 291.37 236.625 287.127 232.007C281.379 225.805 288.389 219.066 290.94 220.65Z" fill="#E6A192"/>
<path fill-rule="evenodd" clip-rule="evenodd" d="M266.001 113.667C251.555 113.667 249.334 109.761 249.334 98.0422C249.334 86.3235 251.555 82.4172 266.001 82.4172C280.447 82.4172 282.668 86.3235 282.668 98.0422C282.668 109.761 280.447 113.667 266.001 113.667Z" stroke="#1B3661" stroke-width="4.16667" stroke-linecap="round" stroke-linejoin="round"/>
<path d="M251.416 92.8328H280.582" stroke="#1B3661" stroke-width="4.16667" stroke-linecap="round" stroke-linejoin="round"/>
<path d="M259.75 78.25V86.5833" stroke="#1B3661" stroke-width="4.16667" stroke-linecap="round" stroke-linejoin="round"/>
<path d="M272.25 78.25V86.5833" stroke="#1B3661" stroke-width="4.16667" stroke-linecap="round" stroke-linejoin="round"/>
<path fill-rule="evenodd" clip-rule="evenodd" d="M261.832 101.166C261.832 102.318 260.901 103.249 259.749 103.249C258.597 103.249 257.666 102.318 257.666 101.166C257.666 100.014 258.597 99.0828 259.749 99.0828C260.901 99.0828 261.832 100.014 261.832 101.166Z" fill="#1B3661"/>
<path fill-rule="evenodd" clip-rule="evenodd" d="M268.082 101.166C268.082 102.318 267.151 103.249 265.999 103.249C264.847 103.249 263.916 102.318 263.916 101.166C263.916 100.014 264.847 99.0828 265.999 99.0828C267.151 99.0828 268.082 100.014 268.082 101.166Z" fill="#1B3661"/>
<path fill-rule="evenodd" clip-rule="evenodd" d="M274.332 101.166C274.332 102.318 273.401 103.249 272.249 103.249C271.097 103.249 270.166 102.318 270.166 101.166C270.166 100.014 271.097 99.0828 272.249 99.0828C273.401 99.0828 274.332 100.014 274.332 101.166Z" fill="#1B3661"/>
<path d="M211.951 389.44C211.951 389.44 220.346 396.193 222.815 397.674C225.206 399.077 227.103 400.479 227.259 401.155C227.701 403.155 224.452 403.284 222.919 403.129C219.02 402.713 215.459 400.999 211.769 400.142C209.898 399.726 205.765 399.154 204.57 397.466C203.27 395.648 203.79 391.959 204.907 390.219C209.17 392.609 211.951 389.44 211.951 389.44Z" fill="#001326"/>
<path d="M179.228 389.44C179.228 389.44 170.834 396.193 168.364 397.674C165.973 399.077 164.076 400.479 163.92 401.155C163.478 403.155 166.753 403.284 168.26 403.129C172.159 402.713 175.72 400.999 179.41 400.142C181.282 399.726 185.414 399.154 186.61 397.466C187.909 395.648 187.389 391.959 186.272 390.219C182.035 392.609 179.228 389.44 179.228 389.44Z" fill="#001326"/>
<path d="M223.958 202.785C228.715 199.642 231.106 205.123 232.795 208.499C235.082 213.071 244.854 231.383 245.894 232.448C246.934 233.513 247.921 234.838 249.585 235.747C251.508 236.786 252.911 237.929 254.159 239.773C254.627 240.448 255.329 241.851 254.965 242.266C254.341 242.968 253.821 242.344 253.041 241.228C252.833 240.916 251.95 240.24 251.534 239.565C252.21 241.799 255.355 244.552 256.004 247.28C256.394 248.942 256.186 250.085 254.419 250.371C252.262 250.708 251.196 249.228 249.611 248.267C248.987 247.877 247.635 247.929 246.284 245.877C245.53 244.734 244.725 243.254 244.283 241.955C243.685 240.292 242.957 238.033 242.333 236.838C241.71 235.643 225.492 218.136 223.335 213.902C220.762 208.889 222.035 204.058 223.958 202.785Z" fill="#E49B8E"/>
<path d="M211.639 162.629C219.722 161.174 222.061 176.058 223.829 181.253C225.492 186.214 229.261 200.63 231.184 205.461C232.379 208.448 232.042 210.63 229.806 212.059C227.597 213.487 223.647 214.5 222.711 212.604C219.462 206.007 209.508 178.915 207.923 172.733C206.207 166.032 211.639 162.629 211.639 162.629Z" fill="#E49B8E"/>
<path d="M214.367 198.604C220.501 198.214 227.414 196.006 229.935 192.941C229.519 191.591 226.894 184.967 226.115 182.162C224.685 177.071 220.241 161.356 211.898 161.252C211.898 161.252 205.712 165.148 206.986 171.72C207.74 175.382 211.846 190.993 214.367 198.604Z" fill="#CDC9D1"/>
<path d="M217.641 316.711C216.575 322.997 211.689 325.257 206.829 325.543C201.969 325.828 201.631 322.945 201.033 318.01C201.085 315.594 193.626 255.359 193.626 255.359V230.813H217.381C217.381 230.813 219.044 245.878 219.044 260.917C219.044 284.191 218.031 313.127 217.641 316.711Z" fill="#6674B5"/>
<path d="M208.753 311.829C212.288 311.387 217.642 316.712 217.642 316.712C216.602 324.453 217.798 331.57 217.642 344.583C217.46 359.545 215.017 391.338 215.017 391.338C212.678 391.779 206.05 392.325 204.023 389.909C204.023 389.909 200.956 356.817 200.098 344.168C199.241 331.518 201.632 326.764 201.008 318.011C201.346 312.712 205.998 312.167 208.753 311.829Z" fill="#6674B5"/>
<path d="M174.29 316.711C175.355 322.997 180.242 325.257 185.102 325.543C189.962 325.828 190.3 322.945 190.897 318.01C190.846 315.594 198.305 255.359 198.305 255.359V230.813H174.55C174.55 230.813 172.886 245.878 172.886 260.917C172.912 284.191 173.9 313.127 174.29 316.711Z" fill="#6674B5"/>
<path d="M183.178 311.829C179.644 311.387 174.29 316.712 174.29 316.712C175.329 324.453 174.134 331.57 174.29 344.583C174.472 359.545 176.915 391.338 176.915 391.338C179.254 391.779 185.881 392.325 187.909 389.909C187.909 389.909 190.976 356.817 191.833 344.168C192.691 331.518 190.3 326.764 190.924 318.011C190.586 312.712 185.933 312.167 183.178 311.829Z" fill="#6674B5"/>
<path d="M189.364 157.772C184.426 158.291 177.383 159.694 176.733 161.616C176.005 163.798 176.629 182.006 176.343 198.604C176.213 206.059 171.197 247.878 171.327 249.099C171.535 250.917 207.687 261.541 219.227 250.579C220.345 249.514 219.097 192.708 217.98 181.824C216.862 170.941 213.431 162.084 212.574 161.33C212.574 161.33 207.895 159.876 204.647 158.889C202.126 158.109 189.364 157.772 189.364 157.772Z" fill="#CDC9D1"/>
<path d="M190.559 142.499H202.931C200.488 155.408 204.646 158.889 204.646 158.889C204.646 158.889 205.686 161.278 199.084 161.278C192.483 161.278 189.364 157.772 189.364 157.772C190.273 157.772 192.898 150.395 190.559 142.499Z" fill="#E49B8E"/>
<path d="M178.63 163.071C170.443 162.422 169.585 177.461 168.338 182.812C167.168 187.929 164.829 202.63 163.4 207.644C162.516 210.735 163.062 212.864 165.401 214.085C167.74 215.306 171.768 215.904 172.522 213.929C175.095 207.046 182.32 179.123 183.308 172.785C184.348 165.928 178.63 163.071 178.63 163.071Z" fill="#E49B8E"/>
<path d="M179.618 197.538C173.484 197.772 166.181 196.473 163.348 193.668C163.608 192.291 165.791 185.2 166.285 182.343C167.195 177.122 170.08 161.07 178.344 160.135C178.344 160.135 184.894 163.408 184.27 170.057C183.932 173.771 181.359 189.694 179.618 197.538Z" fill="#CDC9D1"/>
<path d="M192.69 149.564C192.274 149.875 191.858 150.213 191.469 150.577C191.624 148.161 191.417 145.382 190.559 142.499H202.93C202.748 143.408 202.306 147.434 202.202 148.239C198.746 149.252 195.627 147.512 192.69 149.564Z" fill="#D28B7E"/>
<path d="M210.807 116.391C210.807 116.391 210.729 121.197 210.547 127.041C210.417 130.677 210.365 134.677 209.95 138.262C208.884 147.613 206.259 148.548 200.385 148.08C188.56 147.119 188.69 136.833 188.69 136.833C188.69 136.833 187.182 139.457 184.921 137.093C183.959 136.08 182.478 132.573 183.595 125.456C185.545 113.04 210.807 116.391 210.807 116.391Z" fill="#E5A695"/>
<path d="M188.146 135.614C188.146 135.614 187.912 135.432 187.288 134.757C186.664 134.082 185.833 134.835 186.353 135.588C186.794 136.237 188.146 135.614 188.146 135.614Z" fill="#D28B7E"/>
<path d="M207.301 131.485C208.159 131.485 208.159 130.16 207.301 130.16C206.444 130.16 206.47 131.485 207.301 131.485Z" fill="#000920"/>
<path d="M206.237 128.185C207.381 127.717 208.213 127.665 209.33 128.133C210.136 128.471 210.812 127.38 210.422 126.73C209.356 124.99 206.341 125.51 205.354 127.068C205.016 127.588 205.588 128.471 206.237 128.185Z" fill="#7A493B"/>
<path d="M197.972 132.263C198.83 132.263 198.83 130.938 197.972 130.938C197.115 130.938 197.115 132.263 197.972 132.263Z" fill="#000920"/>
<path d="M200.156 127.173C199.324 126.42 198.077 126.342 197.011 126.446C195.919 126.524 194.256 127.199 194.23 128.472C194.204 129.095 194.802 129.433 195.348 129.329C195.66 129.277 195.919 129.095 196.153 128.939C196.491 128.732 196.907 128.654 197.271 128.55C197.999 128.368 198.648 128.264 199.376 128.446C200.104 128.602 200.728 127.693 200.156 127.173Z" fill="#7A493B"/>
<path d="M194.254 133.537C196.178 132.29 201.246 135.563 198.231 137.563C195.216 139.589 192.331 134.81 194.254 133.537Z" fill="#E29282"/>
<path d="M210.368 132.16C210.342 133.771 210.238 135.381 210.082 136.94C209.718 136.94 209.094 136.862 208.704 136.68C206.209 135.589 208.392 132.992 210.368 132.16Z" fill="#E29282"/>
<path d="M205.611 128.057C205.065 128.706 204.546 129.641 204.546 130.499C204.546 130.55 204.624 130.55 204.624 130.499C204.779 130.031 204.909 129.563 205.117 129.096C205.273 128.784 205.481 128.447 205.611 128.057Z" fill="#FDCABD"/>
<path d="M204.311 131.771C204.233 132.966 204.415 134.005 204.805 135.122C204.961 135.616 205.143 136.083 205.298 136.577C205.766 138.057 203.817 138.109 202.933 137.849C202.881 137.849 202.881 137.901 202.907 137.901C203.427 138.083 205.636 138.317 205.636 137.278C205.636 136.655 205.298 135.953 205.065 135.382C204.623 134.213 204.337 133.018 204.363 131.745C204.363 131.745 204.311 131.745 204.311 131.771Z" fill="#FDCABD"/>
<path d="M203.373 143.671C202.931 143.333 202.281 143.125 201.814 143.515C201.736 143.567 201.814 143.697 201.892 143.671C202.359 143.671 202.801 143.671 203.243 143.878C203.399 143.956 203.503 143.774 203.373 143.671Z" fill="#D28B7E"/>
<path d="M206.366 139.25C204.13 139.769 200.154 139.198 200.154 139.198C200.128 142.393 204.39 143.64 204.936 141.873C205.508 140.003 206.366 139.25 206.366 139.25Z" fill="#EFEEEF"/>
<path d="M184.454 119.64C185.858 120.342 190.978 121.978 192.225 122.939C191.68 129.043 190.224 129.381 189.938 134.472C189.886 135.459 188.431 133.251 188.431 133.251C187.937 132.809 187.391 132.498 186.845 132.55C185.39 132.68 184.324 133.926 184.454 135.381C184.584 136.81 185.858 137.9 187.287 137.771C187.833 137.719 188.301 137.329 188.717 136.836C188.717 136.836 188.925 137.823 189.756 139.355C190.302 140.342 190.432 142.68 190.432 142.68C185.91 140.991 179.36 135.173 182.765 118.549C183.363 119.121 183.675 119.251 184.454 119.64Z" fill="#7A493B"/>
<path d="M182.062 114.055C181.932 113.198 181.932 112.366 182.374 111.639C183.31 110.133 184.921 110.73 186.143 109.821C187.728 108.652 188.144 106.548 190.275 106.055C191.548 105.769 192.666 106.99 193.758 106.548C195.291 105.925 195.759 104.21 197.734 104.782C198.488 104.99 199.008 105.639 199.709 105.899C200.437 106.159 201.217 105.925 201.919 105.743C202.646 105.535 203.4 105.249 204.05 104.886C204.674 104.522 205.193 104.029 205.947 104.003C207.714 103.925 208.26 105.587 209.456 106.522C210.079 107.016 210.677 106.808 211.327 107.068C212.003 107.327 212.237 107.769 212.523 108.366C212.99 109.405 213.64 110.159 214.264 111.12C214.55 111.587 214.914 112.237 214.758 112.86C214.602 113.509 213.848 113.691 213.484 114.211C211.821 116.574 216.681 118.315 213.952 120.575C213.016 121.354 212.081 121.354 211.665 122.704C210.755 125.64 207.896 124.704 205.869 123.64C204.44 122.886 203.166 123.25 201.841 124.029C200.151 125.016 199.605 123.691 198.358 122.756C197.006 121.743 194.849 122.938 193.524 123.536C192.666 123.925 191.756 123.795 190.873 123.38C189.885 122.938 188.923 122.211 187.962 121.639C186.766 120.912 185.519 120.289 184.271 119.639C183.673 119.328 182.998 119.146 182.686 118.497C182.426 117.977 182.348 117.094 182.348 116.548C182.426 115.769 182.192 114.886 182.062 114.055Z" fill="#9E5E4E"/>
<path d="M163.936 210.478C167.34 205.154 172.244 209.668 175.446 212.33C179.83 215.976 197.916 230.242 199.474 230.878C201.002 231.515 202.618 232.412 204.695 232.585C207.118 232.788 209.079 233.338 211.156 234.64C211.935 235.132 213.262 236.26 213.089 236.839C212.771 237.852 211.964 237.447 210.666 236.636C210.319 236.405 209.108 236.116 208.416 235.624C210.089 237.591 214.531 238.98 216.406 241.498C217.531 243.031 217.848 244.276 216.175 245.346C214.127 246.677 212.396 245.607 210.348 245.346C209.541 245.23 208.214 245.896 205.877 244.391C204.579 243.552 203.137 242.395 202.07 241.295C200.714 239.877 198.983 237.881 197.801 236.955C196.618 236.029 172.301 225.438 168.234 222.082C163.417 218.117 162.552 212.62 163.936 210.478Z" fill="#E49B8E"/>
</g>
<defs>
<clipPath id="clip0_808_53845">
<rect width="418" height="483" fill="white"/>
</clipPath>
</defs>
</svg>
