<svg width="395" height="350" viewBox="0 0 395 350" fill="none" xmlns="http://www.w3.org/2000/svg">
<path d="M36.0835 328.851C26.3619 322.505 15.0164 314.73 11.249 305.374C2.65329 283.954 17.8095 263.487 21.88 243.453C24.1751 232.148 15.4711 224.004 10.4696 214.626C2.91312 200.462 1.91714 182.94 0.40152 167.585C-1.3739 149.5 2.4368 124.463 17.9178 111.295C33.6369 97.9321 54.3792 97.6506 72.8697 89.3555C98.7868 77.7034 97.1196 54.4425 113.51 36.7262C138.583 9.58852 179.872 44.3715 212.675 31.2683C245.347 18.2301 282.913 -11.7664 320.565 4.93202C355.771 20.5259 365.124 58.471 362.829 90.2435C360.188 126.586 340.246 162.517 353.714 199.141C363.673 226.235 398.165 239.078 394.765 269.941C393.12 284.799 381.558 296.083 372.334 308.038C365.016 317.524 353.454 331.299 340.809 335.392C328.013 339.529 309.176 339.356 295.557 339.356C263.253 339.356 230.927 339.377 198.601 339.377C169.609 339.377 140.618 339.377 111.648 339.399C88.3506 339.399 62.0005 346.005 41.4964 332.382C39.7643 331.234 37.9672 330.064 36.0835 328.851Z" fill="#E6EDFF"/>
<path d="M265.342 281.318C264.881 276.956 263.427 272.764 261.98 268.617C257.221 255.028 252.473 241.436 247.735 227.842C246.483 224.26 245.198 220.613 242.914 217.589C240.629 214.564 237.144 212.189 233.348 212.215L235.509 299.917L240.934 312.468C248.247 311.453 254.88 307.637 259.433 301.825C263.987 296.014 266.105 288.661 265.342 281.318Z" fill="#AE4B2B"/>
<path d="M184.407 227.132L151.271 192.568C151.271 192.568 123.592 199.135 117.395 207.072C113.04 212.647 116.006 257.043 116.006 257.043C116.006 257.043 139.635 326.866 141.316 333.466L136.844 349.82H247.981L237.98 295.955L245.768 204.268L193.941 191.289C194.81 193.768 184.407 227.132 184.407 227.132Z" fill="#AE4B2B"/>
<g opacity="0.3">
<path opacity="0.3" d="M138.84 344.005C146.686 342.259 152.631 335.568 155.895 328.209C159.16 320.849 160.276 312.776 161.976 304.917C163.676 297.058 166.175 289.05 171.581 283.099C175.261 279.049 180.076 276.2 183.983 272.365C187.89 268.529 190.94 263.039 189.609 257.73L166.337 272.274C163.819 273.851 161.243 275.473 159.432 277.829C157.174 280.762 156.33 284.507 155.493 288.109C151.108 307.023 145.25 325.564 137.971 343.563" fill="black"/>
</g>
<path d="M150.435 262.498C150.435 262.498 139.5 280.02 138.462 281.889C137.423 283.758 123.276 302.481 123.276 302.481C123.276 302.481 118.733 317.252 125.774 323.488C132.816 329.725 141.35 330.77 143.037 330.77C144.724 330.77 153.641 312.677 153.641 312.677L164.881 280.669L150.435 262.498Z" fill="#94675A"/>
<path d="M117.396 207.072C117.396 207.072 110.179 214.211 106.363 230.286C103.891 240.67 102.041 277.972 102.041 277.972C102.041 277.972 99.484 306.118 100.094 312.595C100.704 319.072 107.006 336.906 110.419 341.942C115.228 349.041 137.339 346.919 140.986 340.747C142.933 337.405 150.844 324.887 150.441 318.981C150.039 313.075 131.718 291.14 131.718 291.14L117.396 207.072Z" fill="#AE4B2B"/>
<g opacity="0.3">
<path opacity="0.3" d="M221.86 241.506C221.762 259.314 224.8 275.83 228.882 293.164C229.991 297.876 232.951 304.657 237.318 306.708C241.686 308.759 244.275 309.304 248.513 307.175C253.315 304.742 258.682 298.479 258.682 295.689C256.022 298.473 253.289 301.302 249.863 303.048C246.436 304.794 242.075 305.28 238.83 303.301C234.288 300.582 233.269 294.553 232.535 289.296C230.329 273.468 228.862 257.373 223.352 242.375" fill="black"/>
</g>
<path d="M136.591 284.63C136.494 284.63 136.721 275.544 137.097 264.336C137.473 253.129 137.856 244.056 137.954 244.063C138.051 244.069 137.817 253.148 137.441 264.349C137.065 275.551 136.682 284.63 136.591 284.63Z" fill="#263238"/>
<path d="M131.711 291.139C131.512 291.31 131.294 291.458 131.062 291.58L129.245 292.664C127.707 293.572 125.578 294.825 123.294 296.311C121.009 297.797 119.036 299.277 117.635 300.387L115.993 301.717C115.795 301.895 115.577 302.049 115.344 302.178C115.504 301.974 115.684 301.787 115.882 301.62C116.246 301.269 116.784 300.782 117.466 300.205C119.255 298.701 121.134 297.307 123.092 296.032C125.383 294.533 127.531 293.313 129.102 292.456C129.887 292.028 130.53 291.69 130.977 291.463C131.209 291.328 131.455 291.219 131.711 291.139Z" fill="#263238"/>
<path d="M131.712 291.138C130.916 291.049 130.125 290.917 129.343 290.742C127.889 290.489 125.878 290.184 123.632 290.009C121.387 289.834 119.349 289.814 117.869 289.821C117.072 289.865 116.272 289.865 115.475 289.821C115.686 289.76 115.904 289.727 116.124 289.723C116.539 289.678 117.136 289.639 117.876 289.6C119.808 289.512 121.743 289.542 123.671 289.691C125.6 289.841 127.517 290.121 129.408 290.528C130.128 290.69 130.706 290.833 131.108 290.95C131.316 290.991 131.518 291.054 131.712 291.138Z" fill="#263238"/>
<path d="M150.753 318.916C150.715 319.251 150.646 319.581 150.545 319.902C150.396 320.551 150.143 321.441 149.805 322.55C148.913 325.442 147.829 328.272 146.561 331.019C145.288 333.767 143.836 336.427 142.212 338.982C141.563 339.962 141.057 340.741 140.674 341.26C140.478 341.541 140.261 341.808 140.025 342.058C140.168 341.754 140.337 341.463 140.532 341.189C140.882 340.644 141.375 339.845 141.979 338.859C143.534 336.275 144.951 333.611 146.223 330.877C147.483 328.139 148.594 325.336 149.552 322.479C149.922 321.382 150.201 320.487 150.396 319.883C150.485 319.55 150.604 319.227 150.753 318.916Z" fill="#263238"/>
<path d="M200.128 261.605C200.108 261.735 200.073 261.861 200.024 261.982L199.673 263.033C199.518 263.494 199.323 264.052 199.063 264.688C198.804 265.324 198.538 266.064 198.187 266.856C197.538 268.452 196.636 270.315 195.591 272.339C194.547 274.364 193.236 276.532 191.775 278.732C190.315 280.932 188.777 282.931 187.33 284.702C185.883 286.474 184.481 287.986 183.261 289.245C182.664 289.894 182.086 290.4 181.593 290.881C181.1 291.361 180.665 291.757 180.295 292.075L179.452 292.808C179.358 292.896 179.256 292.974 179.146 293.042C179.146 293.042 179.224 292.938 179.406 292.756L180.204 291.977C180.555 291.646 180.977 291.238 181.457 290.744C181.937 290.251 182.495 289.712 183.079 289.076C184.273 287.83 185.636 286.292 187.083 284.534C188.531 282.775 190.023 280.75 191.49 278.57C192.957 276.389 194.216 274.221 195.312 272.216C196.409 270.211 197.259 268.361 197.98 266.784C198.35 266.006 198.629 265.279 198.901 264.649C199.174 264.02 199.388 263.468 199.55 263.014L199.959 261.982C200 261.85 200.057 261.724 200.128 261.605Z" fill="#263238"/>
<path d="M221.38 243.062C221.401 243.125 221.412 243.191 221.413 243.257L221.464 243.822C221.508 244.345 221.566 245.072 221.64 246.002C221.795 247.891 222.01 250.63 222.289 254.011C222.938 260.766 223.95 270.086 225.534 280.313C226.351 285.427 227.085 290.314 228.181 294.649C228.694 296.704 229.367 298.715 230.193 300.665C230.939 302.352 231.789 303.99 232.737 305.571C233.52 306.876 234.45 308.087 235.508 309.18C236.318 309.991 237.23 310.694 238.221 311.269C238.847 311.627 239.497 311.939 240.168 312.204L240.7 312.405C240.764 312.423 240.825 312.449 240.882 312.483C240.818 312.474 240.754 312.459 240.694 312.438L240.148 312.269C239.456 312.032 238.785 311.736 238.143 311.386C237.127 310.82 236.191 310.122 235.359 309.31C234.275 308.223 233.323 307.011 232.523 305.701C231.55 304.118 230.683 302.473 229.927 300.776C229.082 298.817 228.392 296.794 227.863 294.727C226.741 290.366 226.007 285.479 225.19 280.365C223.593 270.125 222.594 260.792 222.036 254.03C221.75 250.649 221.568 247.904 221.458 246.009C221.413 245.081 221.374 244.347 221.348 243.828V243.257C221.354 243.192 221.365 243.127 221.38 243.062Z" fill="#263238"/>
<g opacity="0.3">
<path opacity="0.3" d="M179.86 293.061C186.48 291.452 191.438 288.667 195.163 282.956C198.888 277.246 200.128 270.12 200.16 261.969C194.884 274.695 187.979 285.52 179.289 293.165" fill="black"/>
</g>
<path d="M168.268 211.277C168.212 211.283 168.155 211.283 168.099 211.277L167.612 211.18C167.19 211.089 166.561 210.972 165.75 210.862C163.449 210.566 161.12 210.566 158.819 210.862C155.408 211.306 152.074 212.214 148.909 213.562C145.043 215.237 141.311 217.207 137.747 219.454C133.918 221.797 130.303 224.12 126.766 225.788C123.66 227.332 120.313 228.335 116.869 228.754C114.544 229.032 112.187 228.889 109.912 228.332C109.08 228.136 108.271 227.853 107.498 227.489C107.554 227.493 107.609 227.506 107.66 227.527L108.128 227.69C108.329 227.768 108.582 227.846 108.887 227.93C109.235 228.039 109.588 228.13 109.945 228.202C112.209 228.706 114.543 228.811 116.843 228.514C120.252 228.062 123.56 227.04 126.63 225.49C130.141 223.822 133.768 221.499 137.571 219.156C141.15 216.896 144.902 214.923 148.792 213.257C151.985 211.905 155.351 211.005 158.793 210.583C161.113 210.314 163.46 210.356 165.769 210.706C166.396 210.801 167.018 210.929 167.632 211.089L168.106 211.219L168.268 211.277Z" fill="#FAFAFA"/>
<path d="M135.599 264.907C135.498 264.96 135.391 265.002 135.281 265.031L134.347 265.316C133.944 265.44 133.445 265.582 132.854 265.719C132.263 265.855 131.608 266.043 130.862 266.186C129.375 266.504 127.617 266.796 125.598 267.03C123.443 267.256 121.276 267.369 119.109 267.367C116.929 267.339 114.752 267.196 112.587 266.939C110.594 266.679 108.816 266.361 107.336 266.017C106.59 265.868 105.928 265.68 105.344 265.524C104.76 265.368 104.267 265.232 103.858 265.102L102.904 264.797C102.794 264.769 102.687 264.727 102.586 264.674C102.701 264.675 102.815 264.695 102.923 264.732L103.871 264.972C104.28 265.083 104.779 265.212 105.364 265.342C105.948 265.472 106.616 265.647 107.356 265.784C108.836 266.095 110.601 266.387 112.6 266.627C114.755 266.869 116.921 267.001 119.089 267.023C121.393 267.023 123.587 266.906 125.579 266.718C127.571 266.53 129.343 266.244 130.829 265.952C131.576 265.823 132.237 265.66 132.828 265.537C133.419 265.414 133.918 265.29 134.327 265.187L135.275 264.959C135.38 264.927 135.489 264.91 135.599 264.907Z" fill="#FAFAFA"/>
<path d="M124.423 294.136C124.095 294.167 123.765 294.167 123.437 294.136C122.788 294.084 121.879 294.045 120.743 294.032C119.608 294.019 118.258 294.032 116.759 294.168C115.137 294.3 113.523 294.516 111.924 294.817C110.329 295.141 108.752 295.546 107.199 296.031C105.772 296.498 104.5 296.965 103.461 297.42C102.423 297.874 101.573 298.244 101.008 298.529C100.718 298.691 100.414 298.826 100.1 298.932C100.364 298.733 100.647 298.559 100.943 298.413C101.495 298.088 102.326 297.673 103.364 297.199C104.583 296.645 105.831 296.158 107.102 295.739C108.662 295.23 110.251 294.812 111.859 294.486C113.47 294.175 115.097 293.958 116.733 293.837C118.07 293.745 119.411 293.721 120.75 293.766C121.892 293.811 122.814 293.889 123.443 293.974C123.774 294.001 124.101 294.055 124.423 294.136Z" fill="#FAFAFA"/>
<path d="M144.502 307.926C144.431 308.066 144.344 308.196 144.242 308.315L143.431 309.392C143.087 309.86 142.646 310.424 142.094 311.047C141.542 311.67 140.958 312.41 140.219 313.156L139.089 314.344C138.693 314.753 138.252 315.149 137.791 315.571C136.915 316.44 135.903 317.277 134.852 318.167C132.527 320.067 130.073 321.802 127.505 323.358C124.916 324.878 122.223 326.212 119.445 327.349C118.147 327.843 116.933 328.329 115.759 328.686C115.175 328.875 114.61 329.069 114.065 329.225L112.482 329.653C111.476 329.945 110.535 330.114 109.736 330.302C108.938 330.491 108.218 330.601 107.64 330.685L106.342 330.88C106.189 330.914 106.032 330.929 105.875 330.925C106.025 330.876 106.179 330.839 106.336 330.815L107.634 330.555C108.205 330.452 108.932 330.322 109.704 330.114C110.476 329.906 111.437 329.738 112.43 329.426L114 328.978C114.545 328.823 115.103 328.615 115.681 328.427C116.849 328.063 118.063 327.564 119.341 327.07C122.096 325.92 124.769 324.585 127.343 323.073C129.908 321.525 132.367 319.808 134.702 317.933C135.747 317.044 136.766 316.213 137.642 315.337C138.09 314.915 138.531 314.526 138.94 314.123L140.082 312.955C140.829 312.228 141.426 311.502 141.984 310.892C142.542 310.282 142.996 309.73 143.36 309.276L144.216 308.244C144.304 308.132 144.4 308.026 144.502 307.926Z" fill="#FAFAFA"/>
<path d="M240.486 320.257C240.416 320.295 240.342 320.325 240.266 320.348L239.617 320.575L237.086 321.406C234.879 322.12 231.686 323.132 227.689 324.21C225.683 324.722 223.483 325.287 221.089 325.748C218.548 326.273 215.981 326.656 213.398 326.896C207.463 327.532 201.461 327.068 195.694 325.527C189.581 323.814 184.143 321.153 179.1 319.037C174.689 317.047 170.061 315.577 165.309 314.657C162.097 314.06 158.81 313.987 155.575 314.443C155.004 314.508 154.504 314.631 154.069 314.715C153.699 314.782 153.333 314.868 152.972 314.975L152.323 315.15C152.248 315.175 152.169 315.19 152.09 315.195C152.162 315.165 152.235 315.139 152.31 315.118L152.959 314.91C153.252 314.819 153.608 314.709 154.05 314.618C154.491 314.527 154.984 314.391 155.562 314.313C158.807 313.804 162.115 313.841 165.348 314.423C169.45 315.072 174.181 316.617 179.223 318.752C184.266 320.887 189.711 323.489 195.785 325.19C201.512 326.721 207.47 327.192 213.366 326.578C215.934 326.35 218.488 325.986 221.017 325.488C223.405 325.034 225.599 324.489 227.604 323.989C231.608 322.944 234.808 321.964 237.021 321.296L239.571 320.524L240.22 320.329C240.307 320.297 240.396 320.274 240.486 320.257Z" fill="#FAFAFA"/>
<path d="M190.82 277.056C190.82 277.101 190.016 276.706 188.711 276.18C187.014 275.493 185.256 274.965 183.461 274.603C181.662 274.255 179.835 274.073 178.003 274.058C176.595 274.058 175.725 274.123 175.719 274.058C175.916 273.992 176.121 273.953 176.329 273.941C176.718 273.889 177.289 273.837 178.003 273.811C181.719 273.693 185.412 274.426 188.802 275.953C189.316 276.177 189.816 276.431 190.301 276.712C190.489 276.802 190.664 276.918 190.82 277.056Z" fill="#FAFAFA"/>
<path d="M225.792 272.235C225.697 272.28 225.597 272.317 225.494 272.345L224.637 272.598C223.885 272.812 222.788 273.085 221.392 273.377C217.828 274.13 214.207 274.586 210.568 274.74C206.928 274.893 203.281 274.748 199.665 274.305C198.283 274.13 197.166 273.948 196.42 273.799L195.537 273.617C195.432 273.603 195.33 273.574 195.232 273.532C195.338 273.515 195.445 273.515 195.55 273.532L196.44 273.649C197.212 273.76 198.328 273.902 199.717 274.045C206.939 274.804 214.234 274.493 221.367 273.124C222.736 272.864 223.839 272.63 224.611 272.475L225.487 272.28C225.586 272.248 225.689 272.233 225.792 272.235Z" fill="#FAFAFA"/>
<path d="M221.581 215.474C221.472 215.515 221.359 215.541 221.243 215.552L220.27 215.701C219.426 215.831 218.193 215.98 216.674 216.149C213.637 216.473 209.419 216.798 204.746 216.902C200.074 217.005 195.849 216.85 192.799 216.648C191.274 216.545 190.041 216.441 189.19 216.35L188.211 216.24C188.096 216.238 187.982 216.219 187.873 216.181C187.987 216.166 188.103 216.166 188.217 216.181L189.197 216.227L192.812 216.415C195.862 216.558 200.08 216.668 204.74 216.571C209.399 216.473 213.611 216.181 216.655 215.922L220.257 215.584L221.237 215.493C221.35 215.473 221.466 215.466 221.581 215.474Z" fill="#FAFAFA"/>
<path d="M147.202 157.403C143.958 150.7 140.765 143.937 138.766 136.779C136.767 129.621 135.93 121.976 137.559 114.714C137.805 113.617 140.155 106.135 141.303 106.096C142.108 106.096 140.953 112.897 141.446 113.533C146.177 119.607 148.293 127.388 148.715 135.072C149.051 142.548 148.552 150.038 147.228 157.403" fill="#263238"/>
<path d="M183.59 229.817C172.122 231.115 153.562 209.388 152.004 197.959L142.64 129.168C139.538 110.763 147.656 93.6174 166.139 91.0216L167.865 90.8788C176.225 90.2008 184.533 92.6957 191.137 97.8668C197.74 103.038 202.154 110.506 203.5 118.785C206.096 134.749 206.596 145.775 207.394 154.387C209.341 175.076 192.961 183.15 192.961 183.15C192.961 183.15 193.422 187.277 194.071 192.488C195.537 204.209 193.389 228.513 181.662 229.85L183.59 229.817Z" fill="#94675A"/>
<path d="M193 183.324C193 183.324 181.798 184.901 169.195 178.34C169.195 178.34 175.919 190.865 193.597 187.808L193 183.324Z" fill="#744A3C"/>
<path d="M177.477 155.873C177.826 155.415 178.273 155.041 178.785 154.778C179.297 154.516 179.861 154.371 180.436 154.355C181.012 154.339 181.583 154.452 182.109 154.686C182.635 154.919 183.102 155.268 183.475 155.705C183.849 156.143 184.12 156.658 184.268 157.214C184.417 157.77 184.439 158.353 184.333 158.918C184.227 159.484 183.996 160.019 183.656 160.483C183.317 160.948 182.877 161.33 182.37 161.603C181.418 162.074 180.337 162.218 179.294 162.012C178.494 161.914 177.747 161.559 177.166 161C176.791 160.558 176.535 160.029 176.422 159.461C176.308 158.893 176.341 158.306 176.517 157.755C176.764 156.832 177.262 155.996 177.957 155.341" fill="#744A3C"/>
<path d="M196.615 133.858C196.676 134.521 196.475 135.182 196.056 135.7C195.636 136.217 195.032 136.551 194.37 136.629C194.048 136.682 193.718 136.669 193.401 136.592C193.084 136.515 192.785 136.375 192.523 136.181C192.26 135.987 192.039 135.742 191.873 135.462C191.706 135.181 191.598 134.869 191.554 134.546C191.493 133.883 191.694 133.222 192.113 132.704C192.533 132.187 193.137 131.853 193.799 131.775C194.121 131.722 194.451 131.734 194.769 131.81C195.086 131.887 195.385 132.026 195.648 132.22C195.911 132.415 196.132 132.66 196.298 132.941C196.464 133.222 196.572 133.534 196.615 133.858Z" fill="#263238"/>
<path d="M200.457 127.844C200.171 128.201 198.121 126.929 195.382 127.157C192.643 127.384 190.735 128.922 190.411 128.61C190.255 128.474 190.528 127.851 191.352 127.137C192.474 126.22 193.852 125.671 195.298 125.567C196.723 125.447 198.149 125.781 199.373 126.521C200.249 127.105 200.6 127.682 200.457 127.844Z" fill="#263238"/>
<path d="M171.728 136.111C171.79 136.775 171.59 137.437 171.17 137.955C170.751 138.473 170.145 138.806 169.483 138.883C169.161 138.935 168.831 138.922 168.514 138.845C168.197 138.768 167.898 138.629 167.635 138.435C167.373 138.241 167.152 137.996 166.986 137.715C166.819 137.434 166.711 137.123 166.666 136.799C166.614 136.137 166.818 135.48 167.235 134.963C167.653 134.446 168.253 134.109 168.912 134.022C169.234 133.969 169.564 133.982 169.882 134.06C170.2 134.137 170.499 134.277 170.761 134.472C171.024 134.667 171.245 134.912 171.411 135.194C171.577 135.475 171.685 135.787 171.728 136.111Z" fill="#263238"/>
<path d="M174.13 130.643C173.838 131 171.787 129.728 169.048 129.994C166.31 130.26 164.408 131.759 164.084 131.447C163.921 131.311 164.194 130.682 165.025 129.974C166.143 129.053 167.519 128.502 168.964 128.397C170.39 128.276 171.818 128.612 173.04 129.358C173.935 129.903 174.292 130.48 174.13 130.643Z" fill="#263238"/>
<path d="M185.09 150.227C185.09 150.071 186.745 149.643 189.477 149.065C190.172 148.935 190.827 148.741 190.905 148.254C190.983 147.767 190.678 147.001 190.256 146.216L187.751 141.024C184.26 133.665 181.67 127.591 181.969 127.448C182.267 127.305 185.337 133.165 188.828 140.525C189.672 142.342 190.483 144.075 191.249 145.716C191.58 146.489 192.112 147.358 191.84 148.436C191.758 148.691 191.618 148.924 191.433 149.117C191.247 149.311 191.02 149.459 190.769 149.552C190.39 149.689 189.995 149.779 189.594 149.818C186.836 150.259 185.116 150.408 185.09 150.227Z" fill="#263238"/>
<path d="M177.172 152.823C177.614 152.758 177.86 155.737 180.586 157.645C183.312 159.553 186.427 158.943 186.504 159.378C186.563 159.56 185.855 160.027 184.506 160.157C182.762 160.321 181.016 159.861 179.58 158.859C178.197 157.904 177.239 156.45 176.906 154.803C176.692 153.57 176.965 152.823 177.172 152.823Z" fill="#263238"/>
<path d="M173.317 119.914C173.109 120.68 170.338 120.563 167.152 121.212C163.965 121.861 161.434 122.952 160.954 122.316C160.733 122.011 161.129 121.277 162.122 120.466C163.449 119.466 164.988 118.782 166.62 118.467C168.252 118.152 169.934 118.214 171.539 118.649C172.759 119.012 173.401 119.551 173.317 119.914Z" fill="#263238"/>
<path d="M198.75 120.16C198.315 120.809 196.374 120.329 194.097 120.484C191.819 120.64 189.937 121.244 189.443 120.627C189.223 120.329 189.476 119.68 190.268 119.024C191.338 118.224 192.623 117.761 193.958 117.694C195.293 117.627 196.618 117.959 197.763 118.648C198.62 119.219 198.951 119.842 198.75 120.16Z" fill="#263238"/>
<path d="M145.198 142.438C144.887 142.328 132.641 139.842 134.023 151.978C135.405 164.114 147.34 160.252 147.32 159.902C147.301 159.551 145.198 142.438 145.198 142.438Z" fill="#94675A"/>
<path d="M143.076 155.737C143.018 155.704 142.882 155.912 142.544 156.119C142.063 156.39 141.496 156.464 140.961 156.327C139.624 156.003 138.306 154.082 138.001 151.895C137.852 150.855 137.937 149.795 138.248 148.793C138.32 148.399 138.486 148.028 138.732 147.713C138.979 147.398 139.298 147.147 139.663 146.982C139.896 146.891 140.153 146.885 140.39 146.965C140.627 147.044 140.829 147.204 140.961 147.417C141.168 147.741 141.116 147.994 141.181 148.007C141.246 148.02 141.421 147.774 141.266 147.28C141.163 146.987 140.964 146.738 140.701 146.573C140.522 146.465 140.322 146.394 140.115 146.364C139.908 146.334 139.697 146.345 139.494 146.398C138.559 146.567 137.813 147.527 137.489 148.533C137.091 149.647 136.973 150.841 137.145 152.011C137.495 154.452 139.014 156.606 140.831 156.918C141.168 156.975 141.515 156.956 141.844 156.862C142.173 156.767 142.477 156.6 142.732 156.373C143.089 156.068 143.141 155.756 143.076 155.737Z" fill="#744A3C"/>
<path d="M193.617 99.9902C195.454 98.6922 188.348 92.8126 183.234 91.2096C175.517 88.7889 164.109 88.114 157.606 90.8462C149.773 94.143 143.53 99.0038 140.356 106.889C137.183 114.774 136.709 123.561 137.981 131.959C138.364 134.554 138.961 137.15 140.577 139.182C142.582 141.635 145.989 142.926 146.366 146.56C146.437 147.876 146.983 149.122 147.904 150.065C150.5 152.466 153.037 149.838 154.036 147.391C156.126 142.316 155.73 136.612 155.334 131.167C155.036 127.422 154.517 121.763 153.154 118.265C152.638 116.966 152.322 115.597 152.219 114.203C151.996 111.927 152.428 109.634 153.465 107.596C153.752 107.154 154.077 106.739 154.439 106.357C155.762 104.967 157.424 103.946 159.262 103.395C161.101 102.844 163.05 102.782 164.92 103.216C172.11 104.786 178.12 107.992 185.687 103.748C187.361 102.807 188.056 101.249 188.769 100.315C189.834 98.9194 192.235 98.7766 193.585 99.8928L193.617 99.9902Z" fill="#263238"/>
<path d="M147.721 164.298C147.779 164.298 147.883 164.557 147.669 164.947C147.498 165.203 147.276 165.421 147.017 165.589C146.758 165.756 146.468 165.869 146.164 165.92C145.291 166.109 144.38 166.011 143.568 165.641C142.542 165.186 141.736 164.347 141.322 163.305C140.911 162.267 140.886 161.115 141.251 160.06C141.561 159.244 142.099 158.534 142.802 158.016C144.041 157.146 145.021 157.231 145.021 157.367C145.021 157.503 144.197 157.711 143.256 158.587C142.66 159.132 142.244 159.845 142.062 160.632C141.88 161.419 141.941 162.242 142.237 162.993C142.547 163.73 143.083 164.349 143.768 164.761C144.453 165.173 145.251 165.356 146.047 165.284C146.523 165.257 146.978 165.077 147.345 164.772C147.591 164.506 147.682 164.291 147.721 164.298Z" fill="#263238"/>
<path d="M166.816 231.53C166.816 231.53 165.232 235.23 163.292 236.281C161.351 237.332 154.855 243.679 153.077 248.962C151.299 254.244 150.436 262.525 150.436 262.525L164.882 280.671C164.882 280.671 172.072 277.224 175.492 274.116C178.614 271.273 184.429 265.679 187.823 262.434C189.856 260.486 191.43 258.11 192.431 255.477C192.69 254.777 192.839 254.238 192.736 254.082C192.385 253.556 191.502 252.499 191.502 252.499C191.502 252.499 192.035 250.208 191.152 248.8C190.269 247.391 189.744 246.509 189.744 246.509C189.744 246.509 191.1 243.634 190.574 242.225C190.138 241.261 189.469 240.42 188.628 239.779C188.628 239.779 198.505 233.828 198.68 232.069C198.855 230.31 199.115 229.83 197.006 229.83C194.897 229.83 182.683 234.185 179.334 236.119C175.986 238.053 168.769 241.401 168.769 241.401C168.769 241.401 172.273 232.588 166.816 231.53Z" fill="#94675A"/>
<path d="M168.762 241.557C168.188 241.914 167.584 242.222 166.958 242.478L162.552 244.574L158.158 246.716C157.563 247.041 156.945 247.32 156.309 247.553C156.854 247.149 157.437 246.797 158.048 246.502C159.145 245.898 160.683 245.1 162.402 244.269C164.122 243.439 165.706 242.744 166.861 242.264C167.472 241.972 168.109 241.736 168.762 241.557Z" fill="#744A3C"/>
<path d="M189.795 238.961C189.597 239.153 189.38 239.325 189.147 239.474C188.725 239.792 188.102 240.233 187.323 240.772C185.772 241.842 183.591 243.27 181.138 244.776C178.685 246.281 176.407 247.553 174.746 248.449C173.915 248.897 173.24 249.247 172.766 249.481C172.528 249.618 172.276 249.729 172.014 249.812C172.227 249.639 172.457 249.489 172.702 249.364L174.648 248.241C176.284 247.294 178.542 245.983 180.982 244.484C183.423 242.985 185.629 241.589 187.213 240.59L189.095 239.389C189.311 239.22 189.546 239.076 189.795 238.961Z" fill="#744A3C"/>
<path d="M189.955 246.723C189.955 246.723 189.826 246.911 189.547 247.203C189.268 247.495 188.846 247.904 188.32 248.403C187.256 249.39 185.724 250.701 183.972 252.031C182.466 253.168 180.902 254.225 179.286 255.198C178.637 255.575 178.151 255.847 177.794 256.048C177.615 256.16 177.423 256.25 177.223 256.314C177.844 255.841 178.494 255.408 179.17 255.017C180.377 254.225 182.025 253.102 183.784 251.772C185.542 250.441 187.074 249.176 188.171 248.235C188.738 247.699 189.334 247.194 189.955 246.723Z" fill="#744A3C"/>
<path d="M191.411 251.52C191.498 251.724 191.529 251.948 191.502 252.169C191.464 252.786 191.272 253.384 190.944 253.908C190.445 254.666 189.812 255.326 189.075 255.855C188.27 256.465 187.387 257.114 186.479 257.802C184.61 259.171 182.909 260.397 181.67 261.28C181.021 261.715 180.541 262.065 180.19 262.299C180.014 262.435 179.822 262.55 179.619 262.643C179.762 262.471 179.928 262.32 180.112 262.195C180.437 261.929 180.924 261.546 181.527 261.085C182.734 260.164 184.409 258.898 186.278 257.529C188.147 256.16 189.97 255.043 190.768 253.765C191.109 253.283 191.332 252.727 191.417 252.143C191.424 251.76 191.385 251.52 191.411 251.52Z" fill="#744A3C"/>
<path d="M263.135 279.82L246.327 241.732H246.223L262.505 214.475L257.417 209.063L230.751 204.234C230.751 204.234 228.993 197.316 226.818 197.459C224.644 197.602 223.372 198.257 223.139 207.194C223.139 207.194 222.094 222.451 221.782 226.403C221.529 229.7 221.711 237.76 221.782 240.032C221.782 240.181 221.782 240.343 221.782 240.531V240.642C222.295 249.688 232.445 295.681 234.113 301.074C234.963 303.787 237.436 305.059 240.187 305.617C242.949 306.124 245.795 305.909 248.448 304.993C251.102 304.076 253.474 302.49 255.334 300.386C259.079 296.22 263.524 289.827 263.771 282.78L263.135 279.82ZM223.126 207.706C223.126 207.856 223.126 207.973 223.126 208.07C223.119 207.986 223.126 207.83 223.126 207.706Z" fill="#94675A"/>
<path d="M262.636 161.883H229.733C227.708 161.883 226.066 163.524 226.066 165.549V237.047C226.066 239.072 227.708 240.713 229.733 240.713H262.636C264.661 240.713 266.303 239.072 266.303 237.047V165.549C266.303 163.524 264.661 161.883 262.636 161.883Z" fill="#263238"/>
<path d="M262.453 165.381H230.173C228.944 165.381 227.947 166.377 227.947 167.607V236.651C227.947 237.88 228.944 238.877 230.173 238.877H262.453C263.682 238.877 264.679 237.88 264.679 236.651V167.607C264.679 166.377 263.682 165.381 262.453 165.381Z" fill="white"/>
<rect opacity="0.8" x="232" y="198" width="30" height="8.27586" rx="1.88088" fill="#F4F4F4"/>
<circle opacity="0.6" cx="249.021" cy="202.139" r="0.564263" fill="#9F9D9B"/>
<circle opacity="0.6" cx="253.346" cy="202.139" r="0.564263" fill="#9F9D9B"/>
<path d="M240.678 202.073C240.824 202.145 240.928 202.228 240.991 202.321C241.055 202.414 241.087 202.52 241.087 202.639C241.087 202.805 241.032 202.952 240.923 203.08C240.79 203.235 240.6 203.313 240.352 203.313C240.113 203.313 239.932 203.245 239.808 203.109C239.685 202.972 239.623 202.821 239.623 202.656C239.623 202.536 239.655 202.428 239.72 202.332C239.785 202.235 239.892 202.148 240.043 202.073C239.937 202.018 239.858 201.95 239.805 201.869C239.752 201.787 239.726 201.7 239.726 201.607C239.726 201.513 239.754 201.422 239.81 201.332C239.866 201.242 239.944 201.172 240.043 201.121C240.143 201.069 240.251 201.043 240.367 201.043C240.479 201.043 240.584 201.069 240.68 201.121C240.776 201.173 240.85 201.243 240.904 201.332C240.959 201.422 240.987 201.515 240.987 201.613C240.987 201.711 240.961 201.798 240.909 201.875C240.858 201.951 240.781 202.017 240.678 202.073ZM240.356 201.253C240.238 201.253 240.139 201.288 240.061 201.359C239.984 201.428 239.945 201.512 239.945 201.609C239.945 201.705 239.986 201.792 240.07 201.87C240.154 201.948 240.252 201.986 240.364 201.986C240.435 201.986 240.503 201.969 240.566 201.933C240.63 201.898 240.68 201.85 240.715 201.789C240.751 201.728 240.769 201.666 240.769 201.604C240.769 201.517 240.734 201.437 240.663 201.363C240.593 201.29 240.49 201.253 240.356 201.253ZM240.367 202.182C240.218 202.182 240.093 202.23 239.992 202.327C239.891 202.423 239.841 202.535 239.841 202.664C239.841 202.743 239.862 202.818 239.905 202.888C239.948 202.959 240.009 203.013 240.086 203.052C240.163 203.09 240.253 203.109 240.355 203.109C240.513 203.109 240.638 203.062 240.731 202.969C240.824 202.876 240.871 202.768 240.871 202.643C240.871 202.523 240.821 202.416 240.722 202.323C240.624 202.229 240.506 202.182 240.367 202.182Z" fill="black"/>
<path d="M243.66 202.179C243.66 201.894 243.69 201.673 243.751 201.518C243.813 201.362 243.9 201.244 244.011 201.163C244.123 201.083 244.248 201.043 244.386 201.043C244.526 201.043 244.653 201.084 244.767 201.165C244.88 201.245 244.97 201.366 245.036 201.528C245.102 201.689 245.135 201.906 245.135 202.179C245.135 202.45 245.103 202.666 245.037 202.827C244.972 202.987 244.883 203.109 244.768 203.191C244.653 203.273 244.526 203.313 244.386 203.313C244.248 203.313 244.123 203.273 244.013 203.194C243.902 203.115 243.815 202.997 243.753 202.84C243.691 202.682 243.66 202.462 243.66 202.179ZM243.864 202.183C243.864 202.427 243.886 202.612 243.929 202.737C243.973 202.862 244.038 202.956 244.123 203.021C244.208 203.085 244.298 203.118 244.393 203.118C244.489 203.118 244.579 203.086 244.662 203.024C244.746 202.96 244.809 202.865 244.852 202.739C244.906 202.585 244.933 202.4 244.933 202.183C244.933 201.966 244.909 201.788 244.861 201.65C244.813 201.511 244.746 201.409 244.661 201.346C244.577 201.281 244.487 201.249 244.393 201.249C244.297 201.249 244.207 201.281 244.123 201.346C244.039 201.409 243.975 201.504 243.93 201.629C243.886 201.754 243.864 201.938 243.864 202.183Z" fill="black"/>
<path d="M252.687 164.166H240.928C240.867 164.167 240.808 164.156 240.752 164.134C240.696 164.111 240.645 164.078 240.602 164.036C240.559 163.993 240.525 163.943 240.502 163.887C240.479 163.832 240.467 163.772 240.467 163.712C240.467 163.652 240.479 163.592 240.502 163.537C240.525 163.481 240.559 163.431 240.602 163.389C240.645 163.346 240.696 163.313 240.752 163.291C240.808 163.268 240.867 163.257 240.928 163.258H252.687C252.807 163.258 252.923 163.306 253.008 163.391C253.093 163.476 253.141 163.592 253.141 163.712C253.141 163.833 253.093 163.948 253.008 164.033C252.923 164.119 252.807 164.166 252.687 164.166Z" fill="#455A64"/>
<path d="M264.861 197.311C265.819 197.17 266.797 197.322 267.668 197.746C268.538 198.17 269.26 198.847 269.74 199.688C270.22 200.529 270.436 201.495 270.358 202.46C270.281 203.425 269.915 204.345 269.307 205.098C269.978 205.38 270.561 205.836 270.998 206.418C271.434 207.001 271.707 207.689 271.789 208.412C271.871 209.135 271.759 209.867 271.464 210.533C271.169 211.198 270.702 211.773 270.111 212.198C272.552 213.334 273.311 216.871 271.792 219.09C270.274 221.309 267.029 221.978 264.589 220.849C264.109 220.666 263.676 220.378 263.323 220.005C262.97 219.632 262.706 219.184 262.551 218.694C262.466 218.163 262.52 217.618 262.709 217.114C262.898 216.61 263.215 216.164 263.628 215.819C264.464 215.14 265.413 214.613 266.432 214.262C265.46 214.058 264.58 213.549 263.919 212.809C263.257 212.069 262.851 211.137 262.758 210.148C262.665 209.16 262.891 208.168 263.402 207.318C263.914 206.468 264.685 205.803 265.601 205.423C264.867 205.172 264.22 204.714 263.739 204.106C263.258 203.497 262.963 202.762 262.888 201.99C262.772 200.445 263.472 198.005 264.835 197.311" fill="#94675A"/>
<path d="M230.973 193.768C228.243 195.134 225.898 197.162 224.152 199.667L224.697 206.942C226.988 205.52 229.182 203.801 230.538 201.477C231.895 199.154 232.29 196.117 230.973 193.768Z" fill="#94675A"/>
<path d="M380.201 349.831C380.201 349.928 317.692 350 240.607 350C163.522 350 101 349.928 101 349.831C101 349.734 163.489 349.662 240.607 349.662C317.724 349.662 380.201 349.74 380.201 349.831Z" fill="#263238"/>
</svg>
